<svg width="85" height="52" viewBox="0 0 85 52" fill="none" xmlns="http://www.w3.org/2000/svg">
<path d="M13.19 48.9894L12.7081 49.8656L12.7142 49.8689L13.19 48.9894ZM6.12 42.8994L5.31639 43.4946L5.32355 43.5041L6.12 42.8994ZM1.85 34.7094L0.896876 35.0119L0.899047 35.0188L0.901317 35.0256L1.85 34.7094ZM1.99 17.1394L2.93569 17.4644H2.93569L1.99 17.1394ZM6.47 9.01936L7.24798 9.64773L7.25375 9.64044L6.47 9.01936ZM13.54 3.13936L14.0051 4.02462L14.0106 4.02172L13.54 3.13936ZM32.79 3.27936L33.283 2.40934V2.40934L32.79 3.27936ZM39.79 9.43937L38.9864 10.0346L38.9936 10.0441L39.79 9.43937ZM44.06 17.6294L43.1069 17.9319L43.1091 17.9388L43.1113 17.9456L44.06 17.6294ZM43.99 35.1294L43.0443 34.8043L43.99 35.1294ZM39.51 43.2494L40.2879 43.8777L39.51 43.2494ZM32.37 49.1294L32.8351 50.0146L32.8406 50.0117L32.37 49.1294ZM16.27 34.9894L15.3756 35.4366L15.3853 35.456L15.3958 35.475L16.27 34.9894ZM19 38.0694L18.422 38.8854L18.4335 38.8936L18.4453 38.9014L19 38.0694ZM27.05 37.9294L26.45 37.1294L26.4418 37.1355L26.4337 37.1419L27.05 37.9294ZM29.71 34.7094L28.8285 34.2371L28.8219 34.2496L28.8156 34.2621L29.71 34.7094ZM31.18 30.5094L30.2018 30.3019L30.1993 30.3134L30.1971 30.3251L31.18 30.5094ZM31.18 21.4794L32.1582 21.2719V21.2719L31.18 21.4794ZM29.64 17.2794L28.7585 17.7516L28.7621 17.7583L28.7658 17.765L29.64 17.2794ZM26.91 14.1994L26.3156 15.0035L26.3351 15.018L26.3553 15.0314L26.91 14.1994ZM18.93 14.2694L18.33 13.4694V13.4694L18.93 14.2694ZM16.2 17.4894L15.3185 17.0171L15.3119 17.0296L15.3056 17.0421L16.2 17.4894ZM14.73 21.7594L13.7518 21.5519L13.7493 21.5634L13.7471 21.5751L14.73 21.7594ZM22.99 50.2994C19.4461 50.2994 16.3471 49.5603 13.6658 48.1098L12.7142 49.8689C15.7262 51.4984 19.1606 52.2994 22.99 52.2994V50.2994ZM13.6719 48.1131C10.9934 46.6399 8.74424 44.702 6.91645 42.2947L5.32355 43.5041C7.32243 46.1367 9.78665 48.2588 12.7081 49.8656L13.6719 48.1131ZM6.92356 42.3041C5.11892 39.8679 3.74492 37.2319 2.79868 34.3931L0.901317 35.0256C1.91508 38.0669 3.38775 40.8909 5.31644 43.4946L6.92356 42.3041ZM2.80312 34.4068C1.89772 31.5548 1.45 28.7868 1.45 26.0994H-0.55C-0.55 29.0119 -0.0643901 31.984 0.896876 35.0119L2.80312 34.4068ZM1.45 26.0994C1.45 23.2295 1.9429 20.3525 2.93569 17.4644L1.04431 16.8143C-0.0162348 19.8995 -0.55 22.9959 -0.55 26.0994H1.45ZM2.93569 17.4644C3.92499 14.5865 5.362 11.9827 7.24794 9.6477L5.69206 8.39103C3.658 10.9094 2.10834 13.7189 1.04431 16.8143L2.93569 17.4644ZM7.25375 9.64044C9.12843 7.27477 11.3771 5.40543 14.0051 4.02461L13.0749 2.25412C10.1962 3.76663 7.73157 5.81729 5.68625 8.39828L7.25375 9.64044ZM14.0106 4.02172C16.6513 2.61335 19.6369 1.89936 22.99 1.89936V-0.100637C19.3431 -0.100637 16.0287 0.678713 13.0694 2.25701L14.0106 4.02172ZM22.99 1.89936C26.5785 1.89936 29.6699 2.6607 32.297 4.14938L33.283 2.40934C30.3101 0.724693 26.8682 -0.100637 22.99 -0.100637V1.89936ZM32.297 4.14938C34.9787 5.66901 37.2052 7.62987 38.9864 10.0346L40.5936 8.84414C38.6415 6.20886 36.2013 4.06305 33.283 2.40934L32.297 4.14938ZM38.9936 10.0441C40.8396 12.4754 42.209 15.1037 43.1069 17.9319L45.0131 17.3268C44.0443 14.275 42.5671 11.4433 40.5864 8.83466L38.9936 10.0441ZM43.1113 17.9456C44.0622 20.7982 44.53 23.5145 44.53 26.0994H46.53C46.53 23.2709 46.0178 20.3406 45.0087 17.3131L43.1113 17.9456ZM44.53 26.0994C44.53 29.0176 44.0365 31.9179 43.0443 34.8043L44.9357 35.4544C45.9968 32.3675 46.53 29.2478 46.53 26.0994H44.53ZM43.0443 34.8043C42.055 37.6823 40.618 40.2861 38.7321 42.621L40.2879 43.8777C42.322 41.3593 43.8717 38.5498 44.9357 35.4544L43.0443 34.8043ZM38.7321 42.621C36.8579 44.9414 34.5831 46.8157 31.8994 48.247L32.8406 50.0117C35.7569 48.4563 38.2421 46.4107 40.2879 43.8777L38.7321 42.621ZM31.9049 48.2441C29.3122 49.6064 26.3485 50.2994 22.99 50.2994V52.2994C26.6315 52.2994 29.9212 51.5457 32.8351 50.0146L31.9049 48.2441ZM13.31 26.0994C13.31 27.7106 13.481 29.3202 13.8218 30.9269L15.7782 30.5119C15.4657 29.0386 15.31 27.5681 15.31 26.0994H13.31ZM13.8218 30.9269C14.1647 32.5436 14.6814 34.0483 15.3756 35.4366L17.1644 34.5422C16.5519 33.3171 16.0886 31.9751 15.7782 30.5119L13.8218 30.9269ZM15.3958 35.475C16.1648 36.8592 17.1736 38.0011 18.422 38.8854L19.578 37.2533C18.5864 36.5509 17.7752 35.6395 17.1442 34.5037L15.3958 35.475ZM18.4453 38.9014C19.7524 39.7728 21.2819 40.1894 22.99 40.1894V38.1894C21.6181 38.1894 20.4876 37.8593 19.5547 37.2373L18.4453 38.9014ZM22.99 40.1894C24.8009 40.1894 26.3841 39.7204 27.6663 38.7169L26.4337 37.1419C25.5693 37.8184 24.4458 38.1894 22.99 38.1894V40.1894ZM27.65 38.7294C28.8996 37.7921 29.8848 36.5959 30.6044 35.1566L28.8156 34.2621C28.2286 35.4362 27.4404 36.3866 26.45 37.1294L27.65 38.7294ZM30.5915 35.1816C31.341 33.7824 31.8645 32.285 32.1629 30.6937L30.1971 30.3251C29.9355 31.7203 29.479 33.0229 28.8285 34.2371L30.5915 35.1816ZM32.1582 30.7169C32.4976 29.1169 32.67 27.5771 32.67 26.0994H30.67C30.67 27.4216 30.5157 28.8218 30.2018 30.3019L32.1582 30.7169ZM32.67 26.0994C32.67 24.4881 32.4991 22.8786 32.1582 21.2719L30.2018 21.6869C30.5143 23.1602 30.67 24.6306 30.67 26.0994H32.67ZM32.1582 21.2719C31.8128 19.6434 31.2667 18.1484 30.5142 16.7937L28.7658 17.765C29.4133 18.9304 29.8939 20.2353 30.2018 21.6869L32.1582 21.2719ZM30.5215 16.8071C29.7518 15.3705 28.735 14.2142 27.4647 13.3673L26.3553 15.0314C27.325 15.6779 28.1282 16.5749 28.7585 17.7516L30.5215 16.8071ZM27.5044 13.3952C26.2334 12.4557 24.7098 12.0094 22.99 12.0094V14.0094C24.3502 14.0094 25.44 14.3563 26.3156 15.0035L27.5044 13.3952ZM22.99 12.0094C21.2172 12.0094 19.6458 12.4825 18.33 13.4694L19.53 15.0694C20.4542 14.3762 21.5895 14.0094 22.99 14.0094V12.0094ZM18.33 13.4694C17.0866 14.4019 16.0832 15.5897 15.3185 17.0171L17.0815 17.9616C17.7168 16.7757 18.5334 15.8168 19.53 15.0694L18.33 13.4694ZM15.3056 17.0421C14.6114 18.4305 14.0947 19.9351 13.7518 21.5519L15.7082 21.9669C16.0186 20.5036 16.4819 19.1616 17.0944 17.9366L15.3056 17.0421ZM13.7471 21.5751C13.4567 23.1241 13.31 24.6326 13.31 26.0994H15.31C15.31 24.7662 15.4433 23.3813 15.7129 21.9437L13.7471 21.5751ZM84.9307 38.6994H85.9307V37.6994H84.9307V38.6994ZM84.9307 50.5994V51.5994H85.9307V50.5994H84.9307ZM52.5207 50.5994H51.5207V51.5994H52.5207V50.5994ZM52.5207 38.6994V37.6994H51.5207V38.6994H52.5207ZM62.4607 38.6994V39.6994H63.4607V38.6994H62.4607ZM62.4607 13.3594H63.4607V10.0566L61.6287 12.8047L62.4607 13.3594ZM60.5707 15.2494L61.1639 16.0544L61.1773 16.0446L61.1903 16.0342L60.5707 15.2494ZM57.4907 17.2094L57.967 18.0887L57.9793 18.0819L57.4907 17.2094ZM54.0607 18.7494L54.3994 19.6903L54.0607 18.7494ZM50.9107 19.3794H49.9107V20.3794H50.9107V19.3794ZM50.9107 7.19937V6.19937H49.9107V7.19937H50.9107ZM54.7607 6.21936L54.3259 5.31873L54.3135 5.32494L54.7607 6.21936ZM58.4707 3.97936L57.8864 3.16783L57.8785 3.17352L57.8707 3.17937L58.4707 3.97936ZM61.2707 1.66936L60.5868 0.939823L60.575 0.950853L60.5636 0.962255L61.2707 1.66936ZM62.4607 0.549363V-0.450637H62.0465L61.7536 -0.157749L62.4607 0.549363ZM76.0407 0.549363H77.0407V-0.450637H76.0407V0.549363ZM76.0407 38.6994H75.0407V39.6994H76.0407V38.6994ZM83.9307 38.6994V50.5994H85.9307V38.6994H83.9307ZM84.9307 49.5994H52.5207V51.5994H84.9307V49.5994ZM53.5207 50.5994V38.6994H51.5207V50.5994H53.5207ZM52.5207 39.6994H62.4607V37.6994H52.5207V39.6994ZM63.4607 38.6994V13.3594H61.4607V38.6994H63.4607ZM61.6287 12.8047C61.3398 13.2379 60.8032 13.7918 59.9511 14.4645L61.1903 16.0342C62.1116 15.307 62.8349 14.6008 63.2928 13.9141L61.6287 12.8047ZM59.9775 14.4443C59.1304 15.0685 58.1399 15.6997 57.0021 16.3369L57.9793 18.0819C59.1748 17.4124 60.2376 16.7369 61.1639 16.0544L59.9775 14.4443ZM57.0144 16.3301C55.9375 16.9134 54.84 17.406 53.722 17.8085L54.3994 19.6903C55.6147 19.2528 56.804 18.7186 57.967 18.0887L57.0144 16.3301ZM53.722 17.8085C52.6304 18.2014 51.6976 18.3794 50.9107 18.3794V20.3794C51.9905 20.3794 53.1577 20.1373 54.3994 19.6903L53.722 17.8085ZM51.9107 19.3794V7.19937H49.9107V19.3794H51.9107ZM50.9107 8.19937C52.3489 8.19937 53.7845 7.82548 55.2079 7.11379L54.3135 5.32494C53.1235 5.91991 51.9925 6.19937 50.9107 6.19937V8.19937ZM55.1955 7.11992C56.6028 6.44053 57.8954 5.66086 59.0707 4.77936L57.8707 3.17937C56.806 3.97787 55.6253 4.69154 54.326 5.31881L55.1955 7.11992ZM59.055 4.7909C60.2477 3.93218 61.227 3.12733 61.9778 2.37647L60.5636 0.962255C59.9145 1.6114 59.0271 2.34655 57.8864 3.16783L59.055 4.7909ZM61.9546 2.3989C62.6893 1.71015 63.106 1.31823 63.1678 1.25648L61.7536 -0.157749C61.7539 -0.158013 61.7324 -0.137206 61.6723 -0.0803413C61.6181 -0.0289545 61.5417 0.0430956 61.4428 0.136161C61.2452 0.322151 60.96 0.589955 60.5868 0.939823L61.9546 2.3989ZM62.4607 1.54936H76.0407V-0.450637H62.4607V1.54936ZM75.0407 0.549363V38.6994H77.0407V0.549363H75.0407ZM76.0407 39.6994H84.9307V37.6994H76.0407V39.6994Z" fill="#5D5FEF"/>
</svg>
