<svg width="89" height="52" viewBox="0 0 89 52" fill="none" xmlns="http://www.w3.org/2000/svg">
<path d="M13.19 48.9894L12.7081 49.8656L12.7142 49.8689L13.19 48.9894ZM6.12 42.8994L5.31639 43.4946L5.32355 43.5041L6.12 42.8994ZM1.85 34.7094L0.896876 35.0119L0.899047 35.0188L0.901317 35.0256L1.85 34.7094ZM1.99 17.1394L2.93569 17.4644H2.93569L1.99 17.1394ZM6.47 9.01936L7.24798 9.64773L7.25375 9.64044L6.47 9.01936ZM13.54 3.13936L14.0051 4.02462L14.0106 4.02172L13.54 3.13936ZM32.79 3.27936L33.283 2.40934V2.40934L32.79 3.27936ZM39.79 9.43937L38.9864 10.0346L38.9936 10.0441L39.79 9.43937ZM44.06 17.6294L43.1069 17.9319L43.1091 17.9388L43.1113 17.9456L44.06 17.6294ZM43.99 35.1294L43.0443 34.8043L43.99 35.1294ZM39.51 43.2494L40.2879 43.8777L39.51 43.2494ZM32.37 49.1294L32.8351 50.0146L32.8406 50.0117L32.37 49.1294ZM16.27 34.9894L15.3756 35.4366L15.3853 35.456L15.3958 35.475L16.27 34.9894ZM19 38.0694L18.422 38.8854L18.4335 38.8936L18.4453 38.9014L19 38.0694ZM27.05 37.9294L26.45 37.1294L26.4418 37.1355L26.4337 37.1419L27.05 37.9294ZM29.71 34.7094L28.8285 34.2371L28.8219 34.2496L28.8156 34.2621L29.71 34.7094ZM31.18 30.5094L30.2018 30.3019L30.1993 30.3134L30.1971 30.3251L31.18 30.5094ZM31.18 21.4794L32.1582 21.2719V21.2719L31.18 21.4794ZM29.64 17.2794L28.7585 17.7516L28.7621 17.7583L28.7658 17.765L29.64 17.2794ZM26.91 14.1994L26.3156 15.0035L26.3351 15.018L26.3553 15.0314L26.91 14.1994ZM18.93 14.2694L18.33 13.4694V13.4694L18.93 14.2694ZM16.2 17.4894L15.3185 17.0171L15.3119 17.0296L15.3056 17.0421L16.2 17.4894ZM14.73 21.7594L13.7518 21.5519L13.7493 21.5634L13.7471 21.5751L14.73 21.7594ZM22.99 50.2994C19.4461 50.2994 16.3471 49.5603 13.6658 48.1098L12.7142 49.8689C15.7262 51.4984 19.1606 52.2994 22.99 52.2994V50.2994ZM13.6719 48.1131C10.9934 46.6399 8.74424 44.702 6.91645 42.2947L5.32355 43.5041C7.32243 46.1367 9.78665 48.2588 12.7081 49.8656L13.6719 48.1131ZM6.92356 42.3041C5.11892 39.8679 3.74492 37.2319 2.79868 34.3931L0.901317 35.0256C1.91508 38.0669 3.38775 40.8909 5.31644 43.4946L6.92356 42.3041ZM2.80312 34.4068C1.89772 31.5548 1.45 28.7868 1.45 26.0994H-0.55C-0.55 29.0119 -0.0643901 31.984 0.896876 35.0119L2.80312 34.4068ZM1.45 26.0994C1.45 23.2295 1.9429 20.3525 2.93569 17.4644L1.04431 16.8143C-0.0162348 19.8995 -0.55 22.9959 -0.55 26.0994H1.45ZM2.93569 17.4644C3.92499 14.5865 5.362 11.9827 7.24794 9.6477L5.69206 8.39103C3.658 10.9094 2.10834 13.7189 1.04431 16.8143L2.93569 17.4644ZM7.25375 9.64044C9.12843 7.27477 11.3771 5.40543 14.0051 4.02461L13.0749 2.25412C10.1962 3.76663 7.73157 5.81729 5.68625 8.39828L7.25375 9.64044ZM14.0106 4.02172C16.6513 2.61335 19.6369 1.89936 22.99 1.89936V-0.100637C19.3431 -0.100637 16.0287 0.678713 13.0694 2.25701L14.0106 4.02172ZM22.99 1.89936C26.5785 1.89936 29.6699 2.6607 32.297 4.14938L33.283 2.40934C30.3101 0.724693 26.8682 -0.100637 22.99 -0.100637V1.89936ZM32.297 4.14938C34.9787 5.66901 37.2052 7.62987 38.9864 10.0346L40.5936 8.84414C38.6415 6.20886 36.2013 4.06305 33.283 2.40934L32.297 4.14938ZM38.9936 10.0441C40.8396 12.4754 42.209 15.1037 43.1069 17.9319L45.0131 17.3268C44.0443 14.275 42.5671 11.4433 40.5864 8.83466L38.9936 10.0441ZM43.1113 17.9456C44.0622 20.7982 44.53 23.5145 44.53 26.0994H46.53C46.53 23.2709 46.0178 20.3406 45.0087 17.3131L43.1113 17.9456ZM44.53 26.0994C44.53 29.0176 44.0365 31.9179 43.0443 34.8043L44.9357 35.4544C45.9968 32.3675 46.53 29.2478 46.53 26.0994H44.53ZM43.0443 34.8043C42.055 37.6823 40.618 40.2861 38.7321 42.621L40.2879 43.8777C42.322 41.3593 43.8717 38.5498 44.9357 35.4544L43.0443 34.8043ZM38.7321 42.621C36.8579 44.9414 34.5831 46.8157 31.8994 48.247L32.8406 50.0117C35.7569 48.4563 38.2421 46.4107 40.2879 43.8777L38.7321 42.621ZM31.9049 48.2441C29.3122 49.6064 26.3485 50.2994 22.99 50.2994V52.2994C26.6315 52.2994 29.9212 51.5457 32.8351 50.0146L31.9049 48.2441ZM13.31 26.0994C13.31 27.7106 13.481 29.3202 13.8218 30.9269L15.7782 30.5119C15.4657 29.0386 15.31 27.5681 15.31 26.0994H13.31ZM13.8218 30.9269C14.1647 32.5436 14.6814 34.0483 15.3756 35.4366L17.1644 34.5422C16.5519 33.3171 16.0886 31.9751 15.7782 30.5119L13.8218 30.9269ZM15.3958 35.475C16.1648 36.8592 17.1736 38.0011 18.422 38.8854L19.578 37.2533C18.5864 36.5509 17.7752 35.6395 17.1442 34.5037L15.3958 35.475ZM18.4453 38.9014C19.7524 39.7728 21.2819 40.1894 22.99 40.1894V38.1894C21.6181 38.1894 20.4876 37.8593 19.5547 37.2373L18.4453 38.9014ZM22.99 40.1894C24.8009 40.1894 26.3841 39.7204 27.6663 38.7169L26.4337 37.1419C25.5693 37.8184 24.4458 38.1894 22.99 38.1894V40.1894ZM27.65 38.7294C28.8996 37.7921 29.8848 36.5959 30.6044 35.1566L28.8156 34.2621C28.2286 35.4362 27.4404 36.3866 26.45 37.1294L27.65 38.7294ZM30.5915 35.1816C31.341 33.7824 31.8645 32.285 32.1629 30.6937L30.1971 30.3251C29.9355 31.7203 29.479 33.0229 28.8285 34.2371L30.5915 35.1816ZM32.1582 30.7169C32.4976 29.1169 32.67 27.5771 32.67 26.0994H30.67C30.67 27.4216 30.5157 28.8218 30.2018 30.3019L32.1582 30.7169ZM32.67 26.0994C32.67 24.4881 32.4991 22.8786 32.1582 21.2719L30.2018 21.6869C30.5143 23.1602 30.67 24.6306 30.67 26.0994H32.67ZM32.1582 21.2719C31.8128 19.6434 31.2667 18.1484 30.5142 16.7937L28.7658 17.765C29.4133 18.9304 29.8939 20.2353 30.2018 21.6869L32.1582 21.2719ZM30.5215 16.8071C29.7518 15.3705 28.735 14.2142 27.4647 13.3673L26.3553 15.0314C27.325 15.6779 28.1282 16.5749 28.7585 17.7516L30.5215 16.8071ZM27.5044 13.3952C26.2334 12.4557 24.7098 12.0094 22.99 12.0094V14.0094C24.3502 14.0094 25.44 14.3563 26.3156 15.0035L27.5044 13.3952ZM22.99 12.0094C21.2172 12.0094 19.6458 12.4825 18.33 13.4694L19.53 15.0694C20.4542 14.3762 21.5895 14.0094 22.99 14.0094V12.0094ZM18.33 13.4694C17.0866 14.4019 16.0832 15.5897 15.3185 17.0171L17.0815 17.9616C17.7168 16.7757 18.5334 15.8168 19.53 15.0694L18.33 13.4694ZM15.3056 17.0421C14.6114 18.4305 14.0947 19.9351 13.7518 21.5519L15.7082 21.9669C16.0186 20.5036 16.4819 19.1616 17.0944 17.9366L15.3056 17.0421ZM13.7471 21.5751C13.4567 23.1241 13.31 24.6326 13.31 26.0994H15.31C15.31 24.7662 15.4433 23.3813 15.7129 21.9437L13.7471 21.5751ZM50.4907 50.5994H49.4907V51.5994H50.4907V50.5994ZM50.7707 42.9694L49.7766 42.8613L49.7754 42.872L49.7745 42.8827L50.7707 42.9694ZM52.0307 37.2994L51.0987 36.9369L51.0959 36.944L51.0933 36.9512L52.0307 37.2994ZM54.9007 32.8194L54.1813 32.1248L54.1809 32.1252L54.9007 32.8194ZM60.0107 28.8294L59.4962 27.9719L59.4893 27.976L59.4824 27.9803L60.0107 28.8294ZM64.4207 26.3094L64.8996 27.1873L64.9085 27.1823L64.4207 26.3094ZM68.8307 23.5794L69.3985 24.4026L69.4042 24.3986L68.8307 23.5794ZM72.1907 20.3594L71.3945 19.7543L71.3867 19.7646L71.3792 19.7751L72.1907 20.3594ZM71.2107 12.5194L71.5821 11.5909V11.5909L71.2107 12.5194ZM65.2607 12.8694L65.6197 13.8027L65.6289 13.7992L65.638 13.7955L65.2607 12.8694ZM61.6907 14.6894L61.1516 13.8471L61.1438 13.8521L61.136 13.8573L61.6907 14.6894ZM58.6807 17.1394L57.9452 17.8169L58.6511 18.5832L59.3878 17.8465L58.6807 17.1394ZM50.4907 8.24936L49.7361 7.59319L49.1488 8.26862L49.7552 8.92692L50.4907 8.24936ZM53.9207 5.23936L53.366 4.40732L53.3595 4.41168L53.353 4.41615L53.9207 5.23936ZM58.6107 2.71936L58.2226 1.79769L58.2138 1.80151L58.6107 2.71936ZM64.3507 0.969362L64.1503 -0.0103531L64.3507 0.969362ZM80.5207 2.15936L80.9357 1.24954H80.9357L80.5207 2.15936ZM86.6107 7.40936L85.7578 7.93154L85.7627 7.93936L86.6107 7.40936ZM88.0107 20.3594L87.0562 20.0611L87.0519 20.0748L87.0481 20.0886L88.0107 20.3594ZM86.0507 24.5594L85.2232 23.9978L85.2187 24.0047L86.0507 24.5594ZM82.9707 28.0594L82.3081 27.3104L82.9707 28.0594ZM78.8407 31.1394L79.3747 31.9849L79.3776 31.983L78.8407 31.1394ZM74.3607 34.0094L74.8998 34.8517L74.908 34.8463L74.3607 34.0094ZM71.3507 35.9694L71.8722 36.8226L71.889 36.8124L71.9054 36.8014L71.3507 35.9694ZM69.1807 37.4394L69.7499 38.2616L69.7705 38.2473L69.7904 38.232L69.1807 37.4394ZM67.3607 38.6994L66.7915 37.8772L64.1594 39.6994H67.3607V38.6994ZM88.7807 38.6994H89.7807V37.6994H88.7807V38.6994ZM88.7807 50.5994V51.5994H89.7807V50.5994H88.7807ZM51.4907 50.5994C51.4907 47.6787 51.5835 45.1656 51.7669 43.056L49.7745 42.8827C49.5846 45.0664 49.4907 47.6401 49.4907 50.5994H51.4907ZM51.7648 43.0774C51.9913 40.9941 52.3961 39.1877 52.9681 37.6476L51.0933 36.9512C50.452 38.6777 50.0168 40.6513 49.7766 42.8613L51.7648 43.0774ZM52.9627 37.6618C53.5677 36.1062 54.4519 34.7254 55.6205 33.5135L54.1809 32.1252C52.8295 33.5266 51.8004 35.1325 51.0987 36.9369L52.9627 37.6618ZM55.6201 33.514C56.855 32.2349 58.4883 30.9544 60.539 29.6784L59.4824 27.9803C57.3331 29.3176 55.5597 30.6971 54.1813 32.1248L55.6201 33.514ZM60.5252 29.6869C61.9126 28.8544 63.3707 28.0212 64.8996 27.1873L63.9418 25.4315C62.3907 26.2775 60.9088 27.1243 59.4962 27.9719L60.5252 29.6869ZM64.9085 27.1823C66.5198 26.2819 68.0167 25.3555 69.3984 24.4026L68.263 22.7562C66.938 23.6699 65.495 24.5635 63.9329 25.4364L64.9085 27.1823ZM69.4042 24.3986C70.8792 23.366 72.0856 22.2168 73.0022 20.9437L71.3792 19.7751C70.6158 20.8353 69.5822 21.8327 68.2572 22.7601L69.4042 24.3986ZM72.9869 20.9644C74.0085 19.6202 74.5207 18.0767 74.5207 16.3694H72.5207C72.5207 17.6487 72.1463 18.7652 71.3945 19.7543L72.9869 20.9644ZM74.5207 16.3694C74.5207 15.1808 74.2904 14.1143 73.7129 13.2802L72.0685 14.4186C72.3311 14.7978 72.5207 15.4113 72.5207 16.3694H74.5207ZM73.7129 13.2802C73.1786 12.5084 72.4602 11.9421 71.5821 11.5909L70.8393 13.4478C71.3613 13.6566 71.7628 13.977 72.0685 14.4186L73.7129 13.2802ZM71.5821 11.5909C70.7579 11.2612 69.8845 11.0994 68.9707 11.0994V13.0994C69.6436 13.0994 70.2635 13.2175 70.8393 13.4478L71.5821 11.5909ZM68.9707 11.0994C67.6132 11.0994 66.2487 11.387 64.8834 11.9433L65.638 13.7955C66.7927 13.325 67.9015 13.0994 68.9707 13.0994V11.0994ZM64.9017 11.936C63.6215 12.4284 62.3714 13.0664 61.1516 13.8471L62.2298 15.5316C63.3433 14.819 64.4733 14.2436 65.6197 13.8027L64.9017 11.936ZM61.136 13.8573C59.9652 14.6379 58.9101 15.4958 57.9736 16.4323L59.3878 17.8465C60.2246 17.0096 61.1762 16.2342 62.2454 15.5214L61.136 13.8573ZM59.4162 16.4618L51.2262 7.57181L49.7552 8.92692L57.9452 17.8169L59.4162 16.4618ZM51.2453 8.90554C52.1158 7.90443 53.1937 6.95551 54.4884 6.06258L53.353 4.41615C51.9411 5.38989 50.7322 6.44763 49.7361 7.59319L51.2453 8.90554ZM54.4754 6.07141C55.82 5.17498 57.3297 4.36282 59.0076 3.63722L58.2138 1.80151C56.4384 2.56924 54.8214 3.43707 53.366 4.40732L54.4754 6.07141ZM58.9988 3.641C60.7065 2.92195 62.5564 2.35708 64.5511 1.94908L64.1503 -0.0103531C62.0383 0.421644 60.0616 1.02344 58.2226 1.79773L58.9988 3.641ZM64.5511 1.94908C66.5328 1.54372 68.6353 1.33936 70.8607 1.33936V-0.660639C68.5128 -0.660639 66.2752 -0.445001 64.1503 -0.0103531L64.5511 1.94908ZM70.8607 1.33936C74.5378 1.33936 77.6082 1.92998 80.1057 3.06918L80.9357 1.24954C78.1132 -0.0379267 74.7436 -0.660639 70.8607 -0.660639V1.33936ZM80.1057 3.06918C82.6015 4.20763 84.4713 5.8302 85.7579 7.93152L87.4636 6.88721C85.9501 4.41519 83.7599 2.53777 80.9357 1.24954L80.1057 3.06918ZM85.7627 7.93936C87.0464 9.99326 87.7107 12.4853 87.7107 15.4594H89.7107C89.7107 12.1801 88.975 9.30547 87.4587 6.87936L85.7627 7.93936ZM87.7107 15.4594C87.7107 17.1448 87.489 18.6762 87.0562 20.0611L88.9652 20.6576C89.4657 19.0559 89.7107 17.3206 89.7107 15.4594H87.7107ZM87.0481 20.0886C86.6577 21.4765 86.0506 22.7786 85.2232 23.9979L86.8782 25.1209C87.8242 23.7268 88.5237 22.2289 88.9734 20.6301L87.0481 20.0886ZM85.2187 24.0047C84.4297 25.188 83.4613 26.2902 82.3081 27.3104L83.6333 28.8084C84.9068 27.6818 85.9917 26.4507 86.8828 25.1141L85.2187 24.0047ZM82.3081 27.3104C81.1387 28.3448 79.805 29.3404 78.3038 30.2957L79.3776 31.983C80.9564 30.9783 82.376 29.9205 83.6333 28.8084L82.3081 27.3104ZM78.3067 30.2939C76.5307 31.4156 75.0326 32.3752 73.8135 33.1724L74.908 34.8463C76.1154 34.0568 77.604 33.1032 79.3747 31.9849L78.3067 30.2939ZM73.8216 33.1671C72.6515 33.916 71.6427 34.5729 70.796 35.1373L71.9054 36.8014C72.7387 36.2459 73.7366 35.5961 74.8998 34.8516L73.8216 33.1671ZM70.8293 35.1161C69.9669 35.6431 69.2126 36.1532 68.571 36.6467L69.7904 38.232C70.3621 37.7922 71.0545 37.3223 71.8722 36.8226L70.8293 35.1161ZM68.6115 36.6172C68.0048 37.0372 67.3982 37.4572 66.7915 37.8772L67.9299 39.5216C68.5366 39.1016 69.1432 38.6816 69.7499 38.2616L68.6115 36.6172ZM67.3607 39.6994H88.7807V37.6994H67.3607V39.6994ZM87.7807 38.6994V50.5994H89.7807V38.6994H87.7807ZM88.7807 49.5994H50.4907V51.5994H88.7807V49.5994Z" fill="#5D5FEF"/>
</svg>
