<svg width="87" height="52" viewBox="0 0 87 52" fill="none" xmlns="http://www.w3.org/2000/svg">
<path d="M13.19 48.9894L12.7081 49.8656L12.7142 49.8689L13.19 48.9894ZM6.12 42.8994L5.31639 43.4946L5.32355 43.5041L6.12 42.8994ZM1.85 34.7094L0.896876 35.0119L0.899047 35.0188L0.901317 35.0256L1.85 34.7094ZM1.99 17.1394L2.93569 17.4644H2.93569L1.99 17.1394ZM6.47 9.01936L7.24798 9.64773L7.25375 9.64044L6.47 9.01936ZM13.54 3.13936L14.0051 4.02462L14.0106 4.02172L13.54 3.13936ZM32.79 3.27936L33.283 2.40934V2.40934L32.79 3.27936ZM39.79 9.43937L38.9864 10.0346L38.9936 10.0441L39.79 9.43937ZM44.06 17.6294L43.1069 17.9319L43.1091 17.9388L43.1113 17.9456L44.06 17.6294ZM43.99 35.1294L43.0443 34.8043L43.99 35.1294ZM39.51 43.2494L40.2879 43.8777L39.51 43.2494ZM32.37 49.1294L32.8351 50.0146L32.8406 50.0117L32.37 49.1294ZM16.27 34.9894L15.3756 35.4366L15.3853 35.456L15.3958 35.475L16.27 34.9894ZM19 38.0694L18.422 38.8854L18.4335 38.8936L18.4453 38.9014L19 38.0694ZM27.05 37.9294L26.45 37.1294L26.4418 37.1355L26.4337 37.1419L27.05 37.9294ZM29.71 34.7094L28.8285 34.2371L28.8219 34.2496L28.8156 34.2621L29.71 34.7094ZM31.18 30.5094L30.2018 30.3019L30.1993 30.3134L30.1971 30.3251L31.18 30.5094ZM31.18 21.4794L32.1582 21.2719V21.2719L31.18 21.4794ZM29.64 17.2794L28.7585 17.7516L28.7621 17.7583L28.7658 17.765L29.64 17.2794ZM26.91 14.1994L26.3156 15.0035L26.3351 15.018L26.3553 15.0314L26.91 14.1994ZM18.93 14.2694L18.33 13.4694V13.4694L18.93 14.2694ZM16.2 17.4894L15.3185 17.0171L15.3119 17.0296L15.3056 17.0421L16.2 17.4894ZM14.73 21.7594L13.7518 21.5519L13.7493 21.5634L13.7471 21.5751L14.73 21.7594ZM22.99 50.2994C19.4461 50.2994 16.3471 49.5603 13.6658 48.1098L12.7142 49.8689C15.7262 51.4984 19.1606 52.2994 22.99 52.2994V50.2994ZM13.6719 48.1131C10.9934 46.6399 8.74424 44.702 6.91645 42.2947L5.32355 43.5041C7.32243 46.1367 9.78665 48.2588 12.7081 49.8656L13.6719 48.1131ZM6.92356 42.3041C5.11892 39.8679 3.74492 37.2319 2.79868 34.3931L0.901317 35.0256C1.91508 38.0669 3.38775 40.8909 5.31644 43.4946L6.92356 42.3041ZM2.80312 34.4068C1.89772 31.5548 1.45 28.7868 1.45 26.0994H-0.55C-0.55 29.0119 -0.0643901 31.984 0.896876 35.0119L2.80312 34.4068ZM1.45 26.0994C1.45 23.2295 1.9429 20.3525 2.93569 17.4644L1.04431 16.8143C-0.0162348 19.8995 -0.55 22.9959 -0.55 26.0994H1.45ZM2.93569 17.4644C3.92499 14.5865 5.362 11.9827 7.24794 9.6477L5.69206 8.39103C3.658 10.9094 2.10834 13.7189 1.04431 16.8143L2.93569 17.4644ZM7.25375 9.64044C9.12843 7.27477 11.3771 5.40543 14.0051 4.02461L13.0749 2.25412C10.1962 3.76663 7.73157 5.81729 5.68625 8.39828L7.25375 9.64044ZM14.0106 4.02172C16.6513 2.61335 19.6369 1.89936 22.99 1.89936V-0.100637C19.3431 -0.100637 16.0287 0.678713 13.0694 2.25701L14.0106 4.02172ZM22.99 1.89936C26.5785 1.89936 29.6699 2.6607 32.297 4.14938L33.283 2.40934C30.3101 0.724693 26.8682 -0.100637 22.99 -0.100637V1.89936ZM32.297 4.14938C34.9787 5.66901 37.2052 7.62987 38.9864 10.0346L40.5936 8.84414C38.6415 6.20886 36.2013 4.06305 33.283 2.40934L32.297 4.14938ZM38.9936 10.0441C40.8396 12.4754 42.209 15.1037 43.1069 17.9319L45.0131 17.3268C44.0443 14.275 42.5671 11.4433 40.5864 8.83466L38.9936 10.0441ZM43.1113 17.9456C44.0622 20.7982 44.53 23.5145 44.53 26.0994H46.53C46.53 23.2709 46.0178 20.3406 45.0087 17.3131L43.1113 17.9456ZM44.53 26.0994C44.53 29.0176 44.0365 31.9179 43.0443 34.8043L44.9357 35.4544C45.9968 32.3675 46.53 29.2478 46.53 26.0994H44.53ZM43.0443 34.8043C42.055 37.6823 40.618 40.2861 38.7321 42.621L40.2879 43.8777C42.322 41.3593 43.8717 38.5498 44.9357 35.4544L43.0443 34.8043ZM38.7321 42.621C36.8579 44.9414 34.5831 46.8157 31.8994 48.247L32.8406 50.0117C35.7569 48.4563 38.2421 46.4107 40.2879 43.8777L38.7321 42.621ZM31.9049 48.2441C29.3122 49.6064 26.3485 50.2994 22.99 50.2994V52.2994C26.6315 52.2994 29.9212 51.5457 32.8351 50.0146L31.9049 48.2441ZM13.31 26.0994C13.31 27.7106 13.481 29.3202 13.8218 30.9269L15.7782 30.5119C15.4657 29.0386 15.31 27.5681 15.31 26.0994H13.31ZM13.8218 30.9269C14.1647 32.5436 14.6814 34.0483 15.3756 35.4366L17.1644 34.5422C16.5519 33.3171 16.0886 31.9751 15.7782 30.5119L13.8218 30.9269ZM15.3958 35.475C16.1648 36.8592 17.1736 38.0011 18.422 38.8854L19.578 37.2533C18.5864 36.5509 17.7752 35.6395 17.1442 34.5037L15.3958 35.475ZM18.4453 38.9014C19.7524 39.7728 21.2819 40.1894 22.99 40.1894V38.1894C21.6181 38.1894 20.4876 37.8593 19.5547 37.2373L18.4453 38.9014ZM22.99 40.1894C24.8009 40.1894 26.3841 39.7204 27.6663 38.7169L26.4337 37.1419C25.5693 37.8184 24.4458 38.1894 22.99 38.1894V40.1894ZM27.65 38.7294C28.8996 37.7921 29.8848 36.5959 30.6044 35.1566L28.8156 34.2621C28.2286 35.4362 27.4404 36.3866 26.45 37.1294L27.65 38.7294ZM30.5915 35.1816C31.341 33.7824 31.8645 32.285 32.1629 30.6937L30.1971 30.3251C29.9355 31.7203 29.479 33.0229 28.8285 34.2371L30.5915 35.1816ZM32.1582 30.7169C32.4976 29.1169 32.67 27.5771 32.67 26.0994H30.67C30.67 27.4216 30.5157 28.8218 30.2018 30.3019L32.1582 30.7169ZM32.67 26.0994C32.67 24.4881 32.4991 22.8786 32.1582 21.2719L30.2018 21.6869C30.5143 23.1602 30.67 24.6306 30.67 26.0994H32.67ZM32.1582 21.2719C31.8128 19.6434 31.2667 18.1484 30.5142 16.7937L28.7658 17.765C29.4133 18.9304 29.8939 20.2353 30.2018 21.6869L32.1582 21.2719ZM30.5215 16.8071C29.7518 15.3705 28.735 14.2142 27.4647 13.3673L26.3553 15.0314C27.325 15.6779 28.1282 16.5749 28.7585 17.7516L30.5215 16.8071ZM27.5044 13.3952C26.2334 12.4557 24.7098 12.0094 22.99 12.0094V14.0094C24.3502 14.0094 25.44 14.3563 26.3156 15.0035L27.5044 13.3952ZM22.99 12.0094C21.2172 12.0094 19.6458 12.4825 18.33 13.4694L19.53 15.0694C20.4542 14.3762 21.5895 14.0094 22.99 14.0094V12.0094ZM18.33 13.4694C17.0866 14.4019 16.0832 15.5897 15.3185 17.0171L17.0815 17.9616C17.7168 16.7757 18.5334 15.8168 19.53 15.0694L18.33 13.4694ZM15.3056 17.0421C14.6114 18.4305 14.0947 19.9351 13.7518 21.5519L15.7082 21.9669C16.0186 20.5036 16.4819 19.1616 17.0944 17.9366L15.3056 17.0421ZM13.7471 21.5751C13.4567 23.1241 13.31 24.6326 13.31 26.0994H15.31C15.31 24.7662 15.4433 23.3813 15.7129 21.9437L13.7471 21.5751ZM59.5907 50.3894L59.3858 51.3682L59.3988 51.3709L59.4118 51.3732L59.5907 50.3894ZM53.9907 48.4994L53.5435 49.3938L53.5532 49.3986L53.9907 48.4994ZM49.2307 45.3494L48.4126 44.7743L47.8861 45.5233L48.5858 46.1137L49.2307 45.3494ZM56.0207 35.6894L56.6403 34.9045L55.8105 34.2494L55.2026 35.1143L56.0207 35.6894ZM58.8207 37.4394L58.3908 38.3422L58.4086 38.3507L58.4268 38.3585L58.8207 37.4394ZM61.9007 38.4194L61.6883 39.3966L61.6968 39.3983L61.9007 38.4194ZM69.3907 38.2794L69.0875 37.3263L69.0745 37.3307L69.3907 38.2794ZM71.6307 36.8094L70.8242 36.218L70.817 36.2281L71.6307 36.8094ZM71.4907 31.4194L70.7146 32.05L70.7246 32.0623L70.735 32.0743L71.4907 31.4194ZM68.5507 29.8094L68.276 30.7709L68.2959 30.7766L68.3161 30.7814L68.5507 29.8094ZM61.2707 29.2494H60.2707V30.2494H61.2707V29.2494ZM61.2707 20.0094V19.0094H60.2707V20.0094H61.2707ZM69.1107 18.6794L68.5627 17.8429L69.1107 18.6794ZM70.5807 13.2894L69.7169 13.7932L69.7423 13.8368L69.772 13.8775L70.5807 13.2894ZM69.0407 12.0294L68.6468 12.9485L68.658 12.9533L68.6693 12.9578L69.0407 12.0294ZM62.0407 12.8694L62.5215 13.7462L62.5323 13.7403L62.5428 13.7342L62.0407 12.8694ZM58.2607 16.5094L57.4992 17.1575L58.3638 18.1734L59.0964 17.0585L58.2607 16.5094ZM49.8607 6.63936L49.1133 5.975L48.5354 6.6251L49.0992 7.28748L49.8607 6.63936ZM54.3407 3.34937L53.9023 2.45055L53.8935 2.45494L54.3407 3.34937ZM60.7807 1.17936L60.9915 2.15689L61.0007 2.15492L61.0097 2.15278L60.7807 1.17936ZM77.1607 1.87936L76.7893 2.80786L76.7951 2.81011L77.1607 1.87936ZM83.2507 6.21936L82.4602 6.83198L82.4679 6.84161L83.2507 6.21936ZM84.2307 17.9094L85.1252 18.3566L85.1302 18.3463L84.2307 17.9094ZM81.0107 21.9694L81.6321 22.7529L81.6403 22.7464L81.6483 22.7398L81.0107 21.9694ZM76.3907 24.0694L76.2048 23.0868L76.2224 25.0551L76.3907 24.0694ZM81.4307 26.3094L80.8029 27.0878L80.809 27.0926L80.8151 27.0974L81.4307 26.3094ZM84.9307 30.7894L84.0227 31.2084L84.027 31.2174L84.9307 30.7894ZM83.7407 44.2994L82.9449 43.6938L82.9428 43.6965L83.7407 44.2994ZM76.8807 49.1994L76.5169 48.2679L76.8807 49.1994ZM66.2407 49.9494C63.9125 49.9494 61.7564 49.7667 59.7696 49.4055L59.4118 51.3732C61.5317 51.7587 63.8089 51.9494 66.2407 51.9494V49.9494ZM59.7956 49.4106C57.864 49.0063 56.076 48.4018 54.4282 47.6001L53.5532 49.3986C55.3587 50.2769 57.3041 50.9324 59.3858 51.3682L59.7956 49.4106ZM54.4379 47.6049C52.8315 46.8017 51.3108 45.7961 49.8756 44.5851L48.5858 46.1137C50.1372 47.4226 51.7899 48.517 53.5435 49.3938L54.4379 47.6049ZM50.0488 45.9244L56.8388 36.2644L55.2026 35.1143L48.4126 44.7743L50.0488 45.9244ZM55.4011 36.4742C56.344 37.2187 57.3406 37.8422 58.3908 38.3422L59.2506 36.5365C58.3408 36.1032 57.4708 35.5601 56.6403 34.9045L55.4011 36.4742ZM58.4268 38.3585C59.467 38.8043 60.5546 39.1501 61.6883 39.3965L62.1131 37.4422C61.1001 37.222 60.1344 36.9144 59.2146 36.5202L58.4268 38.3585ZM61.6968 39.3983C62.8925 39.6475 64.175 39.7694 65.5407 39.7694V37.7694C64.2931 37.7694 63.1489 37.6579 62.1047 37.4404L61.6968 39.3983ZM65.5407 39.7694C67.1837 39.7694 68.5857 39.6018 69.7069 39.228L69.0745 37.3307C68.2357 37.6103 67.0711 37.7694 65.5407 37.7694V39.7694ZM69.6939 39.2323C70.8567 38.8623 71.8155 38.2712 72.4444 37.3906L70.817 36.2281C70.5126 36.6542 69.978 37.0431 69.0875 37.3264L69.6939 39.2323ZM72.4371 37.4007C73.098 36.4995 73.4007 35.4187 73.4007 34.2194H71.4007C71.4007 35.0734 71.1901 35.7192 70.8243 36.218L72.4371 37.4007ZM73.4007 34.2194C73.4007 32.8765 73.0482 31.6896 72.2464 30.7644L70.735 32.0743C71.1465 32.5491 71.4007 33.2289 71.4007 34.2194H73.4007ZM72.2668 30.7888C71.4723 29.8109 70.2597 29.1932 68.7853 28.8373L68.3161 30.7814C69.5483 31.0789 70.2958 31.5345 70.7146 32.05L72.2668 30.7888ZM68.8254 28.8478C67.3947 28.4391 65.5889 28.2494 63.4407 28.2494V30.2494C65.4925 30.2494 67.0933 30.433 68.276 30.7709L68.8254 28.8478ZM63.4407 28.2494H61.2707V30.2494H63.4407V28.2494ZM62.2707 29.2494V20.0094H60.2707V29.2494H62.2707ZM61.2707 21.0094H63.7207V19.0094H61.2707V21.0094ZM63.7207 21.0094C66.0831 21.0094 68.0911 20.5429 69.6587 19.5158L68.5627 17.8429C67.4236 18.5892 65.8383 19.0094 63.7207 19.0094V21.0094ZM69.6587 19.5158C71.2548 18.4701 72.1407 17.0077 72.1407 15.1794H70.1407C70.1407 16.2444 69.6733 17.1153 68.5627 17.8429L69.6587 19.5158ZM72.1407 15.1794C72.1407 14.2598 71.9079 13.4141 71.3894 12.7012L69.772 13.8775C70.0002 14.1913 70.1407 14.6056 70.1407 15.1794H72.1407ZM71.4445 12.7855C70.9879 12.0027 70.2838 11.4496 69.4121 11.1009L68.6693 12.9578C69.1976 13.1692 69.5202 13.456 69.7169 13.7932L71.4445 12.7855ZM69.4346 11.1102C68.6192 10.7608 67.6581 10.6094 66.5907 10.6094V12.6094C67.4833 12.6094 68.1555 12.738 68.6468 12.9485L69.4346 11.1102ZM66.5907 10.6094C64.818 10.6094 63.1291 11.081 61.5386 12.0046L62.5428 13.7342C63.8456 12.9777 65.1901 12.6094 66.5907 12.6094V10.6094ZM61.5599 11.9925C59.9457 12.8778 58.5715 14.2154 57.425 15.9602L59.0964 17.0585C60.0965 15.5366 61.2424 14.4476 62.5215 13.7462L61.5599 11.9925ZM59.0222 15.8612L50.6222 5.99125L49.0992 7.28748L57.4992 17.1575L59.0222 15.8612ZM50.6081 7.30373C51.6261 6.15849 53.0089 5.13332 54.7879 4.24379L53.8935 2.45494C51.9392 3.43207 50.3353 4.60024 49.1133 5.975L50.6081 7.30373ZM54.7791 4.24813C56.6106 3.35475 58.6793 2.65561 60.9915 2.15689L60.5699 0.201842C58.1221 0.729782 55.8975 1.47731 53.9023 2.4506L54.7791 4.24813ZM61.0097 2.15278C63.3124 1.61098 65.6854 1.33936 68.1307 1.33936V-0.660639C65.536 -0.660639 63.009 -0.372252 60.5517 0.205946L61.0097 2.15278ZM68.1307 1.33936C71.4874 1.33936 74.3662 1.83858 76.7893 2.80784L77.5321 0.950886C74.8219 -0.133192 71.6807 -0.660639 68.1307 -0.660639V1.33936ZM76.7951 2.81011C79.2726 3.78344 81.1432 5.13249 82.4603 6.83194L84.0411 5.60679C82.4649 3.57291 80.2755 2.02862 77.5264 0.94861L76.7951 2.81011ZM82.4679 6.84161C83.7646 8.47294 84.4207 10.3965 84.4207 12.6594H86.4207C86.4207 9.97551 85.6302 7.60578 84.0335 5.59712L82.4679 6.84161ZM84.4207 12.6594C84.4207 14.379 84.0565 15.9792 83.3312 17.4725L85.1302 18.3463C85.9916 16.5729 86.4207 14.673 86.4207 12.6594H84.4207ZM83.3363 17.4622C82.6045 18.9257 81.6182 20.1686 80.3731 21.199L81.6483 22.7398C83.1099 21.5302 84.2702 20.0664 85.1251 18.3566L83.3363 17.4622ZM80.3893 21.1859C79.1652 22.1567 77.7752 22.7897 76.2048 23.0868L76.5766 25.0519C78.4595 24.6957 80.1496 23.9286 81.6321 22.7529L80.3893 21.1859ZM76.2224 25.0551C77.9752 25.3544 79.4952 26.0332 80.8029 27.0878L82.0585 25.531C80.4729 24.2522 78.6329 23.4377 76.559 23.0836L76.2224 25.0551ZM80.8151 27.0974C82.1757 28.1604 83.2455 29.5243 84.0227 31.2084L85.8387 30.3703C84.9359 28.4144 83.6723 26.7916 82.0463 25.5213L80.8151 27.0974ZM84.027 31.2174C84.7978 32.8448 85.1907 34.6567 85.1907 36.6694H87.1907C87.1907 34.3887 86.7436 32.2806 85.8344 30.3613L84.027 31.2174ZM85.1907 36.6694C85.1907 39.4115 84.4337 41.7372 82.9449 43.6938L84.5365 44.9049C86.3144 42.5682 87.1907 39.8072 87.1907 36.6694H85.1907ZM82.9428 43.6965C81.4898 45.6197 79.3689 47.1538 76.5169 48.2679L77.2446 50.1308C80.3658 48.9116 82.8183 47.179 84.5386 44.9022L82.9428 43.6965ZM76.5169 48.2679C73.6736 49.3785 70.2563 49.9494 66.2407 49.9494V51.9494C70.4385 51.9494 74.1144 51.3535 77.2446 50.1308L76.5169 48.2679Z" fill="#5D5FEF"/>
</svg>
