<svg width="851" height="452" viewBox="0 0 851 452" fill="none" xmlns="http://www.w3.org/2000/svg">
<path d="M448.403 282.253C443.57 302.591 437.393 316.912 429.875 325.219C422.353 333.525 413.015 336.39 401.859 333.815C390.312 331.149 383.012 324.308 379.956 313.284C376.896 302.263 377.81 286.179 382.692 265.033L399.403 192.647C404.164 173.798 410.185 160.292 417.467 152.135C424.746 143.978 434.03 141.203 445.316 143.808C456.861 146.474 464.132 153.449 467.131 164.729C470.128 176.012 469.277 191.837 464.575 212.202L448.403 282.253ZM528.174 235.903C536.979 197.763 535.163 166.261 522.734 141.391C510.302 116.523 488.389 100.462 456.997 93.2148C425.602 85.9667 398.916 90.7397 376.936 107.526C354.953 124.314 339.548 151.844 330.713 190.111L318.763 241.871C309.988 279.882 311.816 311.32 324.248 336.188C336.677 361.058 358.655 377.13 390.179 384.408C421.441 391.626 448.063 386.841 470.046 370.053C492.026 353.267 507.434 325.739 516.269 287.469L528.174 235.903Z" fill="white"/>
<path d="M448.403 282.253C443.57 302.591 437.393 316.912 429.875 325.219C422.353 333.525 413.015 336.39 401.859 333.815C390.312 331.149 383.012 324.308 379.956 313.284C376.896 302.263 377.81 286.178 382.692 265.033L399.403 192.647C404.164 173.798 410.185 160.292 417.467 152.135C424.746 143.978 434.03 141.203 445.316 143.808C456.861 146.474 464.132 153.449 467.131 164.729C470.128 176.012 469.277 191.837 464.575 212.202L448.403 282.253ZM528.174 235.903C536.979 197.763 535.163 166.261 522.734 141.391C510.302 116.523 488.389 100.462 456.997 93.2148C425.602 85.9667 398.916 90.7397 376.936 107.526C354.953 124.314 339.548 151.844 330.713 190.111L318.763 241.871C309.988 279.882 311.816 311.32 324.248 336.188C336.677 361.058 358.655 377.13 390.179 384.408C421.441 391.626 448.063 386.841 470.046 370.053C492.026 353.267 507.434 325.739 516.269 287.469L528.174 235.903Z" stroke="#3C3C5F" stroke-width="3"/>
<g opacity="0.1">
<path d="M448.403 282.253C443.57 302.591 437.393 316.912 429.875 325.219C422.353 333.525 413.015 336.39 401.859 333.815C390.312 331.149 383.012 324.308 379.956 313.284C376.896 302.263 377.81 286.179 382.692 265.033L399.403 192.647C404.164 173.798 410.185 160.292 417.467 152.135C424.746 143.978 434.03 141.203 445.316 143.808C456.861 146.474 464.132 153.449 467.131 164.729C470.128 176.012 469.277 191.837 464.575 212.202L448.403 282.253ZM528.174 235.903C536.979 197.763 535.163 166.261 522.734 141.391C510.302 116.523 488.389 100.462 456.997 93.2148C425.602 85.9667 398.916 90.7397 376.936 107.526C354.953 124.314 339.548 151.844 330.713 190.111L318.763 241.871C309.988 279.882 311.816 311.32 324.248 336.188C336.677 361.058 358.655 377.13 390.179 384.408C421.441 391.626 448.063 386.841 470.046 370.053C492.026 353.267 507.434 325.739 516.269 287.469L528.174 235.903Z" fill="#03032C"/>
<path d="M448.403 282.253C443.57 302.591 437.393 316.912 429.875 325.219C422.353 333.525 413.015 336.39 401.859 333.815C390.312 331.149 383.012 324.308 379.956 313.284C376.896 302.263 377.81 286.178 382.692 265.033L399.403 192.647C404.164 173.798 410.185 160.292 417.467 152.135C424.746 143.978 434.03 141.203 445.316 143.808C456.861 146.474 464.132 153.449 467.131 164.729C470.128 176.012 469.277 191.837 464.575 212.202L448.403 282.253ZM528.174 235.903C536.979 197.763 535.163 166.261 522.734 141.391C510.302 116.523 488.389 100.462 456.997 93.2148C425.602 85.9667 398.916 90.7397 376.936 107.526C354.953 124.314 339.548 151.844 330.713 190.111L318.763 241.871C309.988 279.882 311.816 311.32 324.248 336.188C336.677 361.058 358.655 377.13 390.179 384.408C421.441 391.626 448.063 386.841 470.046 370.053C492.026 353.267 507.434 325.739 516.269 287.469L528.174 235.903Z" stroke="#03032C" stroke-width="3"/>
</g>
<path d="M143.959 206.267L144.336 198.295L187.71 276.546L141.947 301.913L143.959 206.267ZM160.694 88.988L101.831 121.616L102.122 122.14L91.1073 342.424L114.545 376.468L212.883 321.959L242.801 375.931L301.663 343.303L271.746 289.331L297.596 275.002L272.423 229.589L246.573 243.918L160.694 88.988Z" fill="#3C3C5F"/>
<g opacity="0.1">
<path d="M143.959 206.267L144.336 198.295L187.71 276.546L141.947 301.913L143.959 206.267ZM160.694 88.988L101.831 121.616L102.122 122.14L91.1073 342.424L114.545 376.468L212.883 321.959L242.801 375.931L301.663 343.303L271.746 289.331L297.596 275.002L272.423 229.589L246.573 243.918L160.694 88.988Z" fill="#03032C"/>
</g>
<path d="M666.066 192.59L671.27 186.539L657.274 274.906L605.595 266.72L666.066 192.59ZM751.457 110.475L684.985 99.947L684.892 100.538L540.591 267.344L538.101 308.601L649.152 326.189L639.498 387.139L705.97 397.667L715.624 336.718L744.816 341.341L752.939 290.057L723.746 285.434L751.457 110.475Z" fill="#3C3C5F"/>
<g opacity="0.1">
<path d="M666.066 192.59L671.27 186.539L657.274 274.906L605.595 266.72L666.066 192.59ZM751.457 110.475L684.985 99.947L684.892 100.538L540.591 267.344L538.101 308.601L649.152 326.189L639.498 387.139L705.97 397.667L715.624 336.718L744.816 341.341L752.939 290.057L723.746 285.434L751.457 110.475Z" fill="#03032C"/>
</g>
<g opacity="0.17">
<path opacity="0.17" d="M464.919 93.2485L396.928 94.127C396.928 94.127 407.996 110.641 402.902 120.129C467.203 115.034 479.676 122.061 479.676 122.061L464.919 93.2485Z" fill="#03032C"/>
</g>
<path d="M496.015 104.141C499.118 104.141 501.637 106.66 501.637 109.763C501.637 112.865 499.118 115.385 496.015 115.385C492.913 115.385 490.393 112.865 490.393 109.763C490.393 106.66 492.913 104.141 496.015 104.141Z" fill="#03032C"/>
<path d="M476.69 42.6509C476.69 42.6509 499.88 75.6799 495.664 108.358" stroke="#03032C" stroke-width="3" stroke-linecap="round"/>
<path d="M376.549 104.141C379.651 104.141 382.171 106.66 382.171 109.763C382.171 112.866 379.651 115.385 376.549 115.385C373.446 115.385 370.927 112.866 370.927 109.763C370.927 106.66 373.446 104.141 376.549 104.141Z" fill="#03032C"/>
<path d="M410.632 46.1646C410.632 46.1646 381.116 74.9771 376.9 107.655" stroke="#03032C" stroke-width="3" stroke-linecap="round"/>
<path d="M417.308 109.061C417.308 109.061 423.984 117.845 420.997 131.9C428.024 132.075 432.241 132.778 432.241 132.778" stroke="#03032C" stroke-width="3" stroke-linecap="round"/>
<path d="M484.947 112.662C484.947 112.662 491.623 121.446 488.636 135.501C495.664 135.677 499.88 136.38 499.88 136.38" stroke="#03032C" stroke-width="3" stroke-linecap="round"/>
<path d="M425.389 2.94585L408.523 17.0008L395.874 94.3027C395.874 94.3027 405.712 91.4917 416.254 112.574C450.688 106.249 467.554 113.277 487.934 116.088C486.528 96.411 471.771 92.1945 471.771 92.1945C471.771 92.1945 471.45 62.7537 482.255 39.2876C487.463 27.979 495.253 18.0577 506.908 13.487C489.502 6.58467 472.097 3.65563 457.866 2.56497C438.77 1.10044 425.389 2.94585 425.389 2.94585Z" fill="white"/>
<path d="M425.389 2.94585L408.523 17.0008L395.874 94.3027C395.874 94.3027 405.712 91.4917 416.254 112.574C450.688 106.249 467.554 113.277 487.934 116.088C486.528 96.411 471.77 92.1945 471.77 92.1945C471.77 92.1945 471.45 62.7537 482.255 39.2876C487.463 27.979 495.253 18.0577 506.908 13.487C489.502 6.58467 472.097 3.65563 457.866 2.56497C438.77 1.10044 425.389 2.94585 425.389 2.94585Z" stroke="#3C3C5F" stroke-width="3" stroke-linecap="round" stroke-linejoin="round"/>
<path d="M409.929 18.9331L427.322 23.1496L426.092 3.64844" stroke="#3C3C5F" stroke-width="3" stroke-linecap="round" stroke-linejoin="round"/>
<path d="M410.632 90.965C414.673 89.7352 423.106 88.5054 444.188 90.965" stroke="#3C3C5F" stroke-width="2" stroke-linecap="round"/>
<path d="M436.158 34.0838C438.067 34.4205 439.18 37.1749 438.642 40.2305C438.103 43.2861 436.115 45.4936 434.205 45.1569C432.295 44.8201 431.182 42.0658 431.721 39.0102C432.26 35.9546 434.248 33.747 436.158 34.0838Z" fill="#565656"/>
<path d="M436.718 35.9667C437.863 36.1687 438.63 37.2631 438.428 38.409C438.226 39.5548 437.131 40.3211 435.985 40.1191C434.84 39.917 434.073 38.8227 434.275 37.6768C434.477 36.5309 435.572 35.7646 436.718 35.9667Z" fill="#FFFEFE"/>
<path d="M431.109 30.3396C431.109 30.3396 440.371 31.4375 444.95 26.7146L431.109 30.3396Z" fill="#FFFEFE"/>
<path d="M431.109 30.3396C431.109 30.3396 440.371 31.4375 444.95 26.7146" stroke="#3C3C5F" stroke-width="2" stroke-linecap="round"/>
<path d="M460.754 36.8953C462.663 37.2321 463.776 39.9864 463.238 43.042C462.699 46.0976 460.711 48.3052 458.801 47.9684C456.891 47.6317 455.778 44.8773 456.317 41.8217C456.856 38.7661 458.844 36.5586 460.754 36.8953Z" fill="#565656"/>
<path d="M461.313 38.7777C462.459 38.9798 463.225 40.0742 463.023 41.22C462.821 42.3659 461.727 43.1322 460.581 42.9301C459.435 42.7281 458.669 41.6337 458.871 40.4878C459.073 39.342 460.167 38.5757 461.313 38.7777Z" fill="#FFFEFE"/>
<path d="M456.408 28.0552C456.408 28.0552 460.644 33.4419 467.789 33.7426L456.408 28.0552Z" fill="#FFFEFE"/>
<path d="M456.408 28.0552C456.408 28.0552 460.644 33.4419 467.789 33.7426" stroke="#3C3C5F" stroke-width="2" stroke-linecap="round"/>
<path d="M435.052 60.3953C435.052 60.3953 452.621 50.7326 454.202 61.8008" stroke="#3C3C5F" stroke-width="2" stroke-linecap="round"/>
<path d="M512.53 392.969H664.323M17.0943 348.696H825.251H17.0943ZM2.33667 366.265H166.076H2.33667ZM635.51 373.995H705.785H635.51ZM128.831 391.564H177.32H128.831ZM769.032 374.698H850.55H769.032Z" stroke="#3C3C5F" stroke-width="3" stroke-linecap="round"/>
<g opacity="0.12">
<path opacity="0.12" d="M825.251 348.696H17.0945C17.0945 348.696 130.939 368.373 402.199 368.373C673.458 368.373 825.251 348.696 825.251 348.696Z" fill="#03032C"/>
</g>
</svg>
