<svg width="35" height="36" viewBox="0 0 35 36" fill="none" xmlns="http://www.w3.org/2000/svg">
<path fill-rule="evenodd" clip-rule="evenodd" d="M10.5946 1.26422C12.3053 1.18547 12.8507 1.16797 17.2082 1.16797C21.5657 1.16797 22.1111 1.18693 23.8203 1.26422C25.5294 1.34151 26.6961 1.61422 27.7169 2.00943C28.7859 2.41339 29.7557 3.04484 30.5578 3.86151C31.3744 4.66214 32.0044 5.63047 32.4069 6.70089C32.8036 7.72172 33.0748 8.88839 33.1536 10.5946C33.2323 12.3082 33.2498 12.8536 33.2498 17.2096C33.2498 21.5671 33.2309 22.1126 33.1536 23.8232C33.0763 25.5294 32.8036 26.6961 32.4069 27.7169C32.0044 28.7875 31.3734 29.7574 30.5578 30.5592C29.7557 31.3759 28.7859 32.0059 27.7169 32.4084C26.6961 32.8051 25.5294 33.0763 23.8232 33.1551C22.1111 33.2338 21.5657 33.2513 17.2082 33.2513C12.8507 33.2513 12.3053 33.2323 10.5946 33.1551C8.88838 33.0778 7.72171 32.8051 6.70088 32.4084C5.63035 32.0058 4.66041 31.3748 3.85859 30.5592C3.04247 29.7581 2.41092 28.7886 2.00796 27.7184C1.61275 26.6975 1.3415 25.5309 1.26275 23.8246C1.184 22.1111 1.1665 21.5657 1.1665 17.2096C1.1665 12.8521 1.18546 12.3067 1.26275 10.5976C1.34005 8.88838 1.61275 7.72172 2.00796 6.70089C2.41152 5.63059 3.04355 4.66113 3.86005 3.86005C4.66073 3.04412 5.62969 2.41257 6.69942 2.00943C7.72025 1.61422 8.88692 1.34297 10.5932 1.26422H10.5946ZM23.6905 4.15172C21.9988 4.07443 21.4913 4.05839 17.2082 4.05839C12.925 4.05839 12.4175 4.07443 10.7259 4.15172C9.16109 4.22318 8.31234 4.48422 7.7465 4.70443C6.99838 4.99609 6.46317 5.34172 5.90171 5.90318C5.36949 6.42096 4.95989 7.0513 4.70296 7.74797C4.48275 8.3138 4.22171 9.16255 4.15025 10.7273C4.07296 12.419 4.05692 12.9265 4.05692 17.2096C4.05692 21.4928 4.07296 22.0003 4.15025 23.6919C4.22171 25.2567 4.48275 26.1055 4.70296 26.6713C4.95963 27.3669 5.36942 27.9984 5.90171 28.5161C6.41942 29.0484 7.05088 29.4582 7.7465 29.7148C8.31234 29.9351 9.16109 30.1961 10.7259 30.2676C12.4175 30.3448 12.9236 30.3609 17.2082 30.3609C21.4928 30.3609 21.9988 30.3448 23.6905 30.2676C25.2553 30.1961 26.104 29.9351 26.6698 29.7148C27.418 29.4232 27.9532 29.0776 28.5146 28.5161C29.0469 27.9984 29.4567 27.3669 29.7134 26.6713C29.9336 26.1055 30.1946 25.2567 30.2661 23.6919C30.3434 22.0003 30.3594 21.4928 30.3594 17.2096C30.3594 12.9265 30.3434 12.419 30.2661 10.7273C30.1946 9.16255 29.9336 8.3138 29.7134 7.74797C29.4217 6.99984 29.0761 6.46464 28.5146 5.90318C27.9968 5.37099 27.3665 4.9614 26.6698 4.70443C26.104 4.48422 25.2553 4.22318 23.6905 4.15172ZM15.1592 22.1548C16.3035 22.6312 17.5777 22.6955 18.7641 22.3367C19.9505 21.978 20.9756 21.2185 21.6643 20.1879C22.3529 19.1573 22.6624 17.9197 22.5399 16.6862C22.4174 15.4528 21.8705 14.3002 20.9925 13.4253C20.4329 12.866 19.7562 12.4377 19.0112 12.1713C18.2661 11.9049 17.4713 11.807 16.6839 11.8847C15.8965 11.9624 15.1361 12.2136 14.4575 12.6205C13.7788 13.0273 13.1988 13.5795 12.7592 14.2373C12.3196 14.8952 12.0314 15.6423 11.9152 16.425C11.799 17.2076 11.8578 18.0063 12.0873 18.7635C12.3168 19.5207 12.7114 20.2176 13.2426 20.804C13.7737 21.3904 14.4283 21.8518 15.1592 22.1548ZM11.3778 11.3792C12.1434 10.6136 13.0524 10.0062 14.0528 9.59183C15.0532 9.17746 16.1254 8.96418 17.2082 8.96418C18.291 8.96418 19.3632 9.17745 20.3636 9.59183C21.364 10.0062 22.2729 10.6136 23.0386 11.3792C23.8042 12.1449 24.4116 13.0539 24.826 14.0542C25.2403 15.0546 25.4536 16.1268 25.4536 17.2096C25.4536 18.2924 25.2403 19.3646 24.826 20.365C24.4116 21.3654 23.8042 22.2744 23.0386 23.0401C21.4923 24.5864 19.395 25.4551 17.2082 25.4551C15.0213 25.4551 12.9241 24.5864 11.3778 23.0401C9.83143 21.4937 8.96272 19.3965 8.96272 17.2096C8.96272 15.0228 9.83143 12.9255 11.3778 11.3792ZM27.2823 10.1921C27.4721 10.0132 27.624 9.79792 27.729 9.55918C27.8341 9.32044 27.8902 9.06305 27.894 8.80224C27.8978 8.54143 27.8492 8.28252 27.7512 8.04082C27.6531 7.79912 27.5075 7.57955 27.3231 7.39511C27.1387 7.21067 26.9191 7.06511 26.6774 6.96706C26.4357 6.869 26.1768 6.82043 25.916 6.82424C25.6552 6.82804 25.3978 6.88413 25.159 6.98919C24.9203 7.09425 24.7051 7.24615 24.5261 7.43588C24.178 7.80489 23.9874 8.29502 23.9948 8.80224C24.0022 9.30946 24.207 9.79383 24.5657 10.1525C24.9244 10.5112 25.4088 10.716 25.916 10.7234C26.4232 10.7308 26.9133 10.5402 27.2823 10.1921Z" fill="url(#paint0_linear_202_1642)"/>
<defs>
<linearGradient id="paint0_linear_202_1642" x1="1.1665" y1="1.16797" x2="34.9956" y2="3.12857" gradientUnits="userSpaceOnUse">
<stop stop-color="#EF2555"/>
<stop offset="1" stop-color="#FF3767"/>
</linearGradient>
</defs>
</svg>
