<svg width="645" height="501" viewBox="0 0 645 501" fill="none" xmlns="http://www.w3.org/2000/svg">
<path d="M225.573 228.471C235.295 239.498 268.901 252.337 268.901 252.337C271.249 251.699 273.612 250.992 275.941 250.238C291.065 245.346 304.864 238.637 304.864 238.637C304.864 238.637 311.814 233.631 310.268 225.545C310.268 225.545 306.777 215.211 298.262 215.497C289.746 215.785 250.734 210.708 250.734 210.708C250.734 210.708 240.785 199.657 232.236 201.357C223.684 203.054 215.852 217.437 225.573 228.471Z" fill="#27303C"/>
<path d="M283.666 234.543C280.034 236.055 278.026 239.311 279.181 241.814C280.336 244.317 284.217 245.119 287.848 243.607C291.48 242.094 293.488 238.839 292.333 236.336C291.178 233.833 287.297 233.03 283.666 234.543Z" fill="white"/>
<path d="M284.149 245.279C285.466 245.284 286.87 245.016 288.237 244.446C290.18 243.637 291.772 242.344 292.721 240.805C293.729 239.171 293.906 237.452 293.22 235.966C292.534 234.479 291.084 233.439 289.136 233.036C287.302 232.658 285.22 232.893 283.279 233.702C279.164 235.416 276.929 239.22 278.295 242.182C279.209 244.161 281.501 245.271 284.149 245.279ZM287.377 234.695C287.839 234.696 288.29 234.741 288.721 234.83C290.047 235.104 291.015 235.77 291.447 236.705C291.878 237.639 291.737 238.767 291.051 239.88C290.307 241.086 289.032 242.111 287.462 242.766C284.324 244.071 281.008 243.479 280.069 241.443C279.13 239.408 280.918 236.689 284.054 235.383C285.154 234.925 286.297 234.691 287.377 234.695Z" fill="#2D2A2A"/>
<path d="M299.842 227.723C300.377 227.725 300.812 227.314 300.816 226.806C300.82 226.297 300.389 225.883 299.854 225.88C299.527 225.879 266.922 225.647 248.677 218.692C248.18 218.503 247.618 218.733 247.417 219.205C247.217 219.677 247.457 220.214 247.954 220.403C266.543 227.488 298.49 227.717 299.841 227.723L299.842 227.723Z" fill="#2D2A2A"/>
<path d="M225.572 228.457C235.291 239.478 268.885 252.311 268.885 252.311C271.232 251.674 273.594 250.966 275.923 250.213C260.541 245.278 238.622 230.769 238.622 230.769C254.48 224.975 250.724 210.703 250.724 210.703C250.724 210.703 240.778 199.657 232.232 201.357C223.684 203.053 215.854 217.429 225.572 228.457Z" fill="white"/>
<path d="M268.88 253.229C268.971 253.229 269.061 253.218 269.15 253.194C271.44 252.572 273.823 251.861 276.233 251.082C276.626 250.954 276.89 250.605 276.89 250.211C276.891 249.818 276.626 249.469 276.234 249.343C263.421 245.232 245.771 234.248 240.632 230.958C255.178 224.573 251.701 210.625 251.663 210.479C251.627 210.342 251.557 210.214 251.46 210.106C251.039 209.638 241.042 198.668 232.035 200.458C227.456 201.367 223.216 205.442 221.234 210.84C218.906 217.177 220.217 223.813 224.829 229.047C234.591 240.117 267.141 252.635 268.522 253.163C268.636 253.207 268.758 253.229 268.88 253.229ZM272.98 250.171C271.612 250.588 270.261 250.979 268.942 251.341C265.554 250.022 235.279 238.033 226.315 227.868C222.149 223.141 220.964 217.154 223.061 211.442C224.797 206.714 228.562 203.022 232.428 202.255C239.778 200.794 248.571 209.792 249.834 211.135C250.23 212.919 252.283 224.794 238.276 229.912C237.942 230.035 237.705 230.322 237.662 230.659C237.618 230.996 237.774 231.328 238.068 231.522C238.275 231.66 257.885 244.586 272.98 250.171ZM225.572 228.457L225.567 228.457L225.572 228.457Z" fill="#2D2A2A"/>
<path d="M320.837 226.108L305.137 231.485C305.137 231.485 296.304 228.861 298.882 219.154L314.516 211.162L320.837 226.108Z" fill="white"/>
<path d="M305.132 232.403C305.245 232.403 305.357 232.385 305.464 232.348L321.164 226.972C321.411 226.888 321.612 226.711 321.719 226.484C321.827 226.256 321.832 225.997 321.735 225.766L315.414 210.82C315.311 210.577 315.105 210.388 314.846 210.299C314.588 210.21 314.3 210.23 314.058 210.355L298.424 218.347C298.185 218.469 298.01 218.681 297.944 218.931C295.174 229.358 304.749 232.332 304.847 232.361C304.939 232.388 305.035 232.403 305.132 232.403ZM319.565 225.569L305.138 230.509C303.732 229.985 297.93 227.332 299.723 219.767L314.02 212.458L319.565 225.569Z" fill="#2D2A2A"/>
<path d="M309.158 203.162C309.158 203.162 309.183 222.046 323.576 232.249L395.416 202.756C426.571 188.431 421.749 159.668 394.324 151.625C392.709 151.152 386.364 154.919 377.945 159.827C353.01 174.366 309.158 203.162 309.158 203.162Z" fill="#27303C"/>
<path d="M323.668 215.499C323.825 215.506 323.988 215.475 324.141 215.402L394.444 181.882L394.772 179.996C394.523 179.904 394.244 179.918 394.001 180.034L323.317 213.735C322.836 213.965 322.63 214.524 322.858 214.984C323.013 215.298 323.329 215.485 323.668 215.499Z" fill="#2D2A2A"/>
<path d="M327.084 225.07C327.393 225.083 327.705 224.951 327.906 224.691C328.224 224.278 328.142 223.702 327.722 223.403C318.313 216.697 316.97 202.633 316.958 202.492C316.914 201.986 316.457 201.618 315.928 201.671C315.404 201.725 315.014 202.178 315.058 202.683C315.111 203.293 316.475 217.701 326.57 224.895C326.724 225.006 326.903 225.062 327.084 225.07Z" fill="#2D2A2A"/>
<path d="M399.879 202.398C399.879 202.398 478.102 232.718 504.818 242.706C531.53 252.699 598.722 215.998 546.725 190.13C546.725 190.13 451.722 164.818 411.382 155.243C401.688 152.938 395.152 151.546 393.845 151.63C393.602 151.646 393.048 152.025 392.276 152.664C390.081 154.48 387.695 156.67 385.409 159.173C371.827 174.041 362.844 186.933 399.879 202.398Z" fill="#27303C"/>
<path d="M396.696 181.881L510.927 215.996C511.44 216.146 511.978 215.872 512.13 215.382C512.283 214.892 511.991 214.372 511.479 214.221L396.844 179.988C396.586 179.912 396.307 179.941 396.075 180.071L396.696 181.881Z" fill="#2D2A2A"/>
<path d="M394.581 119.27C380.587 118.88 368.734 129.47 368.13 142.904C367.526 156.338 378.397 167.561 392.391 167.951C406.385 168.341 418.238 157.75 418.842 144.317C419.447 130.883 408.575 119.659 394.581 119.27Z" fill="white"/>
<path d="M394.581 119.27C380.587 118.88 368.734 129.47 368.13 142.904C367.526 156.338 378.397 167.561 392.391 167.951C406.385 168.341 418.238 157.75 418.842 144.317C419.447 130.883 408.575 119.659 394.581 119.27Z" fill="white"/>
<path d="M397.616 197.628C397.646 197.629 397.677 197.628 397.708 197.627C398.224 197.6 398.618 197.228 398.588 196.795L396.875 172.181C396.845 171.748 396.399 171.419 395.886 171.444C395.369 171.471 394.976 171.843 395.006 172.276L396.719 196.89C396.747 197.297 397.14 197.613 397.616 197.628Z" fill="#2D2A2A"/>
<path d="M324.039 214.491L396.424 180.663" stroke="#2D2A2A" stroke-width="4" stroke-linecap="round" stroke-linejoin="round"/>
<path d="M355.177 492.343C369.914 493.983 403.674 481.038 403.674 481.038C404.99 479.003 406.268 476.907 407.491 474.799C415.433 461.117 421.153 446.979 421.153 446.979C421.153 446.979 422.928 438.66 416.281 433.736C416.281 433.736 406.658 428.454 400.509 434.341C394.36 440.228 361.849 462.492 361.849 462.492C361.849 462.492 346.926 460.986 341.713 467.936C336.496 474.885 340.437 490.698 355.177 492.343Z" fill="#27303C"/>
<path d="M403.025 458.751C401.362 462.263 402.074 465.975 404.616 467.042C407.158 468.108 410.567 466.126 412.231 462.615C413.895 459.103 413.182 455.392 410.64 454.325C408.099 453.259 404.689 455.24 403.025 458.751Z" fill="white"/>
<path d="M405.418 468.222C408.214 468.564 411.447 466.441 413.09 462.975C413.981 461.096 414.286 459.094 413.949 457.338C413.591 455.474 412.562 454.099 411.051 453.465C409.541 452.83 407.765 453.03 406.053 454.025C404.439 454.963 403.059 456.514 402.169 458.393C401.278 460.273 400.973 462.274 401.31 464.03C401.667 465.894 402.696 467.269 404.207 467.903C404.597 468.067 405.002 468.171 405.418 468.222ZM409.498 454.986C409.756 455.017 410.003 455.082 410.238 455.181C411.188 455.579 411.845 456.498 412.089 457.767C412.353 459.144 412.102 460.739 411.381 462.258C409.944 465.293 407.089 467.054 405.021 466.188C404.071 465.789 403.414 464.871 403.17 463.601C402.906 462.224 403.157 460.629 403.877 459.11C404.597 457.591 405.691 456.349 406.956 455.614C407.835 455.103 408.712 454.89 409.498 454.986Z" fill="#2D2A2A"/>
<path d="M369.129 473.783C369.282 473.802 369.444 473.785 369.601 473.724C388.233 466.544 412.164 445.438 413.174 444.542C413.574 444.188 413.621 443.596 413.279 443.221C412.937 442.845 412.335 442.828 411.936 443.183C411.691 443.399 387.268 464.94 368.981 471.987C368.484 472.179 368.219 472.723 368.39 473.203C368.507 473.53 368.797 473.743 369.129 473.783Z" fill="#2D2A2A"/>
<path d="M362.253 465.536C362.423 465.557 362.603 465.533 362.774 465.456C380.725 457.427 404.494 438.056 404.731 437.861C405.145 437.523 405.217 436.932 404.892 436.542C404.567 436.152 403.968 436.11 403.554 436.448C403.318 436.642 379.757 455.842 362.055 463.76C361.568 463.978 361.334 464.535 361.533 465.003C361.662 465.306 361.94 465.498 362.253 465.536Z" fill="#2D2A2A"/>
<path d="M355.354 492.05C370.232 493.725 404.304 480.594 404.304 480.594C405.631 478.527 406.92 476.398 408.153 474.258C393.199 480.975 366.754 484.947 366.754 484.947C374.695 469.873 362.069 461.728 362.069 461.728C362.069 461.728 347.003 460.189 341.746 467.247C336.483 474.304 340.473 490.37 355.354 492.05Z" fill="white"/>
<path d="M354.979 492.956C355.055 492.966 355.131 492.974 355.208 492.983C370.147 494.662 403.207 482.012 404.607 481.473C404.81 481.395 404.983 481.253 405.1 481.071C406.397 479.054 407.699 476.91 408.974 474.699C409.181 474.339 409.14 473.899 408.87 473.605C408.6 473.311 408.162 473.228 407.781 473.399C395.324 478.992 374.518 482.711 368.399 483.724C374.947 469.108 362.756 461.024 362.628 460.941C362.506 460.863 362.368 460.815 362.219 460.798C361.581 460.733 346.532 459.29 340.994 466.719C338.176 470.495 337.788 476.413 340.005 481.792C342.578 488.039 348.028 492.098 354.979 492.956ZM355.515 491.095C349.135 490.397 344.137 486.699 341.791 481.007C339.85 476.295 340.144 470.986 342.523 467.797C347.042 461.736 359.832 462.518 361.704 462.668C363.226 463.735 372.922 471.231 365.909 484.535C365.742 484.853 365.762 485.228 365.96 485.509C366.159 485.791 366.504 485.933 366.858 485.88C367.108 485.842 390.722 482.251 405.903 476.219C405.162 477.456 404.415 478.662 403.671 479.826C400.219 481.13 369.232 492.638 355.515 491.095Z" fill="#2D2A2A"/>
<path d="M424.613 429.545L416.609 443.907C416.609 443.907 408.284 447.845 403.628 439.016L409.813 422.779L424.613 429.545Z" fill="white"/>
<path d="M410.926 445.617C414.209 446.018 416.937 444.768 416.987 444.745C417.177 444.655 417.335 444.507 417.436 444.325L425.442 429.96C425.569 429.734 425.598 429.471 425.524 429.233C425.45 428.994 425.279 428.801 425.05 428.696L410.246 421.928C410.006 421.819 409.724 421.817 409.473 421.924C409.221 422.031 409.022 422.236 408.926 422.488L402.739 438.728C402.644 438.977 402.659 439.248 402.779 439.476C405.055 443.794 408.184 445.282 410.926 445.617ZM415.95 443.193C414.552 443.742 408.454 445.647 404.663 438.908L410.321 424.056L423.307 429.992L415.95 443.193Z" fill="#2D2A2A"/>
<path d="M481.38 333.405L579.18 244.665C579.18 244.665 601.266 209.64 575.856 192.508C550.447 175.376 524.119 205.738 524.119 205.738L454.79 292.667L442.23 308.411C448.72 325.839 453.538 344.69 471.892 338.604L481.38 333.405Z" fill="#27303C"/>
<path d="M512.703 226.324L511.169 209.31L528.791 185.193" fill="#27303C"/>
<path d="M500.001 236.371C500.315 236.394 500.639 236.264 500.85 235.999L524.03 206.92C524.072 206.873 530.912 199.062 540.76 193.754C541.226 193.502 541.407 192.937 541.165 192.492C540.924 192.045 540.35 191.887 539.884 192.139C529.703 197.627 522.857 205.453 522.57 205.783L499.364 234.894C499.036 235.304 499.104 235.885 499.515 236.19C499.66 236.298 499.829 236.358 500.001 236.371Z" fill="#2D2A2A"/>
<path d="M511.549 221.716C511.613 221.721 511.678 221.719 511.744 221.711C512.26 221.645 512.638 221.182 512.587 220.678L511.758 212.315C511.564 210.362 512.134 208.409 513.364 206.814L528.461 187.251C528.779 186.839 528.705 186.263 528.296 185.964C527.886 185.664 527.296 185.756 526.979 186.168L511.883 205.732C510.357 207.709 509.649 210.131 509.89 212.554L510.719 220.916C510.762 221.356 511.117 221.683 511.549 221.716Z" fill="#2D2A2A"/>
<path d="M472.622 329.108L572.105 233.111C572.485 232.745 572.498 232.158 572.135 231.8C571.772 231.442 571.169 231.448 570.789 231.815L471.174 327.94C471.086 328.024 471.015 328.123 470.965 328.232C470.681 328.849 472.622 329.108 472.622 329.108Z" fill="#2D2A2A"/>
<path d="M400.43 420.509C410.626 439.226 431.883 432.468 431.883 432.468C446.317 407.864 481.725 331.286 481.725 331.286L461.759 319.711L442.894 306.388L434.607 328.655L400.43 420.509Z" fill="#27303C"/>
<path d="M424.464 426.201C429.171 426.56 432.651 425.965 432.971 425.908C433.498 425.813 433.86 425.318 433.781 424.801C433.703 424.284 433.212 423.941 432.685 424.035C432.515 424.065 415.644 426.922 405.68 415.509C405.337 415.116 404.729 415.083 404.32 415.434C403.911 415.784 403.858 416.385 404.2 416.778C410.22 423.673 418.37 425.736 424.464 426.201Z" fill="#2D2A2A"/>
<path d="M471.926 327.099L428.577 419.605" stroke="#2D2A2A" stroke-width="5" stroke-linecap="round" stroke-linejoin="round"/>
<path d="M438.755 281.493C424.883 280.663 412.608 290.938 411.361 304.423C410.114 317.908 420.364 329.532 434.236 330.362C448.107 331.193 460.382 320.918 461.629 307.433C462.876 293.947 452.626 282.324 438.755 281.493Z" fill="white"/>
<path d="M438.755 281.493C424.883 280.663 412.608 290.938 411.361 304.423C410.114 317.908 420.364 329.532 434.236 330.362C448.107 331.193 460.382 320.918 461.629 307.433C462.876 293.947 452.626 282.324 438.755 281.493Z" fill="white"/>
<path d="M479.925 332.604C480.288 332.632 480.658 332.454 480.857 332.122C481.129 331.667 480.98 331.095 480.524 330.844L464.787 322.174C464.33 321.923 463.739 322.087 463.467 322.542C463.195 322.996 463.344 323.568 463.8 323.82L479.539 332.49C479.661 332.557 479.792 332.594 479.925 332.604Z" fill="#2D2A2A"/>
<path d="M563.719 65.0173C563.719 65.0173 483.838 97.2888 478.13 115.158C472.423 133.026 502.885 139.407 532.58 118.393C562.274 97.3796 563.719 65.0173 563.719 65.0173Z" fill="#FFCE6A"/>
<path d="M497.917 111.5C500.375 113.312 498.796 118.552 495.366 124.552C491.937 130.551 478.217 127.634 477.439 125.048C476.661 122.463 480.063 114.032 482.463 112.023C484.863 110.014 494.87 109.254 497.917 111.5Z" fill="white"/>
<path d="M482.35 128.538C483.684 128.813 485.105 128.977 486.456 129.005C491.172 129.101 494.625 127.656 496.179 124.936C499.103 119.821 501.885 113.205 498.535 110.735C495.215 108.287 484.638 109.045 481.894 111.343C479.254 113.554 475.602 122.326 476.527 125.398C476.95 126.803 479.441 127.936 482.35 128.538ZM497.297 112.264C499.084 113.582 498.058 118.032 494.551 124.166C492.95 126.968 488.527 127.184 486.7 127.147C482.274 127.058 478.584 125.483 478.348 124.698C477.712 122.587 480.862 114.515 483.029 112.701C484.994 111.056 494.471 110.181 497.297 112.264Z" fill="#2D2A2A"/>
<path d="M504.62 113.537C508.134 114.942 503.59 123.303 501.261 127.208C498.933 131.113 492.416 131.347 494.405 125.774C496.394 120.201 500.432 111.862 504.62 113.537Z" fill="white"/>
<path d="M495.54 130.899C497.584 131.326 500.506 130.206 502.053 127.616C505.823 121.306 507.385 116.895 506.694 114.507C506.441 113.63 505.876 112.994 505.06 112.669C503.973 112.235 502.835 112.302 501.677 112.868C497.713 114.809 494.648 122.39 493.515 125.559C492.16 129.347 494.326 130.49 495.022 130.75C495.187 130.812 495.36 130.862 495.54 130.899ZM504.209 114.384C504.563 114.526 504.783 114.779 504.899 115.181C505.422 116.991 503.809 121.231 500.474 126.813C499.372 128.657 497.118 129.501 495.84 129.022C494.569 128.547 494.934 126.925 495.265 126.001C496.948 121.295 499.695 115.801 502.356 114.499C503.012 114.178 503.601 114.14 504.209 114.384Z" fill="#2D2A2A"/>
<path d="M578.87 255.546C578.87 255.546 552.071 211.521 486.527 171.47L525.272 144.564C525.272 144.564 534.313 103.214 563.695 65.6082C563.695 65.6082 588.879 59.5702 603.409 60.7928C617.938 62.0159 638.602 91.3665 638.602 91.3665C638.602 91.3665 625.041 172.393 616.646 199.298C608.252 226.203 578.87 255.546 578.87 255.546Z" fill="#FFCE6A"/>
<path d="M584.165 107.597C584.619 107.597 585.013 107.541 585.307 107.418C585.896 107.17 586.405 106.956 589.948 94.9602C591.641 89.2285 593.221 83.479 593.236 83.4217C593.371 82.9315 593.061 82.4307 592.543 82.3032C592.024 82.1766 591.496 82.4701 591.361 82.9599C588.631 92.9038 585.326 103.987 584.351 105.766C583.682 105.808 581.753 105.51 580.24 104.707C579.446 104.286 578.946 103.814 578.83 103.376C578.527 101.994 581.663 91.0575 584.87 81.2846C585.029 80.8008 584.743 80.2872 584.232 80.1367C583.721 79.9868 583.178 80.2569 583.02 80.7403C581.439 85.5584 576.328 101.462 576.951 103.821C577.23 104.879 578.197 105.817 579.746 106.532C581.057 107.137 582.858 107.597 584.165 107.597Z" fill="#2D2A2A"/>
<path d="M581.776 242.093C581.983 242.093 582.194 242.03 582.37 241.9C582.793 241.589 582.868 241.013 582.54 240.613C582.124 240.107 540.502 189.812 498.179 169.393C497.704 169.164 497.12 169.342 496.877 169.795C496.634 170.245 496.823 170.798 497.3 171.028C539.242 191.263 580.598 241.237 581.011 241.739C581.202 241.972 581.487 242.093 581.776 242.093Z" fill="#2D2A2A"/>
<path d="M532.54 122.491C532.936 122.491 533.308 122.259 533.451 121.885C538.388 108.953 547.183 89.5707 561.045 70.6813C561.351 70.2658 561.242 69.6939 560.803 69.405C560.364 69.1152 559.76 69.2184 559.454 69.6348C545.473 88.687 536.606 108.226 531.629 121.262C531.448 121.738 531.708 122.264 532.211 122.436C532.319 122.473 532.431 122.491 532.54 122.491Z" fill="#2D2A2A"/>
<path d="M579.921 68.933C580.279 74.0969 584.992 78.0959 584.992 78.0959C585.98 75.2618 589.108 70.5611 592.339 66.6859C592.339 66.6859 593.675 73.5787 594.542 79.3846C598.112 80.0954 612.506 80.0129 616.516 72.0653C616.516 72.0653 615.852 54.9456 598.601 53.7395C591.176 53.2167 582.289 59.7105 579.921 68.933Z" fill="white"/>
<path d="M598.457 80.5907C604.441 80.5907 614.054 79.0718 617.39 72.4606C617.457 72.3267 617.49 72.1795 617.484 72.0313C617.477 71.852 616.581 54.0771 598.672 52.8246C590.36 52.2417 581.342 59.5165 578.98 68.7161C578.957 68.8069 578.948 68.9 578.955 68.9931C579.335 74.467 584.141 78.6054 584.345 78.7788C584.589 78.9856 584.925 79.0622 585.241 78.9819C585.557 78.9021 585.809 78.677 585.912 78.3835C586.691 76.1487 588.966 72.4895 591.773 68.8973C592.234 71.3788 593.014 75.7015 593.583 79.5125C593.64 79.895 593.944 80.2027 594.343 80.2821C595.22 80.4568 596.679 80.5907 598.457 80.5907ZM615.533 71.8773C611.883 78.6279 599.501 79.0897 595.401 78.5894C594.541 72.9784 593.305 66.5864 593.292 66.5199C593.223 66.1654 592.942 65.8819 592.573 65.7953C592.203 65.7077 591.815 65.8342 591.579 66.1172C589.039 69.1642 586.106 73.3035 584.642 76.4293C583.337 75.0219 581.178 72.2432 580.899 69.011C583.324 59.8449 591.951 54.1894 598.529 54.654C605.319 55.1286 610.241 58.193 613.16 63.7623C615.071 67.4091 615.463 70.9692 615.533 71.8773Z" fill="#2D2A2A"/>
<path d="M552.987 139.763L545.493 136.233C545.493 136.233 535.846 124.21 533.997 122.066C532.147 119.921 515.424 126.929 514.453 128.15C513.481 129.372 514.201 131.438 515.652 131.976C515.652 131.976 511.443 136.787 513.44 143.519C515.438 150.252 527.881 144.386 527.881 144.386C527.881 144.386 531.163 153.261 534.791 154.185C538.419 155.109 548.026 153.061 548.026 153.061L552.987 139.763Z" fill="white"/>
<path d="M515.641 132.895C515.767 132.895 515.895 132.872 516.019 132.823L529.35 127.491C529.843 127.293 530.074 126.755 529.867 126.288C529.659 125.821 529.091 125.602 528.598 125.799L515.267 131.131C514.774 131.328 514.543 131.867 514.751 132.334C514.906 132.684 515.264 132.894 515.641 132.895Z" fill="#2D2A2A"/>
<path d="M537.264 155.337C541.665 155.344 547.915 154.025 548.24 153.956C548.565 153.887 548.83 153.664 548.941 153.366L553.901 140.069C554.064 139.631 553.858 139.148 553.42 138.942L546.129 135.506C544.901 133.977 536.489 123.503 534.747 121.485C534.3 120.965 533.539 120.723 532.437 120.744C527.551 120.838 514.771 126.228 513.681 127.598C513.055 128.385 512.877 129.444 513.193 130.501C513.396 131.184 513.781 131.781 514.286 132.222C513.116 133.955 510.869 138.239 512.51 143.768C512.98 145.352 513.978 146.474 515.476 147.103C519.187 148.662 525.029 146.583 527.338 145.632C528.349 148.1 531.163 154.211 534.54 155.072C535.274 155.258 536.216 155.335 537.264 155.337ZM547.295 152.274C544.336 152.869 537.663 153.966 535.045 153.299C532.76 152.717 530 147.336 528.796 144.081C528.704 143.833 528.504 143.634 528.247 143.535C527.99 143.436 527.7 143.446 527.452 143.563C525.402 144.528 519.396 146.743 516.26 145.424C515.301 145.021 514.684 144.317 514.374 143.27C512.546 137.108 516.242 132.742 516.4 132.559C516.597 132.332 516.668 132.029 516.59 131.745C516.512 131.46 516.296 131.228 516.007 131.121C515.579 130.962 515.215 130.533 515.056 130.001C514.909 129.507 514.973 129.022 515.228 128.702C516.723 127.277 531.536 121.57 533.279 122.676C535.066 124.755 544.628 136.669 544.724 136.789C544.814 136.901 544.93 136.992 545.063 137.054L551.79 140.224L547.295 152.274Z" fill="#2D2A2A"/>
<path d="M597.039 189.141C597.771 189.682 609.67 209.743 618.721 198.47C624.16 191.69 629.603 180.232 634.958 162.126C649.204 113.928 638.747 90.9135 638.747 90.9135C630.31 86.0077 608.293 91.321 604.64 111.446C600.988 131.571 592.574 154.065 592.574 154.065C592.574 154.065 582.237 178.204 597.039 189.141Z" fill="#FFCE6A"/>
<path d="M591.67 155.015C591.914 155.12 592.193 155.13 592.443 155.027C592.694 154.924 592.89 154.724 592.983 154.477C593.068 154.25 601.513 131.641 605.159 111.638C606.763 102.836 611.847 97.7242 615.828 94.9863C621.265 91.2476 628.424 89.4442 634.062 90.3979C634.578 90.483 635.076 90.1482 635.178 89.6463C635.28 89.1444 634.945 88.6674 634.432 88.5806C628.223 87.5344 620.684 89.4142 614.757 93.4895C610.475 96.4337 605.01 101.925 603.29 111.361C600.103 128.846 593.208 148.367 591.56 152.905C591.56 152.905 590.875 154.67 591.67 155.015Z" fill="#2D2A2A"/>
<path d="M542.565 155.388C542.565 155.388 575.068 190.517 590.644 201.042C591.415 201.563 592.144 202.023 592.828 202.418C601.854 207.624 611.156 208.995 619.902 197.454C632.619 169.725 592.128 154.417 592.128 154.417L551.286 137.124L542.565 155.388Z" fill="#FFCE6A"/>
<path d="M590.917 200.495C590.911 200.671 590.909 200.842 590.912 201.018C591.684 201.54 592.414 202.002 593.099 202.397C602.139 207.615 611.455 208.99 620.214 197.422C618.433 192.577 612.947 188.978 606.321 188.823C598.066 188.63 591.169 193.856 590.917 200.495Z" fill="white"/>
<path d="M588.144 200.199C588.439 200.206 588.736 200.082 588.934 199.841C589.263 199.438 589.192 198.86 588.775 198.549C573.849 187.425 547.275 159.072 543.649 155.179L551.692 138.33L591.568 155.228C591.817 155.331 592.101 155.328 592.351 155.219C592.6 155.109 592.79 154.904 592.874 154.654C592.943 154.448 593.219 153.798 591.875 153.29C591.4 153.11 590.92 152.942 590.451 152.747L551.607 136.278C551.126 136.079 550.561 136.288 550.341 136.749L541.642 154.977C541.484 155.309 541.542 155.697 541.792 155.967C542.087 156.286 571.484 188.01 587.584 200.008C587.75 200.133 587.947 200.194 588.144 200.199Z" fill="#2D2A2A"/>
<path d="M554.003 160.838C554.311 160.845 554.619 160.709 554.813 160.448C560.279 153.075 560.678 144.059 560.692 143.679C560.711 143.172 560.3 142.751 559.774 142.738L559.773 142.738C559.248 142.726 558.806 143.127 558.786 143.633C558.782 143.721 558.385 152.485 553.265 159.391C552.957 159.807 553.054 160.38 553.481 160.671C553.64 160.78 553.822 160.834 554.003 160.838Z" fill="#2D2A2A"/>
<path d="M547.332 153.212C547.279 154.612 548.42 155.775 549.882 155.809C551.344 155.843 552.571 154.736 552.625 153.335C552.678 151.935 551.536 150.773 550.074 150.739C548.612 150.705 547.385 151.812 547.332 153.212Z" fill="white"/>
<path d="M549.848 156.73C551.838 156.777 553.515 155.264 553.588 153.358C553.66 151.452 552.1 149.864 550.11 149.817C548.12 149.771 546.442 151.283 546.37 153.19C546.298 155.096 547.858 156.684 549.848 156.73ZM550.04 151.661C550.969 151.682 551.697 152.424 551.663 153.313C551.629 154.203 550.846 154.909 549.918 154.887C548.989 154.865 548.261 154.124 548.295 153.235C548.329 152.345 549.111 151.639 550.04 151.661Z" fill="#2D2A2A"/>
<path d="M604.507 182.83C604.582 182.832 604.659 182.825 604.736 182.809C605.254 182.701 605.588 182.211 605.48 181.714C605.362 181.165 602.489 168.137 593.959 156.717C593.653 156.307 593.055 156.217 592.624 156.515C592.193 156.814 592.092 157.39 592.398 157.8C600.687 168.898 603.576 181.977 603.605 182.108C603.695 182.53 604.076 182.82 604.507 182.83Z" fill="#2D2A2A"/>
<path d="M608.348 33.6154L608.053 43.7108L607.55 60.9801C601.488 64.9598 595.597 65.3094 589.922 61.1382L590.767 53.1244L592.047 40.9863L608.348 33.6154Z" fill="white"/>
<path d="M598.661 65.0363C601.718 64.9608 604.87 63.8632 608.101 61.7432C608.35 61.5796 608.503 61.3105 608.511 61.0188L609.309 33.6506C609.318 33.3294 609.152 33.0245 608.871 32.8463C608.589 32.6686 608.233 32.6442 607.932 32.7797L591.626 40.1515C591.325 40.287 591.122 40.5632 591.089 40.8814L588.965 61.0358C588.931 61.3553 589.074 61.671 589.342 61.8679C592.324 64.06 595.439 65.116 598.661 65.0363ZM606.607 60.4745C600.97 64.0274 595.832 64.1087 590.929 60.7197L592.944 41.6005L607.346 35.089L606.607 60.4745Z" fill="#2D2A2A"/>
<path d="M576.157 35.5718C577.586 43.8996 580.751 53.8077 590.965 51.8827C603.108 49.5934 610.474 40.8812 609.826 29.5314C609.179 18.182 603.368 11.9763 589.476 13.7759C588.236 13.9368 587.077 14.1858 585.996 14.5123C578.094 16.9068 574.483 23.5307 575.493 31.1142C575.676 32.4846 575.884 34.0009 576.157 35.5718Z" fill="white"/>
<path d="M589.241 53.0293C589.843 52.9929 590.461 52.9156 591.094 52.7957C596.029 51.8638 600.375 49.8319 603.66 46.9201C604.043 46.581 604.061 45.9963 603.702 45.6149C603.342 45.2335 602.74 45.198 602.357 45.5376C599.32 48.2288 595.283 50.1112 590.681 50.9807C587.883 51.5077 585.583 51.123 583.648 49.8024C579.461 46.946 577.89 40.2645 577.072 35.4877C576.802 33.93 576.6 32.4534 576.416 31.0737C575.422 23.5996 579.188 17.626 586.245 15.4844C586.742 15.3333 587.008 14.8152 586.838 14.3277C586.669 13.8396 586.128 13.5685 585.631 13.7182C577.666 16.1357 573.412 22.8569 574.53 31.2593C574.708 32.5957 574.921 34.1551 575.197 35.7431C576.072 40.856 577.79 48.0339 582.585 51.3054C584.489 52.6047 586.722 53.1817 589.241 53.0293Z" fill="#2D2A2A"/>
<path d="M613.953 31.4509C613.953 31.4509 612.376 34.0418 610.315 36.2415L604.183 36.8349L602.587 32.6377C602.587 32.6377 598.668 32.6084 597.689 30.0699C597.689 30.0699 596.312 25.3336 596.506 19.4831C596.506 19.4831 591.013 4.73738 601.443 5.90234C614.164 7.32355 611.595 15.8866 611.595 15.8866C611.595 15.8866 621.053 18.4527 613.953 31.4509Z" fill="#2D2A2A"/>
<path d="M605.368 35.9863C604.518 31.2603 607.655 26.7309 612.499 26.0109C613.484 25.8644 614.526 25.8746 615.603 26.1145C621.758 27.485 621.088 41.2268 606.217 40.7118L605.368 35.9863Z" fill="white"/>
<path d="M608.346 41.6143C615.86 41.161 619.694 36.8221 620.166 32.4025C620.543 28.8834 618.703 25.8588 615.792 25.2105C614.663 24.9588 613.497 24.9202 612.327 25.0932C607.019 25.8822 603.474 30.8298 604.425 36.121C604.516 36.6285 605.016 36.9824 605.532 36.9047C606.052 36.8305 606.4 36.3594 606.309 35.8529C605.538 31.5674 608.392 27.5637 612.669 26.9276C613.6 26.7895 614.523 26.8199 615.414 27.018C617.338 27.4465 618.537 29.6086 618.264 32.1597C617.869 35.8559 614.479 40.0707 606.223 39.7854C605.699 39.764 605.265 40.1673 605.261 40.6791C605.257 41.1909 605.682 41.6206 606.21 41.6385C606.952 41.6645 607.664 41.6555 608.346 41.6143Z" fill="#2D2A2A"/>
<path d="M604.5 17.9472C599.678 19.1045 594.967 20.6276 590.382 22.4436C587.586 23.5508 584.367 24.6611 582.008 24.991C580.292 25.2321 578.255 24.716 576.301 23.9193C572.092 22.2029 568.29 17.2557 568.07 12.8564C568.042 12.288 568.053 11.7139 568.112 11.1402C568.801 4.71623 572.507 9.01589 572.507 9.01589C572.507 9.01589 573.14 3.84084 576.417 3.35217C579.708 2.86454 582.114 7.53755 582.114 7.53755C582.114 7.53755 590.833 4.87274 601.402 6.05391C614.294 7.49486 611.689 16.182 611.689 16.182C611.689 16.182 608.603 16.9625 604.5 17.9472Z" fill="#2D2A2A"/>
<path d="M419.446 96.5293L466.399 127.086C469.177 128.895 472.978 128.227 474.887 125.596C476.796 122.966 476.092 119.367 473.313 117.559L426.361 87.0027C423.582 85.1945 419.782 85.8613 417.873 88.4923C415.964 91.1228 416.667 94.721 419.446 96.5293Z" fill="white"/>
<path d="M469.842 129.022C470.275 129.022 470.711 128.985 471.146 128.908C473.004 128.582 474.616 127.591 475.686 126.116C476.756 124.642 477.156 122.861 476.811 121.103C476.467 119.343 475.42 117.817 473.863 116.803L426.91 86.2461C425.353 85.2331 423.472 84.8552 421.615 85.1808C419.758 85.5064 418.145 86.4984 417.075 87.9723C416.005 89.4467 415.605 91.2275 415.95 92.9862C416.294 94.7454 417.341 96.2721 418.898 97.2856L465.851 127.842C467.043 128.618 468.426 129.022 469.842 129.022ZM422.915 86.9015C423.944 86.9015 424.947 87.1945 425.813 87.7581L472.766 118.315C475.1 119.834 475.693 122.867 474.089 125.077C473.312 126.148 472.142 126.868 470.793 127.104C469.444 127.342 468.079 127.066 466.948 126.331L419.995 95.7736L419.447 96.5294L419.995 95.7736C418.865 95.038 418.104 93.9291 417.854 92.6519C417.604 91.3747 417.895 90.0819 418.672 89.0115C419.449 87.9411 420.619 87.2211 421.968 86.9845C422.284 86.929 422.601 86.9015 422.915 86.9015Z" fill="#2D2A2A"/>
<path d="M462.595 124.61L534.959 171.705C537.738 173.513 541.538 172.846 543.447 170.215C545.357 167.585 544.653 163.986 541.874 162.178L469.51 115.083C466.732 113.275 462.931 113.942 461.022 116.573C459.112 119.204 459.817 122.802 462.595 124.61Z" fill="white"/>
<path d="M538.401 173.641C538.834 173.641 539.27 173.603 539.705 173.526C541.562 173.2 543.175 172.209 544.245 170.735C546.453 167.691 545.636 163.514 542.422 161.422L470.058 114.327C466.844 112.236 462.432 113.01 460.223 116.053C458.014 119.097 458.832 123.274 462.045 125.366L534.41 172.461C535.602 173.237 536.985 173.641 538.401 173.641ZM466.062 114.983C467.091 114.983 468.095 115.275 468.961 115.839L541.325 162.933C543.658 164.452 544.252 167.486 542.648 169.696C541.871 170.767 540.7 171.487 539.351 171.723C538.003 171.959 536.637 171.685 535.507 170.949L463.143 123.855C460.81 122.336 460.215 119.302 461.819 117.092C462.596 116.021 463.767 115.302 465.116 115.065C465.431 115.01 465.748 114.983 466.062 114.983ZM462.594 124.61H462.59H462.594Z" fill="#2D2A2A"/>
<path d="M450.997 17.5222L490.396 43.1627C493.022 44.8719 494.221 47.9661 493.385 50.8782L475.501 113.2C474.818 115.582 471.856 116.611 469.708 115.213L430.31 89.5723C427.684 87.8631 426.484 84.7685 427.32 81.8564L445.205 19.535C445.888 17.1535 448.849 16.1244 450.997 17.5222Z" fill="white"/>
<path d="M471.836 116.766C472.388 116.766 472.945 116.673 473.486 116.485C474.951 115.976 476.026 114.867 476.435 113.441L494.319 51.1185C495.261 47.8349 493.905 44.3344 490.943 42.4069L451.545 16.7664L450.997 17.5222L451.545 16.7664C450.26 15.9295 448.682 15.7419 447.217 16.2505C445.752 16.7595 444.677 17.8689 444.268 19.2947L426.384 81.6156C425.442 84.8992 426.798 88.4011 429.76 90.3286L469.158 115.969C469.969 116.496 470.895 116.766 471.836 116.766ZM448.862 17.8056C449.419 17.8056 449.968 17.9661 450.448 18.2784L489.846 43.9184C492.13 45.4052 493.177 48.1055 492.45 50.6379L474.565 112.96C474.323 113.804 473.687 114.461 472.819 114.762C471.951 115.064 471.017 114.953 470.255 114.457L430.857 88.8166C428.573 87.3302 427.527 84.6295 428.254 82.0971L446.138 19.7758C446.38 18.9315 447.017 18.2743 447.884 17.9725C448.205 17.8611 448.535 17.8056 448.862 17.8056Z" fill="#2D2A2A"/>
<path d="M446.404 14.532L485.802 40.1729C488.428 41.8821 489.628 44.9759 488.792 47.888L470.907 110.21C470.224 112.591 467.262 113.62 465.115 112.223L425.716 86.5826C423.09 84.8729 421.891 81.7787 422.727 78.8666L440.611 16.5452C441.294 14.1637 444.256 13.1342 446.404 14.532Z" fill="white"/>
<path d="M467.242 113.776C467.794 113.776 468.351 113.682 468.893 113.494C470.357 112.985 471.432 111.876 471.841 110.45L489.725 48.1288C490.668 44.8448 489.311 41.3443 486.349 39.4168L446.952 13.7763C445.666 12.9389 444.087 12.7518 442.624 13.2604C441.159 13.7694 440.084 14.8788 439.675 16.305L421.791 78.6259C420.848 81.9095 422.205 85.4109 425.166 87.3385L464.564 112.978C465.375 113.505 466.301 113.776 467.242 113.776ZM444.268 14.8159C444.826 14.8159 445.374 14.976 445.854 15.2883L485.252 40.9288C487.536 42.4151 488.583 45.1158 487.856 47.6482L469.972 109.969C469.73 110.813 469.093 111.471 468.225 111.772C467.358 112.074 466.424 111.962 465.662 111.466L426.264 85.8264C423.98 84.3401 422.933 81.6399 423.66 79.1075L441.544 16.7861C441.787 15.9413 442.424 15.2842 443.291 14.9824C443.612 14.871 443.941 14.8159 444.268 14.8159ZM446.403 14.5321H446.398H446.403Z" fill="#2D2A2A"/>
<path d="M60.1695 298.03L218.702 385.268L378.262 298.036L219.73 210.798L60.1695 298.03Z" fill="#27303C"/>
<path d="M334.037 273.77L319.508 282.484C319.508 282.484 318.357 281.851 316.449 280.803M297.134 270.19C288.328 265.352 280.278 260.929 280.278 260.929L294.808 252.216L297.134 270.19Z" stroke="white" stroke-width="5" stroke-linecap="round" stroke-linejoin="round"/>
<path d="M314.18 332.93C314.18 332.93 300.865 325.48 291.422 320.196M266.95 323.661C261.66 326.647 257.031 329.261 257.031 329.261L287.058 346.688L266.95 323.661Z" stroke="white" stroke-width="5" stroke-linecap="round" stroke-linejoin="round"/>
<path d="M245.408 369.618C245.408 369.618 235.177 363.945 223.641 357.548M200.198 344.549C195.076 341.708 191.649 339.809 191.649 339.809L161.622 356.319L200.198 344.549Z" stroke="white" stroke-width="5" stroke-linecap="round" stroke-linejoin="round"/>
<path d="M189.226 372.37C189.226 372.37 192.412 370.53 196.655 368.078M204.657 363.455C211.4 359.559 217.801 355.86 217.801 355.86L204.657 363.455Z" stroke="white" stroke-width="5" stroke-linecap="round" stroke-linejoin="round"/>
<path d="M349.535 314.586C349.535 314.586 326.225 301.595 301.977 288.083M250.759 259.54C249.182 258.661 248.314 258.178 248.314 258.178L165.981 302.662L250.759 259.54Z" stroke="white" stroke-width="5" stroke-linecap="round" stroke-linejoin="round"/>
<path d="M137.892 341.644C137.892 341.644 165.474 326.342 178.799 318.951M149.134 294.022C136.648 286.871 125.784 280.649 125.784 280.649L76.3846 306.79L149.134 294.022Z" stroke="white" stroke-width="5" stroke-linecap="round" stroke-linejoin="round"/>
<path d="M149.031 248.547L165.497 257.719C165.497 257.719 167.754 256.458 171.454 254.389M195.59 240.899C214.462 230.351 235.238 218.738 235.238 218.738L195.59 240.899Z" stroke="white" stroke-width="5" stroke-linecap="round" stroke-linejoin="round"/>
<path d="M183.416 229.744C183.416 229.744 185.09 230.613 187.32 231.771M191.523 233.954C195.066 235.794 198.43 237.54 198.43 237.54L191.523 233.954Z" stroke="white" stroke-width="5" stroke-linecap="round" stroke-linejoin="round"/>
<path d="M218.701 385.268L218.855 405.918L378.416 318.686L378.262 298.036L218.701 385.268Z" fill="white"/>
<path d="M218.701 386.185C218.869 386.185 219.036 386.144 219.186 386.062L378.746 298.83C379.045 298.666 379.23 298.365 379.23 298.037C379.231 297.71 379.047 297.407 378.749 297.243L220.216 210.005C219.916 209.84 219.546 209.839 219.245 210.004L59.6853 297.236C59.386 297.399 59.2015 297.701 59.201 298.029C59.2005 298.356 59.3841 298.659 59.6829 298.823L218.215 386.061C218.366 386.144 218.533 386.185 218.701 386.185ZM376.329 298.033L218.703 384.207L62.1016 298.033L219.728 211.858L376.329 298.033Z" fill="#27303C"/>
<path d="M218.858 406.835C219.025 406.835 219.192 406.794 219.342 406.713L378.902 319.481C379.204 319.315 379.389 319.009 379.387 318.68L379.233 298.03C379.231 297.703 379.045 297.402 378.745 297.24C378.447 297.077 378.079 297.079 377.78 297.242L218.22 384.474C217.918 384.639 217.733 384.945 217.735 385.274L217.889 405.924C217.892 406.251 218.077 406.552 218.376 406.714C218.526 406.795 218.692 406.835 218.858 406.835ZM377.446 318.159L219.814 404.336L219.676 385.795L377.308 299.618L377.446 318.159Z" fill="#2D2A2A"/>
<path d="M219.012 385.268L218.858 405.918L60.0182 318.686L60.1717 298.036L219.012 385.268Z" fill="white"/>
<path d="M218.857 406.835C219.023 406.835 219.189 406.795 219.338 406.714C219.638 406.552 219.824 406.251 219.825 405.924L219.98 385.274C219.983 384.945 219.799 384.639 219.498 384.474L60.6576 297.242C60.3592 297.079 59.9907 297.078 59.6914 297.24C59.3916 297.402 59.2056 297.703 59.2032 298.03L59.0496 318.679C59.0472 319.008 59.2308 319.314 59.532 319.479L218.372 406.711C218.521 406.794 218.689 406.835 218.857 406.835ZM218.039 385.794L217.901 404.332L60.9903 318.16L61.1288 299.622L218.039 385.794Z" fill="#2D2A2A"/>
<path d="M73.5371 339.192C73.5371 339.192 54.4905 350.29 43.4458 356.726M60.4931 375.591C65.7043 378.622 69.6626 380.924 69.6626 380.924L25.5902 406.606L60.4931 375.591Z" stroke="#2D2A2A" stroke-width="5"/>
<path d="M359.222 339.809C359.222 339.809 375.884 349.237 387.623 355.879M379.66 373.181C371.598 377.741 364.065 382.001 364.065 382.001L398.936 401.262L379.66 373.181Z" stroke="#2D2A2A" stroke-width="5" stroke-linecap="round" stroke-linejoin="round"/>
<path d="M300.138 370.535C300.138 370.535 311.366 376.984 319.978 381.931M317.983 394.15C313.896 396.471 310.308 398.51 310.308 398.51L336.945 415.478L317.983 394.15Z" stroke="#2D2A2A" stroke-width="5" stroke-linecap="round" stroke-linejoin="round"/>
<path d="M217.318 419.147C217.318 419.147 217.372 422.828 217.444 427.732M217.58 436.978C217.694 444.77 217.803 452.167 217.803 452.167L217.58 436.978Z" stroke="#2D2A2A" stroke-width="5" stroke-linecap="round" stroke-linejoin="round"/>
<path d="M386.343 318.713C386.343 318.713 389.421 318.764 393.521 318.833M401.251 318.961C407.765 319.07 413.949 319.173 413.949 319.173L401.251 318.961Z" stroke="#2D2A2A" stroke-width="5" stroke-linecap="round" stroke-linejoin="round"/>
<path d="M133.535 371.911C133.535 371.911 122.937 378.183 114.991 382.886M117.495 395.157C120.706 397.243 123.365 398.969 123.365 398.969L96.7274 415.02L117.495 395.157Z" stroke="#2D2A2A" stroke-width="5" stroke-linecap="round" stroke-linejoin="round"/>
<path d="M47.8105 318.255C47.8105 318.255 44.679 318.306 40.5071 318.374M32.6419 318.503C26.0131 318.611 19.7204 318.714 19.7204 318.714L32.6419 318.503Z" stroke="#2D2A2A" stroke-width="5" stroke-linecap="round" stroke-linejoin="round"/>
<path d="M83.6487 270.56C83.6487 270.56 62.4087 259.067 53.5525 254.275M78.065 236.272C82.465 233.794 85.5859 232.037 85.5859 232.037L40.5449 206.355L78.065 236.272Z" stroke="#2D2A2A" stroke-width="5" stroke-linecap="round" stroke-linejoin="round"/>
<path d="M131.598 224.7C131.598 224.7 120.458 218.222 112.331 213.498M116.403 201.437C121.085 198.717 125.302 196.266 125.302 196.266L101.086 180.215L116.403 201.437Z" stroke="#2D2A2A" stroke-width="5" stroke-linecap="round" stroke-linejoin="round"/>
<path d="M349.052 264.139C349.052 264.139 358.744 257.868 366.934 252.569M369.803 240.438C362.305 236.017 352.442 230.203 352.442 230.203L367.456 221.031L369.803 240.438Z" stroke="#2D2A2A" stroke-width="5" stroke-linecap="round" stroke-linejoin="round"/>
<path d="M372.104 221.152C375.252 220.827 377.627 219.398 377.627 217.687C377.627 215.736 374.542 214.152 370.743 214.152C366.944 214.152 363.859 215.736 363.859 217.687C363.859 217.795 363.869 217.902 363.887 218.008" stroke="#2D2A2A" stroke-width="5"/>
<path d="M424.576 322.659C428.321 322.274 431.146 320.579 431.146 318.549C431.147 316.235 427.477 314.357 422.958 314.357C418.439 314.357 414.77 316.235 414.77 318.549C414.77 318.678 414.781 318.805 414.803 318.931" stroke="#2D2A2A" stroke-width="5"/>
<path d="M405.806 409.882C409.622 409.467 412.498 407.663 412.498 405.502C412.498 403.035 408.75 401.033 404.133 401.033C399.516 401.033 395.768 403.035 395.768 405.502C395.768 405.635 395.779 405.767 395.8 405.897" stroke="#2D2A2A" stroke-width="5"/>
<path d="M219.319 463.768C223.286 463.383 226.281 461.668 226.281 459.613C226.281 457.275 222.405 455.377 217.631 455.377C212.857 455.377 208.981 457.275 208.981 459.613C208.981 459.747 208.993 459.879 209.018 460.011" stroke="#2D2A2A" stroke-width="5"/>
<path d="M23.9367 414.757C28.158 414.374 31.3477 412.644 31.3477 410.571C31.3474 408.218 27.2348 406.306 22.1694 406.306C17.1041 406.306 12.9915 408.218 12.9915 410.571C12.9912 410.712 13.0062 410.851 13.0348 410.988" stroke="#2D2A2A" stroke-width="5"/>
<path d="M13.0266 322.321C16.9781 321.972 19.9648 320.388 19.9648 318.489C19.9648 316.335 16.1192 314.586 11.3828 314.586C6.64641 314.586 2.8008 316.335 2.8008 318.489C2.8008 318.62 2.81485 318.749 2.84245 318.876" stroke="#2D2A2A" stroke-width="5"/>
<path d="M37.6977 207.029C41.6661 206.626 44.6602 204.85 44.6602 202.722C44.6599 200.298 40.7747 198.33 35.9895 198.33C31.2043 198.33 27.3191 200.298 27.3191 202.722C27.3189 202.858 27.3314 202.992 27.3552 203.125" stroke="#2D2A2A" stroke-width="5"/>
<path d="M195.118 260.224L192.707 313.705L307.283 296.43L309.693 242.948L195.118 260.224Z" fill="#FFCE6A"/>
<path d="M195.118 260.224L192.707 313.705L307.283 296.43L309.693 242.948L195.118 260.224Z" stroke="#2C2929" stroke-width="4.49295" stroke-linecap="round" stroke-linejoin="round"/>
<path d="M206.884 274.482L205.774 298.817L244.904 292.99L246.014 268.655L206.884 274.482Z" fill="white"/>
<path d="M206.884 274.482L205.774 298.817L244.904 292.99L246.014 268.655L206.884 274.482Z" stroke="#2C2929" stroke-width="4.49295"/>
<path d="M259.042 265.551L257.932 289.886L297.062 284.059L298.172 259.724L259.042 265.551Z" fill="white"/>
<path d="M259.042 265.551L257.932 289.886L297.062 284.059L298.172 259.724L259.042 265.551Z" stroke="#2C2929" stroke-width="4.49295"/>
<path d="M149.812 203.597L147.401 257.079L261.976 239.803L264.387 186.322L149.812 203.597Z" fill="#FFCE6A"/>
<path d="M149.812 203.597L147.401 257.079L261.976 239.803L264.387 186.322L149.812 203.597Z" stroke="#2C2929" stroke-width="4.49295" stroke-linecap="round" stroke-linejoin="round"/>
<path d="M161.579 217.856L160.47 242.191L199.599 236.364L200.709 212.029L161.579 217.856Z" fill="white"/>
<path d="M161.579 217.856L160.47 242.191L199.599 236.364L200.709 212.029L161.579 217.856Z" stroke="#2C2929" stroke-width="4.49295"/>
<path d="M213.733 208.924L212.624 233.259L251.754 227.433L252.863 203.097L213.733 208.924Z" fill="white"/>
<path d="M213.733 208.924L212.624 233.259L251.754 227.433L252.863 203.097L213.733 208.924Z" stroke="#2C2929" stroke-width="4.49295"/>
<path d="M149.792 206.043L147.636 258.621L192.778 313.674L194.934 261.096L149.792 206.043Z" fill="white"/>
<path d="M149.792 206.043L147.636 258.621L192.778 313.674L194.934 261.096L149.792 206.043Z" stroke="#2C2929" stroke-width="3.59866" stroke-linecap="round" stroke-linejoin="round"/>
<path d="M154.083 227.129L153.093 251.175L168.514 269.899L169.504 245.853L154.083 227.129Z" fill="#27303C"/>
<path d="M174.616 252.792L173.626 276.838L189.047 295.562L190.037 271.516L174.616 252.792Z" fill="#27303C"/>
<path d="M264.53 186.902L262.418 238.439L307.562 293.511L309.674 241.975L264.53 186.902Z" fill="white"/>
<path d="M264.53 186.902L262.418 238.439L307.562 293.511L309.674 241.975L264.53 186.902Z" stroke="#2C2929" stroke-width="3.56249" stroke-linecap="round" stroke-linejoin="round"/>
<path d="M268.834 207.69L267.864 231.26L283.286 249.991L284.256 226.42L268.834 207.69Z" fill="#27303C"/>
<path d="M289.367 233.353L288.397 256.924L303.819 275.654L304.789 252.083L289.367 233.353Z" fill="#27303C"/>
<path d="M149.119 204.643L262.721 185.911L310.729 243.762L197.127 262.495L149.119 204.643Z" fill="white"/>
<path d="M149.119 204.643L262.721 185.911L310.729 243.762L197.127 262.495L149.119 204.643Z" stroke="#2C2929" stroke-width="3.87338" stroke-linecap="round" stroke-linejoin="round"/>
<path d="M187.819 214.011L212.835 244.156L272.029 234.395L247.014 204.25L187.819 214.011Z" fill="#27303C"/>
<path d="M165.113 184.32L162.48 236.116L285.631 242.517L288.264 190.722L165.113 184.32Z" fill="#FFCE6A"/>
<path d="M165.113 184.32L162.48 236.116L285.631 242.517L288.264 190.722L165.113 184.32Z" stroke="#2C2929" stroke-width="4.60462" stroke-linecap="round" stroke-linejoin="round"/>
<path d="M177.744 199.915L176.535 223.554L218.592 225.726L219.801 202.087L177.744 199.915Z" fill="white"/>
<path d="M177.744 199.915L176.535 223.554L218.592 225.726L219.801 202.087L177.744 199.915Z" stroke="#2C2929" stroke-width="4.60462"/>
<path d="M233.82 203.368L232.612 227.007L274.668 229.178L275.877 205.539L233.82 203.368Z" fill="white"/>
<path d="M233.82 203.368L232.612 227.007L274.668 229.178L275.877 205.539L233.82 203.368Z" stroke="#2C2929" stroke-width="4.60462"/>
<path d="M173.205 123.436L170.572 175.231L293.723 181.633L296.355 129.837L173.205 123.436Z" fill="#FFCE6A"/>
<path d="M173.205 123.436L170.572 175.231L293.723 181.633L296.355 129.837L173.205 123.436Z" stroke="#2C2929" stroke-width="4.60462" stroke-linecap="round" stroke-linejoin="round"/>
<path d="M185.836 139.031L184.627 162.67L226.684 164.841L227.893 141.202L185.836 139.031Z" fill="white"/>
<path d="M185.836 139.031L184.627 162.67L226.684 164.841L227.893 141.202L185.836 139.031Z" stroke="#2C2929" stroke-width="4.60462"/>
<path d="M241.914 142.483L240.705 166.122L282.762 168.294L283.971 144.655L241.914 142.483Z" fill="white"/>
<path d="M241.914 142.483L240.705 166.122L282.762 168.294L283.971 144.655L241.914 142.483Z" stroke="#2C2929" stroke-width="4.60462"/>
<path d="M172.958 123.522L170.756 174.175L162.679 234.921L164.881 184.268L172.958 123.522Z" fill="white"/>
<path d="M172.958 123.522L170.756 174.175L162.679 234.921L164.881 184.268L172.958 123.522Z" stroke="#2C2929" stroke-width="3.32883" stroke-linecap="round" stroke-linejoin="round"/>
<path d="M171.431 144.931L170.421 168.166L167.66 188.933L168.67 165.697L171.431 144.931Z" fill="#27303C"/>
<path d="M167.765 172.524L166.755 195.759L163.994 216.526L165.004 193.29L167.765 172.524Z" fill="#27303C"/>
<path d="M296.322 131.625L294.163 181.265L286.086 242.012L288.244 192.371L296.322 131.625Z" fill="white"/>
<path d="M296.322 131.625L294.163 181.265L286.086 242.012L288.244 192.371L296.322 131.625Z" stroke="#2C2929" stroke-width="3.29538" stroke-linecap="round" stroke-linejoin="round"/>
<path d="M294.81 152.739L293.82 175.509L291.059 196.276L292.049 173.505L294.81 152.739Z" fill="#27303C"/>
<path d="M291.144 180.332L290.154 203.102L287.393 223.869L288.383 201.098L291.144 180.332Z" fill="#27303C"/>
<path d="M173.937 123.18L297.48 129.676L287.92 191.813L164.377 185.317L173.937 123.18Z" fill="white"/>
<path d="M173.937 123.18L297.48 129.676L287.92 191.813L164.377 185.317L173.937 123.18Z" stroke="#2C2929" stroke-width="3.70677" stroke-linecap="round" stroke-linejoin="round"/>
<path d="M201.23 139.615L196.248 171.993L260.624 175.378L265.605 143L201.23 139.615Z" fill="#27303C"/>
<path d="M147.455 92.4765L145.39 145.546L246.73 181.529L248.795 128.46L147.455 92.4765Z" fill="#FFCE6A"/>
<path d="M147.455 92.4765L145.39 145.546L246.73 181.529L248.795 128.46L147.455 92.4765Z" stroke="#2C2929" stroke-width="4.30789" stroke-linecap="round" stroke-linejoin="round"/>
<path d="M157.897 111.341L156.946 135.502L191.562 147.637L192.514 123.477L157.897 111.341Z" fill="white"/>
<path d="M157.897 111.341L156.946 135.502L191.562 147.637L192.514 123.477L157.897 111.341Z" stroke="#2C2929" stroke-width="4.30789"/>
<path d="M203.997 129.048L203.045 153.208L237.662 165.344L238.613 141.184L203.997 129.048Z" fill="white"/>
<path d="M203.997 129.048L203.045 153.208L237.662 165.344L238.613 141.184L203.997 129.048Z" stroke="#2C2929" stroke-width="4.30789"/>
<path d="M217.013 42.4239L214.949 95.4931L316.289 131.476L318.354 78.4071L217.013 42.4239Z" fill="#FFCE6A"/>
<path d="M217.013 42.4239L214.949 95.4931L316.289 131.476L318.354 78.4071L217.013 42.4239Z" stroke="#2C2929" stroke-width="4.30789" stroke-linecap="round" stroke-linejoin="round"/>
<path d="M227.454 61.2889L226.502 85.4491L261.119 97.5843L262.07 73.4242L227.454 61.2889Z" fill="white"/>
<path d="M227.454 61.2889L226.502 85.4491L261.119 97.5843L262.07 73.4242L227.454 61.2889Z" stroke="#2C2929" stroke-width="4.30789"/>
<path d="M273.553 78.9957L272.602 103.156L307.219 115.291L308.17 91.131L273.553 78.9957Z" fill="white"/>
<path d="M273.553 78.9957L272.602 103.156L307.219 115.291L308.17 91.131L273.553 78.9957Z" stroke="#2C2929" stroke-width="4.30789"/>
<path d="M216.833 42.5473L214.839 95.1521L145.555 142.568L147.549 89.9634L216.833 42.5473Z" fill="white"/>
<path d="M216.833 42.5473L214.839 95.1521L145.555 142.568L147.549 89.9634L216.833 42.5473Z" stroke="#2C2929" stroke-width="3.84308" stroke-linecap="round" stroke-linejoin="round"/>
<path d="M208.714 62.6107L207.796 86.6115L184.131 102.657L185.049 78.6558L208.714 62.6107Z" fill="#27303C"/>
<path d="M177.189 85.2948L176.271 109.296L152.606 125.341L153.523 101.34L177.189 85.2948Z" fill="#27303C"/>
<path d="M318.249 82.0083L316.296 133.579L247.008 181.029L248.961 129.458L318.249 82.0083Z" fill="white"/>
<path d="M318.249 82.0083L316.296 133.579L247.008 181.029L248.961 129.458L318.249 82.0083Z" stroke="#2C2929" stroke-width="3.80446" stroke-linecap="round" stroke-linejoin="round"/>
<path d="M310.142 101.78L309.243 125.31L285.575 141.367L286.475 117.837L310.142 101.78Z" fill="#27303C"/>
<path d="M278.618 124.464L277.719 147.994L254.052 164.051L254.951 140.521L278.618 124.464Z" fill="#27303C"/>
<path d="M217.517 42.0999L319.326 81.0634L248.755 131.666L146.946 92.7028L217.517 42.0999Z" fill="white"/>
<path d="M217.517 42.0999L319.326 81.0634L248.755 131.666L146.946 92.7028L217.517 42.0999Z" stroke="#2C2929" stroke-width="4.0494" stroke-linecap="round" stroke-linejoin="round"/>
<path d="M224.999 63.5477L188.226 89.9156L241.276 110.219L278.049 83.8506L224.999 63.5477Z" fill="#27303C"/>
</svg>
