<svg width="35" height="36" viewBox="0 0 35 36" fill="none" xmlns="http://www.w3.org/2000/svg">
<path d="M7.18196 1.09521C5.5692 1.1015 4.02429 1.74495 2.88389 2.88535C1.74349 4.02575 1.10003 5.57067 1.09375 7.18342V27.8195C1.10003 29.4323 1.74349 30.9772 2.88389 32.1176C4.02429 33.258 5.5692 33.9014 7.18196 33.9077H27.818C29.4308 33.9014 30.9757 33.258 32.1161 32.1176C33.2565 30.9772 33.9 29.4323 33.9062 27.8195V7.18342C33.9 5.57067 33.2565 4.02575 32.1161 2.88535C30.9757 1.74495 29.4308 1.1015 27.818 1.09521H7.18196ZM7.18196 4.07817H27.818C29.5482 4.07817 30.9233 5.45331 30.9233 7.18342V27.8195C30.9233 29.5496 29.5482 30.9248 27.818 30.9248H7.18196C6.77345 30.9273 6.3685 30.8488 5.99059 30.6936C5.61268 30.5385 5.26934 30.3099 4.98047 30.021C4.69161 29.7321 4.46298 29.3888 4.30783 29.0109C4.15269 28.633 4.07413 28.228 4.0767 27.8195V7.18342C4.0767 5.45331 5.45185 4.07817 7.18196 4.07817ZM17.0809 11.8786C15.9847 11.8682 15.0525 11.8786 14.529 12.1351C14.1785 12.3052 13.9115 12.6885 14.0741 12.7064C14.2784 12.7362 14.7378 12.8346 14.9839 13.1672C15.2971 13.5923 15.2866 14.5543 15.2866 14.5543C15.2866 14.5543 15.4611 17.1987 14.8601 17.5313C14.4469 17.758 13.8817 17.2971 12.6587 15.1941C12.0352 14.1113 11.5639 12.9167 11.5639 12.9167C11.5639 12.9167 11.4744 12.6944 11.3134 12.5781C11.115 12.4334 10.8406 12.3857 10.8406 12.3857L7.92173 12.4036C7.92173 12.4036 7.48473 12.4215 7.32813 12.6079C7.18196 12.7824 7.31619 13.1255 7.31619 13.1255C7.31619 13.1255 9.59965 18.4679 12.1859 21.1601C14.5573 23.6314 17.2494 23.4674 17.2494 23.4674H18.4724C18.4724 23.4674 18.8393 23.4271 19.0258 23.2287C19.2018 23.0423 19.1958 22.6918 19.1958 22.6918C19.1958 22.6918 19.1719 21.0557 19.9296 20.8111C20.6813 20.5769 21.6359 22.395 22.656 23.0945C23.4316 23.624 24.0192 23.5076 24.0192 23.5076L26.7472 23.4674C26.7472 23.4674 28.1685 23.3794 27.4929 22.2548C27.4407 22.1683 27.1021 21.4285 25.4719 19.9132C23.7582 18.3292 23.9864 18.5858 26.0477 15.8415C27.3005 14.1695 27.8016 13.1493 27.6435 12.7064C27.4944 12.2932 26.5727 12.4036 26.5727 12.4036L23.5017 12.4215C23.5017 12.4215 23.275 12.3917 23.1065 12.4916C22.9906 12.5777 22.8982 12.6915 22.838 12.8227C22.838 12.8227 22.3488 14.1158 21.7015 15.218C20.3383 17.5358 19.7849 17.664 19.5642 17.5194C19.0452 17.1808 19.1734 16.1666 19.1734 15.4507C19.1734 13.1956 19.5165 12.2634 18.5097 12.0203C18.1771 11.9383 17.9325 11.8861 17.0824 11.8786H17.0809Z" fill="url(#paint0_linear_202_1640)"/>
<defs>
<linearGradient id="paint0_linear_202_1640" x1="1.09375" y1="1.09521" x2="35.6917" y2="3.10038" gradientUnits="userSpaceOnUse">
<stop stop-color="#EF2555"/>
<stop offset="1" stop-color="#FF3767"/>
</linearGradient>
</defs>
</svg>
