<svg width="639" height="456" viewBox="0 0 639 456" fill="none" xmlns="http://www.w3.org/2000/svg">
<path d="M588.303 420.624C542.128 418.222 385.047 422.292 337.274 423.879C289.501 425.465 234.047 421.785 205.242 416.374C176.436 410.962 9.93171 416.834 17.4876 431.384C25.0434 445.933 91.673 437.892 167.232 443.74C242.791 449.588 412.725 443.009 451.057 443.74C489.389 444.471 524.539 442.278 573.937 439.354C623.335 436.43 615.068 422.017 588.303 420.624Z" fill="#042578"/>
<g opacity="0.5">
<path opacity="0.5" d="M417.397 49.05V225.894H140.736V49.05H417.397Z" fill="#5D5FEF"/>
</g>
<path d="M414.499 53.3655V215.712H154.214V53.3655H414.499Z" fill="white"/>
<path d="M467.851 116.411C467.649 116.411 467.446 116.339 467.279 116.191C466.899 115.855 466.847 115.255 467.163 114.851C471.49 109.314 473.873 102.291 473.873 95.0771C473.873 91.6223 473.342 88.2301 472.295 84.9949C472.134 84.4978 472.383 83.9559 472.85 83.7848C473.317 83.6136 473.826 83.8779 473.987 84.375C475.099 87.8101 475.662 91.4108 475.662 95.0771C475.662 102.735 473.133 110.19 468.539 116.068C468.362 116.294 468.107 116.411 467.851 116.411Z" fill="white"/>
<path d="M465.337 72.8013C465.117 72.8013 464.897 72.7156 464.724 72.5426C461.816 69.6291 458.448 67.4205 454.714 65.9785C454.249 65.7992 454.009 65.2531 454.178 64.7589C454.346 64.2647 454.86 64.0097 455.324 64.1889C459.289 65.72 462.864 68.064 465.951 71.1564C466.31 71.5168 466.327 72.1192 465.989 72.502C465.813 72.701 465.575 72.8013 465.337 72.8013Z" fill="white"/>
<path d="M437.436 65.1005C437.036 65.1005 436.672 64.8131 436.569 64.3815C436.448 63.8718 436.739 63.3542 437.218 63.2255C439.681 62.5637 442.231 62.228 444.795 62.228C445.29 62.228 445.69 62.6543 445.69 63.18C445.69 63.7056 445.29 64.1319 444.795 64.1319C442.378 64.1319 439.976 64.4479 437.656 65.0714C437.582 65.0912 437.508 65.1005 437.436 65.1005Z" fill="white"/>
<path d="M503.654 171.65H506.971C507.671 171.65 508.238 171.046 508.238 170.301V167.394C508.238 166.649 507.671 166.045 506.971 166.045H503.654C502.954 166.045 502.386 166.649 502.386 167.394V170.301C502.386 171.046 502.954 171.65 503.654 171.65Z" fill="#5D5FEF"/>
<path d="M493.013 171.65H496.329C497.03 171.65 497.597 171.046 497.597 170.301V167.394C497.597 166.649 497.03 166.045 496.329 166.045H493.013C492.312 166.045 491.745 166.649 491.745 167.394V170.301C491.745 171.046 492.312 171.65 493.013 171.65Z" fill="#5D5FEF"/>
<path d="M482.372 171.65H485.689C486.389 171.65 486.957 171.046 486.957 170.301V167.394C486.957 166.649 486.389 166.045 485.689 166.045H482.372C481.672 166.045 481.104 166.649 481.104 167.394V170.301C481.104 171.046 481.672 171.65 482.372 171.65Z" fill="#5D5FEF"/>
<path d="M58.3593 197.014H99.9438C101.01 197.014 101.882 196.086 101.882 194.952V179.141C101.882 178.006 101.01 177.078 99.9438 177.078H58.3593C57.2935 177.078 56.4214 178.006 56.4214 179.141V194.952C56.4214 196.086 57.2935 197.014 58.3593 197.014Z" fill="#5D5FEF"/>
<path d="M96.391 194.007V205.005L84.481 192.331C84.481 192.331 96.1487 194.007 96.391 194.007Z" fill="#5D5FEF"/>
<path d="M60.416 195.038H97.8874C98.7911 195.038 99.5304 194.251 99.5304 193.289V180.803C99.5304 179.841 98.7911 179.055 97.8874 179.055H60.416C59.5123 179.055 58.7729 179.841 58.7729 180.803V193.289C58.7729 194.251 59.5123 195.038 60.416 195.038Z" fill="white"/>
<path d="M77.3348 183.008H95.745C96.189 183.008 96.5526 182.621 96.5526 182.148C96.5526 181.676 96.189 181.289 95.745 181.289H77.3348C76.8908 181.289 76.5273 181.676 76.5273 182.148C76.5273 182.621 76.8908 183.008 77.3348 183.008Z" fill="#5D5FEF"/>
<path d="M61.9573 186.293H96.1034C96.3503 186.293 96.5524 186.078 96.5524 185.815V185.805C96.5524 185.543 96.3503 185.328 96.1034 185.328H61.9573C61.7104 185.328 61.5083 185.543 61.5083 185.805V185.815C61.5083 186.078 61.7104 186.293 61.9573 186.293Z" fill="#5D5FEF"/>
<path d="M61.9573 188.163H96.1034C96.3503 188.163 96.5524 187.948 96.5524 187.686V187.676C96.5524 187.413 96.3503 187.198 96.1034 187.198H61.9573C61.7104 187.198 61.5083 187.413 61.5083 187.676V187.686C61.5083 187.948 61.7104 188.163 61.9573 188.163Z" fill="#5D5FEF"/>
<path d="M539.89 84.4211C539.89 90.1352 535.538 94.7672 530.168 94.7672C524.799 94.7672 520.446 90.1352 520.446 84.4211C520.446 78.7072 524.799 74.075 530.168 74.075C535.538 74.075 539.89 78.7072 539.89 84.4211Z" fill="#9CD499"/>
<path d="M529.204 87.9623C529.198 87.9623 529.192 87.9621 529.186 87.9619C529.055 87.9567 528.933 87.8948 528.847 87.7906L526.206 84.5971C526.032 84.3873 526.052 84.0676 526.249 83.8831C526.446 83.6984 526.746 83.7188 526.92 83.9286L529.229 86.7215L534.513 81.2189C534.7 81.0235 535.001 81.0267 535.185 81.2265C535.368 81.4262 535.365 81.7466 535.178 81.9421L529.536 87.8179C529.447 87.9107 529.328 87.9623 529.204 87.9623Z" fill="white"/>
<path d="M221.672 99.2055L201.13 94.9818L205.916 68.6244L226.457 72.8481L221.672 99.2055Z" fill="#FFD200"/>
<path d="M222.111 84.2424L211.22 82.0033C210.93 81.9437 210.739 81.6425 210.795 81.3341C210.851 81.0256 211.134 80.8221 211.424 80.8817L222.314 83.121C222.604 83.1806 222.795 83.4816 222.739 83.79C222.683 84.0984 222.4 84.302 222.111 84.2424Z" fill="#5D5FEF"/>
<path d="M221.584 87.1398L210.694 84.9007C210.404 84.8411 210.213 84.5399 210.269 84.2315C210.325 83.9231 210.608 83.7196 210.897 83.7792L221.788 86.0183C222.078 86.0779 222.269 86.3791 222.213 86.6875C222.157 86.9959 221.874 87.1994 221.584 87.1398Z" fill="#5D5FEF"/>
<path d="M221.044 90.117L210.153 87.8779C209.863 87.8183 209.672 87.5171 209.728 87.2087C209.784 86.9003 210.067 86.6967 210.357 86.7563L221.247 88.9954C221.537 89.055 221.728 89.3562 221.672 89.6647C221.616 89.9731 221.333 90.1766 221.044 90.117Z" fill="#5D5FEF"/>
<path d="M214.739 72.1587C214.645 72.6748 214.176 73.0126 213.691 72.9128C213.206 72.813 212.888 72.3137 212.982 71.7975C213.076 71.2814 213.545 70.9438 214.03 71.0436C214.515 71.1434 214.832 71.6425 214.739 72.1587Z" fill="#3E6BAB"/>
<path d="M368 92.2672H335.083V71.8496H359.838C363.026 75.2415 364.813 77.1433 368 80.5353V92.2672Z" fill="#FFB8B3"/>
<path d="M359.234 71.8496V82.748H368V80.6538L359.782 71.9088L359.234 71.8496Z" fill="#F39892"/>
<path d="M359.838 71.8496V80.6538H368L359.838 71.8496Z" fill="#FFB8B3"/>
<path d="M353.464 79.5114H338.794C338.474 79.5114 338.213 79.2329 338.213 78.8927C338.213 78.5523 338.474 78.2739 338.794 78.2739H353.464C353.784 78.2739 354.046 78.5523 354.046 78.8927C354.046 79.2329 353.784 79.5114 353.464 79.5114Z" fill="white"/>
<path d="M353.464 82.6771H338.794C338.474 82.6771 338.213 82.3985 338.213 82.0583C338.213 81.7179 338.474 81.4396 338.794 81.4396H353.464C353.784 81.4396 354.046 81.7179 354.046 82.0583C354.046 82.3985 353.784 82.6771 353.464 82.6771Z" fill="white"/>
<path d="M353.464 86.0089H338.794C338.474 86.0089 338.213 85.7303 338.213 85.3901C338.213 85.0497 338.474 84.7714 338.794 84.7714H353.464C353.784 84.7714 354.046 85.0497 354.046 85.3901C354.046 85.7303 353.784 86.0089 353.464 86.0089Z" fill="white"/>
<path d="M351.542 73.4191C351.542 73.9975 351.101 74.4662 350.558 74.4662C350.014 74.4662 349.574 73.9975 349.574 73.4191C349.574 72.8407 350.014 72.3719 350.558 72.3719C351.101 72.3719 351.542 72.8407 351.542 73.4191Z" fill="#3E6BAB"/>
<path d="M383.192 120.835L351.402 117.271L353.501 96.0651L378.707 98.8909C381.007 101.916 382.297 103.611 384.598 106.636L383.192 120.835Z" fill="#5D5FEF"/>
<path d="M378.256 100.404L354.593 97.7511L352.822 115.643L382.24 118.941L383.278 108.465L377.522 107.819L378.256 100.404Z" fill="white"/>
<path d="M375.048 106.904L359.72 105.186C359.369 105.146 359.112 104.808 359.149 104.434C359.186 104.061 359.503 103.787 359.854 103.826L375.183 105.545C375.534 105.584 375.791 105.922 375.754 106.296C375.717 106.67 375.4 106.943 375.048 106.904Z" fill="#5D5FEF"/>
<path d="M374.693 110.499L359.365 108.78C359.014 108.741 358.757 108.403 358.794 108.029C358.831 107.655 359.148 107.382 359.499 107.421L374.828 109.14C375.179 109.179 375.436 109.517 375.399 109.891C375.362 110.265 375.044 110.538 374.693 110.499Z" fill="#5D5FEF"/>
<path d="M374.321 114.252L358.993 112.534C358.642 112.494 358.384 112.156 358.422 111.783C358.459 111.409 358.776 111.135 359.127 111.174L374.456 112.893C374.807 112.932 375.064 113.27 375.027 113.644C374.99 114.018 374.672 114.291 374.321 114.252Z" fill="#5D5FEF"/>
<path d="M366.381 100.962C366.381 101.54 365.94 102.009 365.397 102.009C364.854 102.009 364.413 101.54 364.413 100.962C364.413 100.383 364.854 99.9144 365.397 99.9144C365.94 99.9144 366.381 100.383 366.381 100.962Z" fill="#3E6BAB"/>
<path d="M178.669 125.573H104.504C103.697 125.573 103.042 124.876 103.042 124.017V90.0537C103.042 89.1947 103.697 88.4983 104.504 88.4983H178.669C179.477 88.4983 180.131 89.1947 180.131 90.0537V124.017C180.131 124.876 179.477 125.573 178.669 125.573Z" fill="#5D5FEF"/>
<path d="M176.843 123.833H106.331C105.679 123.833 105.15 123.27 105.15 122.576V99.4953C105.15 98.8014 105.679 98.2388 106.331 98.2388H176.843C177.495 98.2388 178.024 98.8014 178.024 99.4953V122.576C178.024 123.27 177.495 123.833 176.843 123.833Z" fill="white"/>
<path d="M108.586 94.119H106.875C106.514 94.119 106.221 93.8073 106.221 93.4228V91.9229C106.221 91.5383 106.514 91.2267 106.875 91.2267H108.586C108.948 91.2267 109.241 91.5383 109.241 91.9229V93.4228C109.241 93.8073 108.948 94.119 108.586 94.119Z" fill="white"/>
<path d="M114.077 94.119H112.365C112.004 94.119 111.711 93.8073 111.711 93.4228V91.9229C111.711 91.5383 112.004 91.2267 112.365 91.2267H114.077C114.438 91.2267 114.731 91.5383 114.731 91.9229V93.4228C114.731 93.8073 114.438 94.119 114.077 94.119Z" fill="white"/>
<path d="M119.568 94.119H117.856C117.495 94.119 117.202 93.8073 117.202 93.4228V91.9229C117.202 91.5383 117.495 91.2267 117.856 91.2267H119.568C119.929 91.2267 120.222 91.5383 120.222 91.9229V93.4228C120.222 93.8073 119.929 94.119 119.568 94.119Z" fill="white"/>
<path d="M175.058 103.849H136.512C135.878 103.849 135.359 103.296 135.359 102.621C135.359 101.946 135.878 101.394 136.512 101.394H175.058C175.692 101.394 176.211 101.946 176.211 102.621C176.211 103.296 175.692 103.849 175.058 103.849Z" fill="#5D5FEF"/>
<path d="M146.066 122.781H107.52C106.886 122.781 106.367 122.229 106.367 121.554C106.367 120.879 106.886 120.327 107.52 120.327H146.066C146.701 120.327 147.219 120.879 147.219 121.554C147.219 122.229 146.701 122.781 146.066 122.781Z" fill="#5D5FEF"/>
<path d="M153.166 122.781H149.178C148.961 122.781 148.784 122.592 148.784 122.361V120.746C148.784 120.516 148.961 120.327 149.178 120.327H153.166C153.383 120.327 153.561 120.516 153.561 120.746V122.361C153.561 122.592 153.383 122.781 153.166 122.781Z" fill="#5D5FEF"/>
<path d="M159.18 122.781H155.191C154.974 122.781 154.797 122.592 154.797 122.361V120.746C154.797 120.516 154.974 120.327 155.191 120.327H159.18C159.396 120.327 159.574 120.516 159.574 120.746V122.361C159.574 122.592 159.396 122.781 159.18 122.781Z" fill="#5D5FEF"/>
<path d="M175.428 109.195H111.596C111.166 109.195 110.814 108.82 110.814 108.362C110.814 107.904 111.166 107.53 111.596 107.53H175.428C175.859 107.53 176.211 107.904 176.211 108.362C176.211 108.82 175.859 109.195 175.428 109.195Z" fill="#5D5FEF"/>
<path d="M175.428 112.789H111.596C111.166 112.789 110.814 112.414 110.814 111.956C110.814 111.498 111.166 111.123 111.596 111.123H175.428C175.859 111.123 176.211 111.498 176.211 111.956C176.211 112.414 175.859 112.789 175.428 112.789Z" fill="#5D5FEF"/>
<path d="M175.455 155.074V164.751H171.07V155.074H175.455Z" fill="#5D5FEF"/>
<path d="M231.664 160.272V164.751H227.279V160.272H231.664Z" fill="#5D5FEF"/>
<path d="M194.041 143.905V164.751H189.655V143.905H194.041Z" fill="#5D5FEF"/>
<path d="M203.333 144.141V164.751H198.947V144.141H203.333Z" fill="#5D5FEF"/>
<path d="M212.626 140.92V164.751H208.241V140.92H212.626Z" fill="#5D5FEF"/>
<path d="M184.747 140.604V164.751H180.362V140.604H184.747Z" fill="#5D5FEF"/>
<path d="M221.949 148.062V164.751H217.563V148.062H221.949Z" fill="#5D5FEF"/>
<path d="M564.044 180.747H584.123C584.123 192.469 575.059 202.115 564.044 202.115C553.029 202.115 543.965 192.469 543.965 180.747C543.965 169.025 553.029 159.379 564.044 159.379V180.747Z" fill="#5D5FEF"/>
<path d="M587.486 177.755C587.486 165.954 578.497 156.387 567.407 156.387V177.755H587.486Z" fill="#F39892"/>
<path d="M547.328 177.755C547.328 189.557 556.318 199.123 567.407 199.123C556.392 199.123 547.328 189.478 547.328 177.755Z" fill="#F39892"/>
<path d="M567.407 156.387C556.318 156.387 547.328 165.954 547.328 177.755C547.328 166.033 556.392 156.387 567.407 156.387Z" fill="#F39892"/>
<path d="M567.407 199.123C578.497 199.123 587.486 189.556 587.486 177.755C587.486 189.477 578.422 199.123 567.407 199.123Z" fill="#F39892"/>
<path d="M299.922 104.129C299.922 91.0047 290.003 80.3455 277.708 80.1781C265.356 80.0099 255.105 90.5956 254.909 103.74C254.813 110.156 257.089 116.006 260.863 120.362C262.602 122.369 263.567 124.998 263.567 127.728V138.465C263.567 145.412 268.908 151.095 275.436 151.095H279.392C285.92 151.095 291.26 145.412 291.26 138.465V127.729C291.26 124.977 292.258 122.343 294.006 120.314C297.68 116.052 299.922 110.369 299.922 104.129Z" fill="#FFD200"/>
<g opacity="0.5">
<path opacity="0.5" d="M296.778 105.737C296.778 94.4455 288.245 85.2753 277.667 85.1313C267.04 84.9866 258.221 94.0936 258.053 105.402C257.97 110.922 259.928 115.954 263.176 119.702C264.672 121.428 265.502 123.69 265.502 126.039V135.276C265.502 141.252 270.097 146.142 275.712 146.142H279.116C284.732 146.142 289.326 141.252 289.326 135.276V126.04C289.326 123.672 290.184 121.406 291.688 119.661C294.849 115.993 296.778 111.105 296.778 105.737Z" fill="white"/>
</g>
<path d="M280.74 132.034H273.328C272.98 132.034 272.689 131.752 272.657 131.383C272.644 131.229 271.261 116.002 264.862 111.738C264.547 111.528 264.451 111.085 264.649 110.75C264.846 110.414 265.262 110.312 265.577 110.522C271.819 114.682 273.592 127.513 273.934 130.6H280.028C280.003 129.541 280.061 127.496 280.634 124.85C281.401 121.313 283.281 115.978 287.884 110.645C288.136 110.353 288.562 110.334 288.836 110.602C289.11 110.87 289.128 111.324 288.876 111.615C280.464 121.362 281.399 131.139 281.41 131.236C281.432 131.439 281.371 131.642 281.243 131.795C281.115 131.947 280.932 132.034 280.74 132.034Z" fill="#94BDF2"/>
<path d="M286.289 112.719C283.787 112.719 280.375 110.827 276.782 108.776C272.141 111.407 267.807 113.765 265.38 112.2C264.24 111.465 263.695 110.025 263.714 107.799C263.732 105.703 264.296 104.29 265.392 103.6C267.823 102.068 272.166 104.512 276.784 107.15C281.493 104.477 285.928 101.988 288.35 103.557C289.437 104.262 289.976 105.694 289.95 107.814C289.923 110.02 289.327 111.504 288.179 112.225C287.633 112.567 286.997 112.719 286.289 112.719ZM278.214 107.964C281.914 110.057 285.786 112.061 287.495 110.989C288.21 110.541 288.582 109.466 288.603 107.796C288.622 106.219 288.301 105.205 287.649 104.782C285.997 103.712 281.985 105.836 278.214 107.964ZM267.213 104.554C266.768 104.554 266.385 104.641 266.079 104.834C265.417 105.251 265.075 106.253 265.062 107.812C265.047 109.465 265.39 110.529 266.079 110.974C267.741 112.046 271.626 110.053 275.351 107.96C272.34 106.25 269.178 104.554 267.213 104.554Z" fill="#94BDF2"/>
<path d="M279.797 154.503H275.484C273.965 154.503 272.722 153.18 272.722 151.563V151.133C272.722 149.516 273.965 148.193 275.484 148.193H279.797C281.316 148.193 282.56 149.516 282.56 151.133V151.563C282.56 153.18 281.316 154.503 279.797 154.503Z" fill="#94BDF2"/>
<path d="M262.913 130.744V138.338C262.913 145.613 268.506 151.565 275.342 151.565H279.486C286.322 151.565 291.915 145.613 291.915 138.338V130.744H262.913Z" fill="#94BDF2"/>
<path d="M291.791 133.134H263.4C262.511 133.134 261.783 132.359 261.783 131.413V131.222C261.783 130.275 262.511 129.501 263.4 129.501H291.791C292.68 129.501 293.408 130.275 293.408 131.222V131.413C293.408 132.359 292.68 133.134 291.791 133.134Z" fill="#5D5FEF"/>
<path d="M291.894 135.858L263.717 139.562C262.835 139.678 262.023 139.004 261.914 138.065L261.892 137.875C261.783 136.935 262.416 136.072 263.299 135.956L291.475 132.252C292.358 132.136 293.169 132.809 293.278 133.749L293.301 133.939C293.41 134.878 292.777 135.742 291.894 135.858Z" fill="#5D5FEF"/>
<path d="M291.894 141.105L263.717 144.809C262.835 144.925 262.023 144.252 261.914 143.312L261.892 143.123C261.783 142.183 262.416 141.319 263.299 141.203L291.475 137.5C292.358 137.384 293.169 138.057 293.278 138.997L293.301 139.186C293.41 140.126 292.777 140.989 291.894 141.105Z" fill="#5D5FEF"/>
<path d="M290.155 146.721L266.688 149.806C265.877 149.913 265.133 149.294 265.033 148.432L264.978 147.961C264.878 147.099 265.459 146.307 266.269 146.2L289.736 143.115C290.546 143.009 291.291 143.627 291.391 144.489L291.446 144.96C291.546 145.822 290.965 146.615 290.155 146.721Z" fill="#5D5FEF"/>
<path d="M589.563 379.645C599.534 378.305 603.413 392.185 601.042 400.866C598.671 409.547 595.623 425.519 595.623 425.519L593.027 423.545C593.027 423.545 601.531 400.568 598.854 391.172C596.178 381.776 590.622 380.896 589.625 381.03C588.628 381.164 589.563 379.645 589.563 379.645Z" fill="#9CD499"/>
<path d="M588.224 388.025C589.875 384.112 585.091 383.932 585.437 386.694C585.744 389.142 586.025 395.157 583.425 397.179C578.799 397.364 572.457 396.496 567.603 394.485C567.528 394.13 567.57 393.748 567.755 393.336C569.623 389.176 582.595 384.074 578.471 383.367C575.186 382.804 569.768 389.68 565.324 393.389C562.49 391.8 560.547 389.7 560.434 387.062C560.28 383.491 564.669 378.795 570.488 376.018C573.154 375.892 575.681 376.919 579.623 378.444C585.448 380.696 583.918 375.925 578.409 373.753C583.065 373.316 587.779 374.54 591.39 378.56C591.39 378.56 591.149 380.534 593.423 383.208C599.626 390.504 593.076 396.22 584.988 397.068C585.352 394.859 587.083 390.729 588.224 388.025Z" fill="#9CD499"/>
<path d="M615.604 396.954C606.669 388.888 596.931 393.67 591.769 400.042C586.608 406.414 589.359 422.933 589.359 422.933C589.359 422.933 591.205 423.213 591.235 422.547C591.265 421.881 586.997 402.895 599.362 396.499C607.097 392.498 612.403 395.796 612.987 398.345C613.57 400.894 609.681 404.775 609.681 404.775L615.604 396.954Z" fill="#74B570"/>
<path d="M603.865 402.316C621.421 397.988 612.763 387.145 627.683 395.683C628.734 396.284 629.989 397.592 631.227 399.322C629.856 399.484 628.205 399.502 626.393 398.968C621.884 397.641 623.317 401.334 630.766 403.319C632.17 403.693 633.305 404.089 634.243 404.549C637.516 411.603 638.738 420.424 631.054 422.276C629.54 422.641 627.686 422.702 625.634 422.521C623.384 420.41 626.741 410.648 623.087 411.518C619.578 412.353 623.773 420.42 623.069 422.189C619.668 421.621 615.924 420.528 612.362 419.139C610.971 418.166 609.929 416.984 609.654 415.594C608.724 410.889 616.338 409.203 616.74 405.35C617.109 401.808 613.641 412.801 605.742 413.312C598.809 409.108 595.659 404.34 603.865 402.316Z" fill="#9CD499"/>
<path d="M614.287 394.995C618.604 398.973 623.389 403.585 629.36 407.129C635.329 410.672 633.73 419.04 633.73 419.04C633.73 419.04 634.973 411.793 630.013 408.499C625.053 405.207 621.84 401.688 618.011 400.523C614.182 399.357 612.077 398.452 612.077 398.452C612.077 398.452 613.399 396.304 612.728 395.322C612.057 394.34 614.287 394.995 614.287 394.995Z" fill="#74B570"/>
<path d="M597.674 366.385C603.099 370.919 600.859 375.962 597.064 385.304C593.269 394.647 593.139 428.219 593.139 428.219L596.382 427.537C596.382 427.537 595.336 393.111 599.591 383.505C603.847 373.899 605.626 369.119 609.626 371.883C613.625 374.648 597.674 366.385 597.674 366.385Z" fill="#74B570"/>
<path d="M594.189 360.502C594.767 357.65 598.427 354.358 603.346 351.442C602.677 355.636 600.426 362.573 602.897 363.796C606.23 365.447 603.091 356.188 604.278 350.902C608.899 348.289 614.472 346.031 619.619 344.747C619.612 344.767 619.606 344.786 619.599 344.806C616.816 352.454 613.062 355.647 614.647 356.67C615.839 357.439 619.532 348.572 624.525 343.816C628.325 343.354 631.551 343.656 633.48 345.047C636.461 347.198 638.471 349.15 635.632 356.509C633.962 357.843 631.787 358.866 629.247 359.295C622.548 360.428 619.42 360.866 624.155 362.805C626.474 363.755 630.31 362.325 633.425 361.401C632.442 363.356 631.232 365.576 629.757 368.11C628.822 369.717 627.786 371.128 626.681 372.362C624.525 372.927 622.64 373.06 621.634 372.696C618.479 371.554 610.355 367.811 608.372 369.754C606.431 371.656 623.334 371.629 622.239 376.201C614.135 381.515 604.732 379.887 603.003 375.629C600.682 369.911 592.45 369.088 594.189 360.502Z" fill="#9CD499"/>
<path d="M631.98 349.675C616.063 355.056 604.517 366.147 602.374 368.795C600.231 371.442 600.243 372.142 600.243 372.142L601.985 375.227L602.773 374.774C602.773 374.774 601.436 372.161 604.754 368.433C610.476 362.005 617.483 356.762 622.314 354.333C627.145 351.904 631.98 349.675 631.98 349.675Z" fill="#74B570"/>
<path d="M590.331 444.179H596.373C600.67 444.179 604.153 440.472 604.153 435.899V421.125H582.551V435.899C582.551 440.472 586.034 444.179 590.331 444.179Z" fill="#75A1DE"/>
<path d="M604.153 423.766V425.384H582.551V423.766H604.153Z" fill="white"/>
<path d="M604.153 426.717V427.669H582.551V426.717H604.153Z" fill="white"/>
<g opacity="0.5">
<path d="M475.463 131.629C476.71 130.515 477.911 129.317 479.057 128.031C479.662 127.352 480.241 126.657 480.799 125.951L476.604 117.848C478.596 114.824 480.123 111.562 481.188 108.168L489.742 107.063C490.333 104.436 490.707 101.763 490.863 99.0761L483.027 95.0575C482.944 91.4163 482.381 87.7802 481.342 84.2649L487.569 78.0054C486.604 75.5129 485.433 73.0883 484.057 70.7617L475.573 72.3704C474.354 70.6548 472.989 69.0199 471.473 67.489C470.44 66.4455 469.365 65.48 468.256 64.5874L469.771 55.5622C467.582 54.0946 465.303 52.8478 462.964 51.821L457.077 58.4435C453.767 57.334 450.349 56.7354 446.931 56.6473L443.156 48.3126C440.628 48.4792 438.114 48.8745 435.646 49.501L434.605 58.6019C431.406 59.7359 428.337 61.3589 425.5 63.4708L417.885 59.0057C416.639 60.1199 415.437 61.3168 414.291 62.6031C413.686 63.2818 413.107 63.9769 412.549 64.6837L416.744 72.7865C414.753 75.8102 413.225 79.0725 412.16 82.4666L403.606 83.5709C403.016 86.1982 402.641 88.8711 402.485 91.5583L410.321 95.5769C410.404 99.218 410.967 102.854 412.007 106.369L405.779 112.629C406.744 115.122 407.915 117.546 409.291 119.873L417.775 118.264C418.994 119.979 420.359 121.614 421.875 123.145C422.908 124.189 423.983 125.154 425.092 126.047L423.577 135.072C425.767 136.54 428.045 137.786 430.384 138.813L436.271 132.191C439.581 133.3 442.999 133.899 446.418 133.987L450.192 142.322C452.721 142.155 455.234 141.76 457.702 141.133L458.743 132.032C461.942 130.898 465.011 129.276 467.848 127.164L475.463 131.629ZM434.832 108.606C427.817 101.519 427.432 89.8252 433.973 82.4861C440.513 75.147 451.502 74.942 458.516 82.0286C465.531 89.1149 465.916 100.809 459.376 108.148C452.835 115.487 441.847 115.692 434.832 108.606Z" fill="#5D5FEF"/>
</g>
<path d="M120.348 215.525C114.323 214.88 116.65 210.542 109.682 211.794C106.019 212.451 108.679 214.176 103.954 213.307C99.2292 212.438 96.9091 211.761 96.2506 214.828C95.5921 217.895 95.284 218.856 92.9971 219.166C90.7102 219.476 89.6006 223.492 92.8509 226.542C96.1011 229.592 94.4715 230.612 93.694 232.848C92.9165 235.085 95.4081 235.448 96.7209 237.687C98.0336 239.926 95.4233 240.122 97.3384 242.124C99.2537 244.128 101.995 244.182 101.995 244.182L110.526 228.959L120.348 215.525Z" fill="#303C60"/>
<path d="M105.028 231.469L95.8976 256.457L106.646 264.549L113.258 242.857L105.028 231.469Z" fill="#A86B48"/>
<path d="M107.631 261.055L113.256 242.693L104.944 231.254L101.57 240.44C102.499 249.049 105.014 256.308 107.631 261.055Z" fill="#7A4E34"/>
<path d="M126.634 236.903C126.758 244.656 122.861 251.047 116.866 251.166C110.872 251.284 105.526 245.089 104.926 237.33C104.326 229.571 108.699 223.185 114.694 223.067C120.689 222.949 126.439 224.668 126.634 236.903Z" fill="#A86B48"/>
<path d="M107.48 232.134C108.391 234.761 107.634 237.342 105.789 237.898C103.944 238.454 101.711 236.776 100.8 234.149C99.8894 231.522 100.646 228.941 102.491 228.384C104.336 227.828 106.569 229.506 107.48 232.134Z" fill="#A86B48"/>
<path d="M127.104 216.736C129.978 215.766 133.214 214.74 132.124 219.531C131.649 221.617 132.093 221.053 132.812 223.071C133.53 225.088 130.834 226.414 129.947 227.433C129.06 228.451 131.161 229.801 129.405 230.969C127.649 232.136 125.403 230.166 123.782 230.522C118.94 231.584 119.611 227.825 116.923 226.819C114.235 225.812 112.908 225.829 112.36 227.528C111.812 229.228 114.104 235.145 112.06 234.438C110.016 233.731 109.461 238.316 108.857 240.882C108.252 243.448 106.93 238.924 107.081 235.946C107.312 231.379 106.219 229.365 104.567 227.951C102.916 226.536 102.433 214.83 110.553 215.04C118.672 215.249 118.739 214.467 122.215 214.006C125.69 213.545 125.794 217.178 127.104 216.736Z" fill="#303C60"/>
<path d="M89.7109 259.167C74.2353 268.584 52.7104 307.729 57.2544 314.118C61.7987 320.506 86.1937 303.708 86.1937 303.708L89.7109 259.167Z" fill="#FFD200"/>
<path d="M239.018 411.049C239.018 411.049 247.628 411.303 254.325 408.503C261.022 405.704 265.566 401.377 264.37 406.467C263.175 411.558 257.673 420.291 252.89 421.142C248.107 421.993 246.433 427.592 243.802 427.592C241.171 427.592 237.344 421.142 230.648 417.918C224.544 414.98 239.018 411.049 239.018 411.049Z" fill="#042578"/>
<path d="M171.166 410.19C171.166 410.19 174.787 415.504 181.089 419.201C187.597 423.018 195.107 424.857 190.451 426.583C185.795 428.309 178.987 429.652 172.347 427.6C167.689 426.16 162.229 425.859 160.787 423.517C159.345 421.176 162.485 415.295 161.178 406.506C160.132 399.465 171.166 410.19 171.166 410.19Z" fill="#042578"/>
<path d="M130.848 324.773C130.848 324.773 180.724 344.647 184.743 350.203C188.761 355.76 241.189 406.371 241.189 410.104C241.189 413.837 232.26 420.625 232.26 420.625C232.26 420.625 187.294 391.268 176.132 376.336C164.971 361.403 137.729 354.204 123.247 352.821C108.765 351.438 130.848 324.773 130.848 324.773Z" fill="#3E6BAB"/>
<path d="M132.761 324.773C132.761 324.773 166.884 323.416 174.219 324.773C181.554 326.131 197.643 326.115 187.119 357.721C178.871 382.494 176.149 413.858 176.149 413.858L159.749 418.145C159.749 418.145 160.399 361.748 168.225 346.731C162.526 347.731 152.065 349.681 137.568 354.093C110.674 362.278 95.9282 358.179 95.9282 358.179L91.9238 343.246L132.761 324.773Z" fill="#4476BD"/>
<path d="M91.9237 256.468C66.3309 274.861 82.2489 304.585 87.8687 326.305C92.6554 344.806 92.4994 355.986 93.2168 355.986C93.9343 355.986 111.535 353.186 121.581 343.514C131.626 333.842 138.417 324.474 138.417 324.474C138.417 324.474 125.547 322.035 121.341 304.318C119.206 295.323 120.177 290.44 115.309 276.187C110.442 261.933 91.9237 256.468 91.9237 256.468Z" fill="#FFD200"/>
<path d="M91.9238 256.468L94.6649 249.331C94.6649 249.331 103.355 255.44 106.823 258.324C110.291 261.209 112.431 261.888 112.431 261.888C112.431 261.888 113.684 272.119 112.87 271.191C102.613 259.492 91.9238 256.468 91.9238 256.468Z" fill="#FFD200"/>
<path d="M80.5815 431.384H82.8162L98.8405 360.236H93.9243L80.5815 431.384Z" fill="#042578"/>
<path d="M147.521 431.384H145.286L126.898 357.721H131.815L147.521 431.384Z" fill="#042578"/>
<path d="M105.474 362.901C96.5226 362.901 90.8515 361.19 87.2325 357.439C82.7461 352.788 81.8179 345.584 81.8045 336.197C81.7762 316.465 80.7508 312.384 75.5305 300.334C74.9514 298.998 75.5002 297.414 76.7565 296.798C78.0127 296.182 79.5006 296.766 80.0795 298.103C85.5974 310.839 86.784 315.521 86.8137 336.189C86.8273 345.702 87.9615 350.752 90.728 353.62C93.5659 356.562 98.6959 357.775 107.362 357.545C115.729 357.325 121.489 356.08 126.116 355.079C132.203 353.762 136.601 352.811 141.816 355.463C143.064 356.098 143.593 357.689 142.996 359.017C142.4 360.345 140.905 360.907 139.657 360.273C135.955 358.39 132.815 359.069 127.114 360.302C122.293 361.345 116.294 362.643 107.485 362.874C106.798 362.892 106.127 362.901 105.474 362.901Z" fill="#2E5B9A"/>
<path d="M216.058 314.07H179.757C178.374 314.07 177.252 312.876 177.252 311.404C177.252 309.932 178.374 308.739 179.757 308.739H214.46L228.456 276.683C229.039 275.348 230.529 274.769 231.783 275.389C233.037 276.009 233.582 277.594 232.999 278.929L218.329 312.527C217.919 313.468 217.033 314.07 216.058 314.07Z" fill="#3E6BAB"/>
<path d="M92.8716 283.249C92.8716 283.249 99.2497 303.951 107.143 312.52C115.036 321.089 130.92 323.968 135.894 323.632C131.929 321.936 124.378 317.108 121.342 304.318C119.206 295.323 120.177 290.44 115.31 276.187C111.696 265.606 100.563 259.87 95.064 257.615C101.927 262.861 110.508 271.5 113.145 278.073C116.072 285.37 92.8716 283.249 92.8716 283.249Z" fill="#FFD200"/>
<path d="M181.94 299.255C181.94 299.255 193.376 296.744 194.556 297.382C195.736 298.02 207.616 306.738 207.541 307.823C207.466 308.908 196.938 301.865 196.938 301.865C196.938 301.865 197.95 304.913 197.13 306.146C196.31 307.378 187.944 305.908 180.426 304.156C172.908 302.404 181.94 299.255 181.94 299.255Z" fill="#A86B48"/>
<path d="M93.2205 269.247C83.2633 290.875 118.461 310.734 139.223 311.695C159.985 312.657 184.552 304.656 184.552 304.656L181.697 297.913C181.697 297.913 140.084 294.314 139.023 293.592C137.962 292.87 96.8676 261.326 93.2205 269.247Z" fill="#FFD200"/>
<path d="M252.827 250.985C257.665 252.139 263.774 266.447 266.765 275.612C269.782 284.858 274.897 296.326 278.245 299.89C281.593 303.453 303.597 311.715 303.597 311.715C303.597 311.715 249.231 311.826 250.345 311.712C251.458 311.598 252.827 250.985 252.827 250.985Z" fill="#A8CEFF"/>
<path d="M281.69 307.118C278.713 306.666 267.977 308.136 272.548 306.1C277.119 304.064 276.481 301.462 276.481 301.462C276.481 301.462 269.997 307.231 268.827 302.186C267.819 297.836 267.433 282.478 263.607 267.084C260.445 259.451 256.308 251.815 252.827 250.985C252.827 250.985 252.705 256.405 252.503 264.005C253.838 280.823 256.105 305.531 256.679 311.759C263.885 311.771 275.946 311.759 286.035 311.745L292.745 311.404C292.745 311.404 284.666 307.571 281.69 307.118Z" fill="#93BBF0"/>
<path d="M235.039 247.815C235.039 247.815 219.649 256.966 216.061 258.912C212.474 260.859 226.112 317.983 229.145 320.431C232.179 322.879 258.882 320.853 261.923 317.768C264.963 314.684 259.59 305.218 262.221 286.264C264.852 267.311 254.196 250.948 252.827 250.985C251.458 251.022 242.524 247.815 242.524 247.815H235.039Z" fill="#A8CEFF"/>
<path d="M229.146 320.431C232.179 322.879 251.288 322.934 259.421 320.241C260.34 319.937 264.508 318.169 264.605 316.508C263.624 316.311 259.726 316.81 258.144 316.423C252.643 315.078 249.613 307.825 249.613 307.825C249.613 307.825 246.584 306.666 239.807 303.611C233.03 300.557 235.821 291.309 235.661 287.236C235.502 283.164 228.964 269.843 216.686 259.747L215.56 260.283C214.684 269.567 226.34 318.167 229.146 320.431Z" fill="#93BBF0"/>
<path d="M334.882 275.613H297.824L280.946 313.835H321.766L337.044 279.236C337.788 277.55 336.632 275.613 334.882 275.613Z" fill="#75A1DE"/>
<path d="M283.154 314.378H260.855C259.472 314.378 258.351 313.184 258.351 311.712C258.351 310.24 259.472 309.047 260.855 309.047H281.556L295.553 276.991C296.136 275.656 297.625 275.077 298.88 275.697C300.134 276.317 300.678 277.902 300.096 279.237L285.426 312.836C285.015 313.776 284.129 314.378 283.154 314.378Z" fill="#3E6BAB"/>
<path d="M240.677 225.894L234.705 249.119C234.705 249.119 244.796 265.882 247.571 264.393C250.345 262.904 246.02 250.768 246.02 249.119C246.02 247.47 250.345 230.454 250.345 230.454L240.677 225.894Z" fill="#F09959"/>
<path d="M246.226 250.303C246.098 249.753 246.019 249.341 246.019 249.119C246.019 247.47 250.344 230.454 250.344 230.454L240.676 225.894L238.7 233.579C240.426 241.519 243.54 246.806 246.226 250.303Z" fill="#E38540"/>
<path d="M267.059 221.697C270.749 230.91 266.154 239.292 257.047 240.37C247.882 241.455 238.389 237.139 234.699 227.926C231.009 218.713 235.261 209.85 244.197 208.13C253.133 206.411 263.369 212.485 267.059 221.697Z" fill="#303C60"/>
<path d="M241.845 239.546C240.772 239.25 238.686 238.338 236.177 235.542C234.118 233.248 232.759 230.228 232.351 227.038C231.836 223.011 232.767 218.803 235.118 214.531C235.228 214.332 235.521 214.292 235.775 214.441C236.029 214.591 236.145 214.873 236.036 215.072C233.755 219.216 232.849 223.279 233.344 227.147C233.727 230.141 234.988 232.959 236.894 235.084C240.076 238.63 242.404 238.788 242.428 238.789C242.697 238.803 242.959 239.013 243.011 239.259C243.063 239.506 242.891 239.698 242.623 239.69C242.588 239.688 242.313 239.676 241.845 239.546Z" fill="#303C60"/>
<path d="M265.988 230.617C266.613 237.044 265.035 244.972 258.851 245.526C252.667 246.08 245.836 240.303 243.593 232.623C241.35 224.943 244.546 218.268 250.73 217.714C256.914 217.16 265.241 222.938 265.988 230.617Z" fill="#F09959"/>
<path d="M246.241 230.197C246.875 232.552 245.935 234.561 244.141 234.684C242.347 234.807 240.378 232.997 239.743 230.642C239.109 228.287 240.049 226.278 241.843 226.155C243.637 226.032 245.606 227.842 246.241 230.197Z" fill="#F09959"/>
<path d="M267.037 222.517C263.717 235.741 245.248 229.376 245.248 229.376C245.248 229.376 241.846 223.911 239.884 225.853C237.922 227.796 243.646 212.545 254.393 214.67C257.924 215.369 267.037 222.517 267.037 222.517Z" fill="#303C60"/>
<path d="M250.157 212.18C249.694 216.974 244.735 219.709 239.08 218.289C233.425 216.869 229.216 211.831 229.679 207.037C230.141 202.242 235.1 199.507 240.755 200.928C246.41 202.348 250.619 207.386 250.157 212.18Z" fill="#303C60"/>
<path d="M244.484 306.213C254.157 308.137 256.536 310.5 261.81 311.404C267.787 312.43 267.076 313.835 262.637 313.835C258.197 313.835 247.04 314.019 243.211 313.114C239.382 312.209 244.484 306.213 244.484 306.213Z" fill="#F09959"/>
<path d="M214.853 259.984C207.439 285.211 196.928 313.835 198.603 313.835C200.277 313.835 242.848 315.667 244.522 314.141C246.197 312.616 245.719 306.762 245.479 305.998C245.24 305.235 221.277 300.709 221.277 300.709C221.277 300.709 224.433 294.165 225.628 281.374C226.824 268.584 216.259 255.2 214.853 259.984Z" fill="#A8CEFF"/>
<path d="M288.301 318.389C299.928 316.356 303.882 316.882 311.047 330.733C318.211 344.584 327.769 369.572 333.229 372.737C341.451 377.502 344.209 389.445 347.576 388.856C350.944 388.267 353.118 389.803 349.462 393.068C345.806 396.333 339.894 399.155 337.868 398.616C335.841 398.076 334.241 388.884 328.943 385.971C323.645 383.057 325.226 380.575 325.565 377.923C325.903 375.271 310.08 363.321 298.134 348.343C290.834 339.191 287.07 333.134 286.497 327.602C285.924 322.071 288.301 318.389 288.301 318.389Z" fill="#F09959"/>
<path d="M317.34 368.382C314.612 361.191 311.86 349.297 309.274 338.393C305.597 322.887 301.783 319.249 299.369 317.625C296.455 316.9 293.006 317.303 288.303 318.126C288.303 318.126 285.923 321.813 286.497 327.353C287.07 332.894 290.839 338.959 298.147 348.126C304.445 356.024 311.819 363.081 317.34 368.382Z" fill="#E38540"/>
<path d="M325.605 378.18C324.687 382.144 324.809 385.062 326.43 386.501C328.052 387.939 334.197 398.721 334.197 398.721L336.099 398.388L331.66 388.506L325.605 378.18Z" fill="#042578"/>
<path d="M337.887 398.916C339.911 399.454 345.814 396.642 349.465 393.388C353.115 390.135 350.945 388.604 347.582 389.191C347.393 389.224 347.205 389.214 347.018 389.17C345.35 393.141 339.833 396.184 338.036 392.041C336.255 387.937 328.655 379.827 325.598 378.112C325.606 378.177 325.608 378.239 325.601 378.296C325.263 380.938 323.684 383.412 328.975 386.315C334.265 389.218 335.863 398.378 337.887 398.916Z" fill="#042578"/>
<path d="M215.513 428.669H217.748L232.177 357.521H227.261L215.513 428.669Z" fill="#042578"/>
<path d="M284.988 428.669H282.753L265.96 355.006H270.876L284.988 428.669Z" fill="#042578"/>
<path d="M241.009 360.186C232.058 360.186 226.387 358.475 222.768 354.724C218.281 350.073 217.353 342.868 217.34 333.482C217.329 326.095 217.164 321.284 216.788 317.395C216.646 315.931 217.647 314.621 219.023 314.471C220.399 314.32 221.629 315.385 221.771 316.849C222.165 320.926 222.338 325.898 222.349 333.474C222.363 342.987 223.497 348.037 226.263 350.905C229.101 353.847 234.233 355.061 242.897 354.83C251.264 354.61 257.024 353.365 261.652 352.364C267.738 351.047 272.136 350.096 277.352 352.748C278.6 353.383 279.128 354.974 278.532 356.302C277.935 357.63 276.44 358.193 275.192 357.558C271.49 355.675 268.35 356.355 262.649 357.587C257.829 358.63 251.829 359.928 243.021 360.159C242.333 360.177 241.662 360.186 241.009 360.186Z" fill="#2E5B9A"/>
<path d="M220.673 314.141L234.375 314.748L230.727 355.008C230.727 355.008 220.513 348.07 220.673 340.603C220.832 333.137 220.673 314.141 220.673 314.141Z" fill="#042578"/>
<path d="M291.842 330.253C291.842 330.253 288.759 355.006 285.888 357.522C283.835 359.321 282.38 359.441 280.945 352.059C279.51 344.676 283.178 317.122 283.178 317.122L291.842 330.253Z" fill="#042578"/>
<path d="M289.386 343.647L260.855 348.748L276.962 324.17L289.221 321.513L296.572 323.312L289.386 343.647Z" fill="#F09959"/>
<path d="M230.08 318.883C219.957 338.215 226.872 350.502 239.175 351.753C251.478 353.005 270.9 350.615 282.221 340.603C293.542 330.592 302.836 320.006 301.537 318.426C300.239 316.847 230.08 318.883 230.08 318.883Z" fill="#E38540"/>
<path d="M287.483 333.307C289.556 326.689 291.946 321.612 296.572 321.519C301.436 321.423 304.429 324.116 304.636 332.585C304.884 342.669 305.218 376.067 304.78 390.916C304.449 402.157 307.527 405.757 307.267 417.475C307.071 426.301 315.913 421.843 312.498 426.42C310.149 429.567 303.158 428.538 298.863 427.957C295.037 427.439 300.844 415.236 295.548 411.973C291.004 409.173 290.915 404.627 293.785 401.187C296.655 397.746 294.104 387.564 292.19 380.437C290.277 373.31 287.309 365.6 285.36 348.749C284.804 343.945 286.217 337.349 287.483 333.307Z" fill="#F09959"/>
<path d="M309.472 422.817C308.007 423.293 306.201 423.817 304.628 423.873C301.439 423.986 300.482 420.253 300.269 415.182C300.084 410.753 297.061 403.78 293.962 400.953C293.905 401.033 293.847 401.112 293.785 401.186C290.915 404.627 291.004 409.173 295.548 411.973C300.844 415.236 295.037 427.439 298.863 427.957C303.158 428.538 310.149 429.567 312.498 426.42C314.717 423.445 311.962 423.209 309.472 422.817Z" fill="#042578"/>
<path d="M294.502 399.925C294.502 399.925 289.852 405.094 290.277 407.243C290.702 409.393 292.136 414.823 292.376 419.009C292.616 423.194 292.828 427.999 292.828 427.999C292.828 427.999 294.502 427.999 294.635 427.493C294.768 426.987 295.698 410.48 295.698 410.48L294.502 399.925Z" fill="#042578"/>
<path d="M225.205 317.122C225.205 317.122 219.201 344.238 226.786 351.754C234.372 359.269 265.872 352.509 273.292 352.059C278.315 351.754 283.178 358.278 283.178 358.278C283.178 358.278 279.67 343.149 282.062 330.931C284.454 318.714 288.313 317.892 288.313 317.892L283.178 317.122H225.205Z" fill="#75A1DE"/>
<path d="M223.845 310.032C226.413 315.829 221.082 325.841 222.95 328.725C224.818 331.61 235.515 329.129 242.524 323.126C249.534 317.122 262.8 315.802 262.8 315.802L223.845 310.032Z" fill="#A8CEFF"/>
<path d="M234.704 359.439C255.912 360.287 278.235 359.887 278.235 356.524C278.235 353.161 277.278 350.785 260.855 352.142C244.431 353.5 233.269 355.367 228.326 354.179C223.383 352.991 234.704 359.439 234.704 359.439Z" fill="#042578"/>
<path d="M371.65 144.073C383.953 129.494 406.575 124.663 407.5 142.432C408.425 160.201 410.14 161.504 416.317 169.542C437.751 197.433 396.213 204.87 379.036 209.815C361.859 214.76 360.911 184.475 362.645 167.181C364.378 149.886 368.05 148.339 371.65 144.073Z" fill="#303C60"/>
<path d="M338.378 195.914C338.378 195.914 338.633 186.741 337.498 184.081C336.363 181.421 327.486 180.228 327.486 180.228C327.486 180.228 327.647 193.261 328.604 194.726C329.561 196.19 334.965 199.974 334.965 199.974L338.378 195.914Z" fill="#F09959"/>
<path d="M385.558 185.882C367.018 208.688 361.047 218.022 359.575 218.233C354.647 211.1 338.675 196.809 338.675 196.809L332.328 201.765C332.328 201.765 348.97 237.36 358.555 236.376C368.14 235.392 387.025 219.188 387.207 217.613C387.389 216.037 385.558 185.882 385.558 185.882Z" fill="#FFD200"/>
<path d="M366.267 235.161C375.987 229.893 386.97 220.201 387.112 218.976C387.301 217.334 385.392 185.888 385.392 185.888C381.179 191.067 377.504 195.651 374.316 199.656C371.241 213.112 372.069 227.169 366.267 235.161Z" fill="#FFD200"/>
<path d="M333.238 188.813L312.208 195.88L308.962 183.432L329.992 176.365L333.238 188.813Z" fill="#FFD200"/>
<path d="M333.219 195.424C333.291 189.742 330.029 182.462 328.342 182.709C326.655 182.956 329.076 187.676 328.309 191.139C327.893 193.015 333.219 195.424 333.219 195.424Z" fill="#F09959"/>
<path d="M381.947 246.973C377.97 282.513 370.745 308.785 369.94 325.633C369.135 342.481 365.915 408.819 365.915 408.819C365.915 408.819 374.77 408.16 375.575 406.733C376.38 405.305 392.212 367.896 391.407 344.765C390.602 321.635 407.219 286.465 407.219 286.465L403.213 251.958L381.947 246.973Z" fill="#4476BD"/>
<path d="M385.766 262.446L379.547 265.215C377.857 276.484 375.981 286.617 374.334 295.604C384.231 302.413 389.343 325.098 391.534 338.967C392.65 323.448 399.531 304.695 403.8 294.325L385.766 262.446Z" fill="#3E6BAB"/>
<path d="M414.484 243.391C414.484 243.391 427.888 261.585 427.467 282.227C426.828 313.65 423.608 322.621 429.21 355.569C431.398 368.438 424.381 410.533 424.381 410.533C424.381 410.533 418.385 411.033 415.165 409.327C415.433 406.234 411.291 355.92 403.221 332.791C399.314 321.591 393.822 290.223 390.87 272.233C387.919 254.242 387.382 250.53 388.455 250.53C389.529 250.53 414.484 243.391 414.484 243.391Z" fill="#4476BD"/>
<path d="M403.537 171.791C403.537 171.791 421.568 181.409 425.503 198.434C429.439 215.46 417.794 236.494 416.362 247.72C414.931 258.945 382.015 260.919 382.015 248.904C382.015 237.384 373.768 212.933 374.233 206.704C375.326 192.09 395.4 174.188 395.4 174.188L403.537 171.791Z" fill="#FFD200"/>
<path d="M398.298 149.734L406.039 175.137C406.039 175.137 397.774 181.925 383.628 198.254C384.177 187.388 392.731 175.543 392.731 175.543L386.876 151.554L398.298 149.734Z" fill="#F09959"/>
<path d="M380.576 237.514C383.083 254.417 373.776 290.581 373.776 290.581C373.776 290.581 379.326 291.923 395.964 290.21C412.602 288.496 419.936 270.825 422.441 270.332C424.946 269.838 426.232 286.777 427.467 288.115C428.703 289.454 428.891 266.725 425.661 257.79C419.936 241.951 421.057 235.233 423.197 225.637C427.002 208.573 380.576 237.514 380.576 237.514Z" fill="#FFD200"/>
<path d="M366.319 400.499C367.817 406.979 364.859 412.118 360.899 415.863C357.679 418.91 347.78 420.204 348.257 421.727C348.734 423.25 360.422 423.733 364.358 423.098C368.294 422.463 369.367 420.433 374.266 420.435C377.477 420.437 378.074 417.657 376.642 414.222C375.211 410.787 374.711 408.887 376.004 405.808C377.297 402.728 366.319 400.499 366.319 400.499Z" fill="#4476BD"/>
<path d="M424.725 400.5C424.486 407.226 423.753 412.238 425.303 415.356C431.291 420.687 436.269 426.742 434.367 427.16C425.303 429.152 421.844 423.37 416.716 421.727C410.422 419.711 417.312 411.294 414.846 400.5C413.475 394.498 424.349 395.937 424.349 395.937L424.725 400.5Z" fill="#4476BD"/>
<path d="M427.014 263.305C426.653 261.196 426.206 259.297 425.661 257.79C419.937 241.952 421.057 235.233 423.197 225.637C423.366 224.88 423.434 224.216 423.414 223.634C423.897 221.922 424.347 220.188 424.742 218.443L422.799 199.777L408.789 182.071C398.29 198.444 405.376 218.816 403.8 230.048C402.225 241.281 384.632 255.603 384.632 255.603L385.205 259.589C385.99 265.056 390.752 268.853 395.9 268.093C403.151 267.022 412.663 264.87 416.895 260.69C420.991 256.645 424.618 259.775 427.014 263.305Z" fill="#FFD200"/>
<path d="M385.518 254.376C385.518 254.376 377.536 255.798 376.576 256.198C375.616 256.597 375.025 259.143 375.025 259.143C375.025 259.143 370.388 262.605 372.091 264.158C373.793 265.712 376.807 269.518 380.952 268.291C383.497 267.538 385.684 258.552 387.337 258.641C388.991 258.729 385.518 254.376 385.518 254.376Z" fill="#F09959"/>
<path d="M410.116 181.121C418.721 182.211 426.133 198.435 428.513 212.112C430.892 225.788 433.269 245.133 433.269 245.133C433.269 245.133 418.713 254.953 404.529 256.846C392.157 258.498 385.849 259 385.849 259L383.531 251.756L413.4 237.424C413.4 237.424 403.097 216.043 402.412 200.607C401.727 185.172 403.577 180.293 410.116 181.121Z" fill="#FFD200"/>
<path d="M400.6 160.161L395.793 149.931L383.526 154.411L391.678 175.477C391.678 175.477 391.13 176.525 390.328 178.159C395.993 172.734 399.262 166.829 400.6 160.161Z" fill="#E38540"/>
<path d="M391.741 154.576C390.118 162.484 381.878 168.495 375.671 168.326C369.463 168.158 367.639 161.875 369.262 153.966C370.885 146.057 377.233 139.782 383.44 139.951C389.648 140.119 393.364 146.667 391.741 154.576Z" fill="#F09959"/>
<path d="M369.932 147.482C371.567 161.836 389.84 156.591 394.8 154.566C399.759 152.541 391.102 186.459 400.828 186.113C407.971 185.858 405.58 176.088 413.451 175.005C416.933 174.525 420.8 178.661 420.8 178.661C420.8 178.661 420.039 175.748 417.224 174.155C414.409 172.562 406.418 160.699 403.834 151.505C401.251 142.312 388.432 138.876 384.769 139.506C381.107 140.135 372.482 145.965 372.482 145.965L369.932 147.482Z" fill="#303C60"/>
<path d="M400.923 191.426C400.651 191.493 400.373 191.537 400.087 191.554C396.676 191.764 394.824 189.103 394.256 183.182C393.77 178.106 394.273 171.314 394.806 164.123C395.021 161.218 395.244 158.214 395.397 155.32C395.41 155.073 395.644 154.838 395.926 154.796C396.205 154.754 396.42 154.921 396.407 155.168C396.253 158.07 396.03 161.079 395.815 163.988C394.784 177.901 393.81 191.042 400.235 190.648C400.435 190.636 400.633 190.605 400.829 190.557C404.471 189.659 407.308 182.705 408.789 176.248C408.847 175.997 409.115 175.792 409.388 175.79C409.661 175.789 409.836 175.99 409.778 176.241C408.801 180.503 406.041 190.163 400.923 191.426Z" fill="#303C60"/>
<path d="M399.817 195.229C398.694 195.514 397.687 195.381 396.818 194.834C389.651 190.324 394.1 157.463 394.293 156.066C394.327 155.819 394.576 155.6 394.845 155.576C395.117 155.553 395.309 155.734 395.275 155.981C395.228 156.318 390.693 189.78 397.493 194.059C398.284 194.556 399.182 194.608 400.238 194.215C403.703 192.927 405.428 188.275 406.949 184.17C408.424 180.188 409.811 176.43 412.71 175.786C412.983 175.725 413.211 175.871 413.218 176.111C413.225 176.352 413.01 176.602 412.736 176.657C412.712 176.662 412.688 176.668 412.665 176.674C410.496 177.223 409.226 180.651 407.882 184.278C406.272 188.621 404.448 193.544 400.428 195.038C400.221 195.115 400.017 195.178 399.817 195.229Z" fill="#303C60"/>
<path d="M395.404 156.499C394.235 158.318 392.256 159.317 390.983 158.729C389.711 158.141 389.627 156.189 390.796 154.369C391.965 152.55 393.944 151.551 395.216 152.139C396.489 152.727 396.573 154.679 395.404 156.499Z" fill="#F09959"/>
<path d="M398.269 390.916C398.269 390.916 381.048 421.121 377.859 423.836C374.67 426.551 364.146 430.623 372.756 431.302C381.367 431.981 385.513 428.248 390.934 426.551C396.355 424.854 403.053 423.836 400.501 419.424C397.95 415.012 399.01 405.38 404.51 399.272C410.009 393.163 398.269 390.916 398.269 390.916Z" fill="#F09959"/>
<path d="M486.149 320.875C486.149 320.875 443.518 319.689 426.616 334.45C416.73 350.401 392.814 397.465 390.955 402.651C392.231 404.008 399.406 406.458 402.595 406.118C412.003 394.181 424.438 383.861 429.383 374.497C435.478 362.958 437.356 357.189 447.242 356.17C457.128 355.152 479.451 351.759 486.149 351.759C492.846 351.759 486.149 320.875 486.149 320.875Z" fill="#6791C9"/>
<path d="M399.44 416.373C388.013 422.32 381.863 425.729 378.2 425.404C377.335 425.327 376.618 425.233 376.017 425.133C371.942 427.697 365.438 430.725 372.756 431.302C381.367 431.981 385.513 428.248 390.934 426.551C396.356 424.854 403.053 423.836 400.501 419.424C400.013 418.579 399.658 417.54 399.44 416.373Z" fill="#FFD200"/>
<path d="M469.57 380.86C469.57 380.86 483.737 404.276 485.651 405.294C487.564 406.312 492.347 406.567 490.554 410.385C488.76 414.203 488.042 429.219 486.368 429.983C484.694 430.746 470.344 432.528 472.496 429.983C474.649 427.438 475.973 428.71 477.059 424.129C478.145 419.547 479.671 410.894 477.638 409.112C475.606 407.33 463.169 391.296 463.169 391.296L469.57 380.86Z" fill="#F09959"/>
<path d="M523.325 431.384H521.09L505.066 360.236H509.982L523.325 431.384Z" fill="#042578"/>
<path d="M456.385 431.384H458.619L477.007 357.721H472.091L456.385 431.384Z" fill="#042578"/>
<path d="M510.436 317.768L485.651 322.321C485.651 322.321 452.715 322.642 437.66 325.627C423.963 328.342 421.944 344.904 437.66 367.71C446.587 380.665 454.135 390.999 469.571 402.651C473.497 399.583 475 398.423 476.085 391.041C474.967 389.411 472.076 379.209 471.178 377.212C462.64 358.219 451.245 351.313 451.087 349.444C453 346.136 501.769 366.692 511.466 354.599C520.723 343.055 510.436 317.768 510.436 317.768Z" fill="#75A1DE"/>
<path d="M511.466 258.055C504.938 257.08 498.29 258.4 492.072 263.191C486.639 269.084 480.491 278.804 480.868 294.837C481.346 315.198 477.907 316.506 481.495 322.106C496.457 328.681 522.048 356.933 516.022 326.645C511.658 304.714 525.592 288.367 514.351 264.04C513.437 262.06 512.293 260.14 511.466 258.055Z" fill="#FFD200"/>
<path d="M480.863 302.499C480.572 313.115 479.164 316.242 480.241 319.57C486.341 320.232 497.499 322.83 500.287 326.984C503.476 331.735 506.665 332.414 505.177 328.907C503.689 325.4 499.756 320.423 505.815 303.341C511.874 286.259 514.745 274.72 508.792 262.842L480.863 302.499Z" fill="#FFD200"/>
<path d="M511.466 258.055C507.446 247.929 506.459 236.552 506.459 236.552L495.936 239.86C495.936 239.86 501.915 254.113 496.175 259.204C494.955 260.286 493.539 261.6 492.072 263.191C498.29 258.401 504.938 257.08 511.466 258.055Z" fill="#F09959"/>
<path d="M506.776 239.248C506.152 238.658 505.372 237.921 504.553 237.151L495.969 239.85C495.963 239.866 495.957 239.883 495.951 239.899C496.159 240.404 498.345 245.833 498.633 251.055C501.191 249.404 503.991 246.711 507.193 242.007C507.02 240.963 506.882 240.033 506.776 239.248Z" fill="#E38540"/>
<path d="M498.487 362.902C497.815 362.902 497.127 362.893 496.42 362.875C487.611 362.643 481.612 361.345 476.791 360.303C471.091 359.07 467.951 358.391 464.249 360.273C463.001 360.907 461.506 360.345 460.909 359.017C460.313 357.689 460.841 356.098 462.089 355.463C467.304 352.811 471.702 353.762 477.789 355.079C482.417 356.08 488.177 357.326 496.544 357.545C505.966 357.794 511.73 356.29 514.675 352.815C517.305 349.711 518.079 344.538 517.112 336.533C516.785 333.822 516.457 331.568 516.168 329.579C515.357 323.999 514.822 320.313 515.483 314.629C516.1 309.332 517.752 302.263 521.578 288.551C521.971 287.14 523.366 286.336 524.692 286.754C526.018 287.173 526.774 288.657 526.38 290.068C519.223 315.718 519.587 318.223 521.119 328.765C521.412 330.785 521.745 333.075 522.081 335.853C523.248 345.516 522.077 352.04 518.395 356.385C514.6 360.862 508.414 362.902 498.487 362.902Z" fill="#042578"/>
<path d="M486.897 405.791C486.617 415.419 485.374 424.959 479.841 426.762C478.374 427.239 477.037 427.308 475.854 427.14C474.984 428.285 473.922 428.298 472.497 429.983C470.344 432.528 484.694 430.746 486.369 429.983C488.043 429.219 488.76 414.203 490.554 410.385C492.028 407.249 489.063 406.517 486.897 405.791Z" fill="#FFD200"/>
<path d="M442.883 314.378H406.583C405.608 314.378 404.722 313.776 404.311 312.836L389.642 279.237C389.059 277.902 389.603 276.317 390.858 275.697C392.112 275.077 393.601 275.656 394.184 276.991L408.181 309.047H442.883C444.267 309.047 445.388 310.24 445.388 311.712C445.388 313.185 444.267 314.378 442.883 314.378Z" fill="#75A1DE"/>
<path d="M510.386 248.814L511.465 258.055C511.465 258.055 501.974 258.656 497.251 261.484C492.528 264.312 485.557 272.484 485.557 272.484L491.252 262.05L492.072 255.375L510.386 248.814Z" fill="#042578"/>
<path d="M504.07 261.241C493.231 265.277 494.434 277.425 484.459 295.344C479.297 304.618 474.502 304.481 474.502 304.481C474.502 304.481 462.394 304.587 447.749 302.686C438.579 301.495 437.997 304.4 444.375 306.824C457.239 311.714 470.588 316.977 481.351 315.702C492.114 314.427 510.522 285.206 511.47 277.6C512.782 267.082 509.529 259.209 504.07 261.241Z" fill="#F09959"/>
<path d="M450.482 303.021C443.147 302.91 435.872 298.261 432.258 298.941C428.644 299.62 416.844 308.329 418.333 308.667C419.821 309.006 429.175 303.847 429.494 303.768C429.813 303.69 431.833 307.339 436.83 308.679C441.826 310.018 436.865 304.696 452.352 309.667C462.423 312.899 450.482 303.021 450.482 303.021Z" fill="#F09959"/>
<path d="M506.35 260.128C499.3 258.724 496.039 265.446 491.468 276.419C486.897 287.391 479.094 300.718 477.543 302.436C475.991 304.154 451.391 302.443 451.391 302.443C451.391 302.443 450.647 310.021 451.391 310.926C452.135 311.83 456.388 311.716 456.388 311.716C456.388 311.716 458.089 313.161 459.683 314.304C461.278 315.447 474.779 317.593 481.052 317.252C487.324 316.911 493.065 316.344 493.915 315.326C494.766 314.308 511.88 286.253 512.942 276.187C514.005 266.12 509.949 260.844 506.35 260.128Z" fill="#042578"/>
<path d="M500.204 231.147C502.688 238.072 497.792 246.378 492.088 248.857C486.385 251.336 482.034 247.048 479.549 240.122C477.065 233.197 479.674 225.574 485.378 223.095C491.081 220.617 497.72 224.221 500.204 231.147Z" fill="#F09959"/>
<path d="M483.46 217.246C469.748 220.009 472.826 239.357 472.826 239.357C472.826 239.357 476.444 239.851 483.866 237.515C483.192 235.492 483.186 230.055 483.186 230.055C483.186 230.055 484.26 234.301 485.488 236.79C487.101 237.234 488.86 236.344 491.868 235.172C493.722 241.184 498.258 243.14 501.32 243.575C504.705 244.055 508.293 244.697 512.149 242.206C516.005 239.716 512.937 220.859 510.662 217.325C507.246 212.021 501.778 207.647 492.868 211.791C488.4 213.869 483.46 217.246 483.46 217.246Z" fill="#303C60"/>
<path d="M508.318 243.062L514.377 250.139C514.377 250.139 508.774 266.239 527.43 270.206C542.041 273.313 540.788 283.025 534.74 293.544C528.692 304.063 539.45 310.73 539.45 310.73C539.45 310.73 540.543 299.958 554.404 295.781C573.304 290.086 577.553 264.739 562.773 254.719C550.542 246.427 547.355 255.384 538.972 247.537C530.589 239.689 515.848 248.193 515.848 248.193L509.982 241.354L508.318 243.062Z" fill="#303C60"/>
<path d="M569.397 275.666C569.324 275.68 569.25 275.678 569.179 275.657C568.957 275.591 568.867 275.36 568.978 275.142C573.406 266.465 569.149 257.755 567.097 255.565C566.881 255.333 566.675 255.096 566.456 254.845C564.433 252.521 561.914 249.628 549.132 249.955C546.07 250.034 543.537 248.87 540.854 247.637C535.292 245.081 528.986 242.185 515.872 250.198C515.65 250.334 515.379 250.295 515.267 250.112C515.155 249.928 515.244 249.67 515.466 249.534C529.054 241.232 535.592 244.236 541.36 246.886C543.954 248.077 546.404 249.203 549.259 249.13C562.43 248.793 565.073 251.828 567.196 254.267C567.411 254.514 567.613 254.746 567.822 254.969C569.058 256.289 570.638 259.208 571.38 262.751C572.024 265.824 572.27 270.511 569.784 275.382C569.708 275.531 569.556 275.636 569.397 275.666Z" fill="#303C60"/>
<path d="M505.875 246.113C504.972 246.285 503.992 246.401 502.934 246.458C498.08 246.724 491.504 245.473 490.435 231.597C490.417 231.372 490.606 231.145 490.855 231.09C491.112 231.031 491.321 231.172 491.338 231.397C491.781 237.141 493.221 241.18 495.618 243.402C497.443 245.093 499.8 245.799 503.035 245.622C507.567 245.373 510.525 244.046 511.829 241.676C511.95 241.457 512.225 241.341 512.444 241.416C512.663 241.491 512.743 241.73 512.623 241.949C511.447 244.087 509.182 245.482 505.875 246.113Z" fill="#303C60"/>
<path d="M460.859 319.979H162.058C160.782 319.979 159.749 318.879 159.749 317.522V316.293C159.749 314.936 160.782 313.835 162.058 313.835H460.859C462.135 313.835 463.169 314.936 463.169 316.293V317.522C463.169 318.879 462.135 319.979 460.859 319.979Z" fill="#042578"/>
</svg>
