<svg width="569" height="608" viewBox="0 0 569 608" fill="none" xmlns="http://www.w3.org/2000/svg">
<path d="M27.4564 377.092C-22.9205 476.495 63.0337 535.652 141.698 553.871C220.36 572.095 513.62 574.603 560.539 373.581C584.727 269.953 559.003 89.0816 453.766 80.4524C348.533 71.8185 318.748 242.386 245.634 271.524C172.523 300.663 65.2627 302.493 27.4564 377.092Z" fill="#5D5FEF"/>
<path d="M14.0571 375.912C12.5349 375.329 11.7397 373.595 12.3889 372.083C13.0791 370.591 14.8613 369.905 16.3692 370.553C17.8772 371.2 18.5615 372.889 17.8962 374.324C17.2731 375.775 15.6031 376.503 14.0571 375.912Z" fill="#1A1A5E"/>
<path d="M9.72959 387.985C8.14981 387.527 7.27208 385.882 7.77059 384.31C8.26672 382.738 9.93078 381.896 11.5123 382.436C13.0417 382.958 13.92 384.604 13.4482 386.102C12.9752 387.599 11.31 388.442 9.72959 387.985Z" fill="#1A1A5E"/>
<path d="M6.45434 400.368C4.83657 400.061 3.83778 398.511 4.2265 396.906C4.61403 395.301 6.22527 394.318 7.82405 394.708C9.42223 395.099 10.4204 396.649 10.0519 398.17C9.68335 399.691 8.07211 400.675 6.45434 400.368Z" fill="#1A1A5E"/>
<path d="M4.66592 413.034C3.02264 412.905 1.8102 411.462 1.95916 409.812C2.06123 408.157 3.70215 407.032 5.30567 407.255C6.96558 407.486 7.9798 408.908 7.89019 410.463C7.7531 412.013 6.30921 413.164 4.66592 413.034Z" fill="#1A1A5E"/>
<path d="M4.27125 425.81C2.5971 425.876 1.209 424.585 1.25707 422.926C1.27428 421.267 2.62559 419.956 4.27303 419.997C5.92047 420.038 7.24388 421.33 7.22608 422.883C7.17682 424.436 5.89139 425.745 4.27125 425.81Z" fill="#1A1A5E"/>
<path d="M5.61542 438.526C3.99172 438.801 2.47306 437.691 2.22618 436.044C1.9793 434.398 3.11162 432.934 4.75075 432.773C6.39107 432.611 7.90914 433.722 8.14059 435.255C8.37085 436.786 7.23913 438.252 5.61542 438.526Z" fill="#1A1A5E"/>
<path d="M8.67135 450.953C7.09987 451.437 5.41504 450.54 4.91 448.952C4.41684 447.359 5.49041 445.721 7.06782 445.356C8.69687 444.977 10.2007 445.921 10.663 447.402C11.1354 448.879 10.2428 450.47 8.67135 450.953Z" fill="#1A1A5E"/>
<path d="M13.3611 462.887C11.9006 463.552 9.98371 462.938 9.38906 461.378C8.76 459.833 9.49826 458.11 11.0365 457.534C12.5748 456.958 14.2964 457.658 14.8803 459.099C15.4293 460.556 14.8869 462.195 13.3611 462.887Z" fill="#1A1A5E"/>
<path d="M19.5638 474.157C18.146 475.024 16.3431 474.543 15.4897 473.107C14.6428 471.668 15.1319 469.883 16.5811 469.119C18.0309 468.355 19.8504 468.828 20.6439 470.175C21.4415 471.521 20.9359 473.316 19.5638 474.157Z" fill="#1A1A5E"/>
<path d="M27.1605 484.589C25.8733 485.59 23.9932 485.337 22.963 484.024C21.9345 482.708 22.1873 480.894 23.5398 479.964C24.8786 479.042 26.7641 479.292 27.7338 480.531C28.7059 481.77 28.4483 483.587 27.1605 484.589Z" fill="#1A1A5E"/>
<path d="M35.8497 494.175C34.6722 495.298 32.7631 495.25 31.5857 494.066C30.3875 492.902 30.5554 490.969 31.7732 489.927C33.0301 488.848 34.8147 489.004 35.9553 490.108C37.074 491.231 37.0265 493.052 35.8497 494.175Z" fill="#1A1A5E"/>
<path d="M45.4233 502.929C44.3681 504.135 42.4085 504.323 41.1788 503.195C39.9391 502.077 39.8483 500.222 40.9747 499.051C42.1011 497.879 43.9717 497.793 45.1521 498.858C46.3224 499.935 46.5069 501.691 45.4233 502.929Z" fill="#1A1A5E"/>
<path d="M55.7229 510.87C54.7585 512.172 52.8885 512.423 51.5473 511.432C50.2055 510.441 49.9449 508.615 50.9645 507.354C51.9841 506.093 53.8535 505.841 55.1395 506.791C56.4261 507.742 56.6866 509.569 55.7229 510.87Z" fill="#1A1A5E"/>
<path d="M66.6471 517.975C65.7812 519.34 63.9267 519.74 62.5047 518.868C61.0721 518.013 60.6882 516.188 61.6134 514.845C62.5243 513.523 64.354 513.159 65.7349 513.982C67.1052 514.823 67.5135 516.61 66.6471 517.975Z" fill="#1A1A5E"/>
<path d="M78.0284 524.365C77.2593 525.774 75.416 526.331 73.9495 525.539C72.4944 524.725 71.9816 522.937 72.8036 521.547C73.6267 520.157 75.4332 519.667 76.8373 520.453C78.2551 521.22 78.8064 522.941 78.0284 524.365Z" fill="#1A1A5E"/>
<path d="M89.7888 530.07C89.1052 531.53 87.3254 532.142 85.8139 531.437C84.3035 530.731 83.6715 528.993 84.4032 527.555C85.1349 526.117 86.9141 525.506 88.3782 526.189C89.8417 526.873 90.4731 528.611 89.7888 530.07Z" fill="#1A1A5E"/>
<path d="M101.891 535.053C101.292 536.547 99.5445 537.271 97.9896 536.668C96.4288 536.08 95.7048 534.358 96.3529 532.874C96.9944 531.405 98.7255 530.717 100.242 531.287C101.752 531.872 102.49 533.558 101.891 535.053Z" fill="#1A1A5E"/>
<path d="M114.246 539.409C113.732 540.924 112.014 541.778 110.436 541.237C108.862 540.686 108.041 539.014 108.601 537.505C109.162 535.997 110.857 535.208 112.386 535.746C113.919 536.271 114.764 537.877 114.246 539.409Z" fill="#1A1A5E"/>
<path d="M126.814 543.14C126.381 544.688 124.728 545.575 123.121 545.121C121.515 544.666 120.6 543.051 121.077 541.515C121.555 539.98 123.208 539.094 124.77 539.536C126.332 539.977 127.246 541.592 126.814 543.14Z" fill="#1A1A5E"/>
<path d="M139.588 546.134C139.254 547.706 137.651 548.699 136.007 548.353C134.36 548.017 133.356 546.457 133.755 544.884C134.146 543.341 135.749 542.366 137.331 542.688C138.912 543.019 139.922 544.563 139.588 546.134Z" fill="#1A1A5E"/>
<path d="M152.519 548.406C152.272 550.002 150.734 551.099 149.087 550.804C147.439 550.526 146.339 549.02 146.628 547.44C146.918 545.861 148.452 544.8 150.055 545.071C151.654 545.358 152.763 546.829 152.519 548.406Z" fill="#1A1A5E"/>
<path d="M165.549 550.059C165.364 551.655 163.873 552.806 162.219 552.631C160.565 552.445 159.404 550.948 159.618 549.365C159.836 547.766 161.317 546.681 162.939 546.863C164.565 547.034 165.733 548.465 165.549 550.059Z" fill="#1A1A5E"/>
<path d="M178.629 551.293C178.496 552.893 177.045 554.084 175.388 553.954C173.73 553.831 172.517 552.419 172.676 550.812C172.834 549.225 174.283 548.045 175.916 548.166C177.547 548.295 178.763 549.694 178.629 551.293Z" fill="#1A1A5E"/>
<path d="M191.74 552.16C191.651 553.762 190.235 554.99 188.577 554.903C186.918 554.816 185.664 553.448 185.775 551.847C185.886 550.246 187.303 549.018 188.939 549.104C190.575 549.189 191.829 550.558 191.74 552.16Z" fill="#1A1A5E"/>
<path d="M204.869 552.695C204.822 554.298 203.438 555.562 201.778 555.516C200.118 555.471 198.829 554.133 198.897 552.53C198.966 550.927 200.35 549.664 201.988 549.709C203.627 549.754 204.916 551.091 204.869 552.695Z" fill="#1A1A5E"/>
<path d="M218.008 552.922C217.999 554.526 216.646 555.823 214.987 555.819C213.327 555.816 212.004 554.508 212.035 552.893C212.063 551.3 213.415 550.005 215.054 550.008C216.694 550.013 218.016 551.317 218.008 552.922Z" fill="#1A1A5E"/>
<path d="M231.149 552.857C231.178 554.46 229.857 555.792 228.198 555.828C226.539 555.88 225.186 554.534 225.177 552.943C225.167 551.326 226.489 550.07 228.128 550.018C229.768 549.981 231.121 551.252 231.149 552.857Z" fill="#1A1A5E"/>
<path d="M244.286 552.511C244.352 554.105 243.063 555.499 241.404 555.535C239.745 555.573 238.362 554.302 238.315 552.699C238.269 551.095 239.561 549.765 241.2 549.729C242.839 549.693 244.219 550.899 244.286 552.511Z" fill="#1A1A5E"/>
<path d="M257.412 551.885C257.516 553.486 256.256 554.848 254.598 554.928C252.94 555.007 251.528 553.772 251.445 552.169C251.362 550.568 252.622 549.204 254.26 549.127C255.897 549.048 257.309 550.284 257.412 551.885Z" fill="#1A1A5E"/>
<path d="M270.516 550.919C270.658 552.518 269.429 553.914 267.774 554.036C266.12 554.159 264.68 552.962 264.559 551.362C264.439 549.762 265.667 548.366 267.301 548.244C268.936 548.123 270.376 549.321 270.516 550.919Z" fill="#1A1A5E"/>
<path d="M283.595 549.673C283.773 551.268 282.58 552.698 280.929 552.866C279.278 553.036 277.812 551.877 277.654 550.281C277.495 548.683 278.689 547.255 280.319 547.087C281.949 546.92 283.416 548.078 283.595 549.673Z" fill="#1A1A5E"/>
<path d="M296.643 548.147C296.86 549.738 295.703 551.203 294.058 551.42C292.412 551.637 290.919 550.521 290.723 548.928C290.526 547.335 291.684 545.869 293.308 545.655C294.932 545.441 296.425 546.557 296.643 548.147Z" fill="#1A1A5E"/>
<path d="M309.652 546.34C309.909 547.924 308.789 549.428 307.151 549.693C305.506 549.91 303.981 548.799 303.745 547.211C303.509 545.623 304.635 544.162 306.26 543.947C307.876 543.686 309.394 544.754 309.652 546.34Z" fill="#1A1A5E"/>
<path d="M322.612 544.222C322.911 545.8 321.825 547.296 320.187 547.565C318.549 547.832 316.997 546.767 316.721 545.185C316.444 543.603 317.53 542.107 319.144 541.843C320.761 541.579 322.314 542.644 322.612 544.222Z" fill="#1A1A5E"/>
<path d="M335.497 541.707C335.839 543.277 334.796 544.81 333.167 545.132C331.539 545.453 329.961 544.438 329.642 542.864C329.324 541.289 330.367 539.755 331.973 539.438C333.577 539.121 335.155 540.137 335.497 541.707Z" fill="#1A1A5E"/>
<path d="M348.312 538.88C348.699 540.439 347.703 542.012 346.087 542.391C344.47 542.77 342.867 541.808 342.505 540.242C342.143 538.677 343.14 537.106 344.731 536.732C346.322 536.359 347.926 537.32 348.312 538.88Z" fill="#1A1A5E"/>
<path d="M361.049 535.737C361.483 537.285 360.537 538.897 358.935 539.337C357.339 539.79 355.684 538.783 355.28 537.245C354.868 535.674 355.843 534.164 357.413 533.718C358.988 533.285 360.616 534.188 361.049 535.737Z" fill="#1A1A5E"/>
<path d="M373.696 532.256C374.178 533.791 373.271 535.392 371.67 535.833C370.07 536.273 368.403 535.38 367.947 533.838C367.491 532.296 368.398 530.695 369.973 530.262C371.547 529.829 373.214 530.722 373.696 532.256Z" fill="#1A1A5E"/>
<path d="M386.184 528.273C386.717 529.791 385.869 531.432 384.288 531.938C382.707 532.444 381.014 531.616 380.508 530.089C380.003 528.562 380.852 526.921 382.405 526.424C383.959 525.926 385.651 526.755 386.184 528.273Z" fill="#1A1A5E"/>
<path d="M398.539 523.921C399.126 525.42 398.341 527.102 396.784 527.678C395.227 528.252 393.512 527.495 392.954 525.985C392.396 524.475 393.183 522.794 394.71 522.229C396.237 521.664 397.952 522.422 398.539 523.921Z" fill="#1A1A5E"/>
<path d="M410.745 519.188C411.388 520.666 410.671 522.39 409.144 523.039C407.628 523.718 405.845 522.913 405.24 521.443C404.619 519.935 405.388 518.332 406.872 517.666C408.367 517.029 410.101 517.711 410.745 519.188Z" fill="#1A1A5E"/>
<path d="M422.786 514.063C423.488 515.515 422.819 517.219 421.292 517.87C419.765 518.52 417.983 517.858 417.313 516.393C416.642 514.927 417.311 513.223 418.807 512.586C420.303 511.95 422.085 512.611 422.786 514.063Z" fill="#1A1A5E"/>
<path d="M434.529 508.321C435.293 509.743 434.705 511.487 433.214 512.216C431.723 512.944 429.922 512.37 429.191 510.932C428.46 509.493 429.05 507.75 430.507 507.037C431.965 506.324 433.766 506.9 434.529 508.321Z" fill="#1A1A5E"/>
<path d="M446.029 502.138C446.858 503.525 446.356 505.308 444.91 506.121C443.464 506.932 441.648 506.45 440.855 505.043C440.062 503.636 440.564 501.853 441.975 501.06C443.387 500.268 445.202 500.75 446.029 502.138Z" fill="#1A1A5E"/>
<path d="M457.26 495.503C458.154 496.851 457.748 498.671 456.355 499.57C454.979 500.497 453.099 500.023 452.24 498.652C451.383 497.282 451.846 495.551 453.185 494.648C454.541 493.771 456.366 494.154 457.26 495.503Z" fill="#1A1A5E"/>
<path d="M468.19 488.403C469.166 489.727 468.833 491.538 467.432 492.424C466.039 493.324 464.159 492.976 463.234 491.648C462.309 490.319 462.659 488.534 464.016 487.659C465.383 486.796 467.244 487.12 468.19 488.403Z" fill="#1A1A5E"/>
<path d="M478.634 480.637C479.665 481.889 479.422 483.706 478.093 484.694C476.764 485.683 474.88 485.447 473.887 484.166C472.893 482.886 473.134 481.07 474.427 480.109C475.72 479.149 477.604 479.385 478.634 480.637Z" fill="#1A1A5E"/>
<path d="M488.64 472.353C489.74 473.547 489.616 475.392 488.36 476.471C487.106 477.55 485.227 477.431 484.164 476.204C483.102 474.978 483.226 473.134 484.444 472.086C485.661 471.039 487.54 471.158 488.64 472.353Z" fill="#1A1A5E"/>
<path d="M498.197 463.584C499.366 464.715 499.368 466.581 498.199 467.75C497.036 468.925 495.165 468.92 494.011 467.732C492.902 466.587 492.907 464.728 494.032 463.59C495.164 462.455 497.028 462.453 498.197 463.584Z" fill="#1A1A5E"/>
<path d="M507.274 454.336C508.505 455.394 508.678 457.309 507.478 458.449C506.311 459.62 504.392 459.678 503.191 458.578C501.99 457.478 501.934 455.669 503.066 454.536C504.232 453.432 506.032 453.271 507.274 454.336Z" fill="#1A1A5E"/>
<path d="M515.646 444.476C516.946 445.461 517.136 447.28 516.068 448.539C514.999 449.797 513.107 449.985 511.84 448.959C510.573 447.932 510.385 446.113 511.417 444.896C512.452 443.678 514.345 443.491 515.646 444.476Z" fill="#1A1A5E"/>
<path d="M523.345 434.118C524.707 435.021 525.035 436.842 524.077 438.183C523.12 439.523 521.265 439.842 519.935 438.894C518.606 437.946 518.279 436.125 519.203 434.828C520.128 433.532 521.983 433.214 523.345 434.118Z" fill="#1A1A5E"/>
<path d="M530.439 423.362C531.857 424.181 532.328 425.993 531.492 427.408C530.659 428.826 528.854 429.272 527.435 428.387C526.078 427.542 525.607 425.73 526.411 424.36C527.218 422.99 529.022 422.544 530.439 423.362Z" fill="#1A1A5E"/>
<path d="M536.936 412.244C538.432 412.989 538.99 414.752 538.134 416.157C537.298 417.574 535.453 418.09 534.011 417.312C532.57 416.535 532.056 414.795 532.865 413.426C533.695 412.068 535.496 411.529 536.936 412.244Z" fill="#1A1A5E"/>
<path d="M542.467 400.639C543.978 401.28 544.63 403.001 543.925 404.481C543.22 405.962 541.441 406.604 539.952 405.914C538.464 405.225 537.81 403.505 538.494 402.073C539.177 400.641 540.955 399.999 542.467 400.639Z" fill="#1A1A5E"/>
<path d="M547.321 388.763C548.868 389.313 549.661 391.003 549.09 392.537C548.519 394.071 546.815 394.829 545.286 394.23C543.757 393.632 542.965 391.941 543.516 390.455C544.07 388.969 545.772 388.212 547.321 388.763Z" fill="#1A1A5E"/>
<path d="M551.595 376.672C553.155 377.128 554.146 378.798 553.624 380.345C553.054 381.88 551.325 382.71 549.762 382.201C548.199 381.692 547.38 380.075 547.934 378.59C548.44 377.089 549.998 376.204 551.595 376.672Z" fill="#1A1A5E"/>
<path d="M554.996 364.315C556.598 364.69 557.547 366.271 557.114 367.845C556.681 369.419 555.04 370.354 553.45 369.933C551.86 369.511 550.911 367.931 551.332 366.403C551.752 364.875 553.393 363.941 554.996 364.315Z" fill="#1A1A5E"/>
<path d="M557.878 351.838C559.497 352.139 560.539 353.673 560.204 355.265C559.87 356.857 558.292 357.873 556.681 357.535C555.07 357.198 554.028 355.664 554.355 354.11C554.681 352.555 556.259 351.538 557.878 351.838Z" fill="#1A1A5E"/>
<path d="M560.115 339.233C561.759 339.471 562.851 340.961 562.575 342.561C562.298 344.162 560.755 345.239 559.131 344.969C557.506 344.698 556.41 343.208 556.681 341.642C556.952 340.075 558.499 338.998 560.115 339.233Z" fill="#1A1A5E"/>
<path d="M561.822 326.548C563.448 326.729 564.673 328.186 564.446 329.792C564.221 331.398 562.716 332.53 561.081 332.319C559.447 332.108 558.301 330.658 558.521 329.083C558.744 327.507 560.173 326.366 561.822 326.548Z" fill="#1A1A5E"/>
<path d="M563.094 313.816C564.737 313.945 565.965 315.358 565.839 316.974C565.702 318.587 564.204 319.765 562.572 319.609C560.924 319.451 559.758 318.044 559.893 316.458C560.018 314.87 561.451 313.688 563.094 313.816Z" fill="#1A1A5E"/>
<path d="M563.955 301.052C565.6 301.132 566.87 302.507 566.79 304.124C566.726 305.741 565.284 306.965 563.637 306.859C561.995 306.754 560.768 305.382 560.832 303.79C560.91 302.198 562.308 300.973 563.955 301.052Z" fill="#1A1A5E"/>
<path d="M564.425 288.268C566.072 288.301 567.381 289.638 567.346 291.256C567.31 292.875 565.951 294.139 564.299 294.082C562.657 294.025 561.345 292.687 561.38 291.095C561.413 289.501 562.777 288.236 564.425 288.268Z" fill="#1A1A5E"/>
<path d="M564.515 275.476C566.163 275.463 567.507 276.763 567.518 278.381C567.528 279.999 566.201 281.302 564.552 281.291C562.904 281.281 561.56 279.98 561.549 278.387C561.539 276.793 562.866 275.49 564.515 275.476Z" fill="#1A1A5E"/>
<path d="M564.23 262.688C565.877 262.628 567.258 263.891 567.313 265.508C567.368 267.125 566.077 268.465 564.429 268.5C562.782 268.535 561.401 267.272 561.347 265.679C561.292 264.086 562.583 262.746 564.23 262.688Z" fill="#1A1A5E"/>
<path d="M563.574 249.912C565.219 249.806 566.634 251.031 566.735 252.645C566.835 254.261 565.581 255.635 563.935 255.716C562.289 255.797 560.875 254.572 560.776 252.982C560.676 251.391 561.93 250.017 563.574 249.912Z" fill="#1A1A5E"/>
<path d="M562.542 237.158C564.183 237.007 565.632 238.191 565.778 239.803C565.925 241.415 564.711 242.824 563.068 242.951C561.425 243.077 559.976 241.893 559.833 240.306C559.688 238.719 560.901 237.31 562.542 237.158Z" fill="#1A1A5E"/>
<path d="M561.127 224.441C562.762 224.242 564.245 225.383 564.439 226.991C564.632 228.599 563.46 230.043 561.821 230.216C560.183 230.389 558.7 229.248 558.51 227.666C558.32 226.084 559.492 224.64 561.127 224.441Z" fill="#1A1A5E"/>
<path d="M559.316 211.771C560.944 211.522 562.461 212.619 562.703 214.222C562.944 215.824 561.817 217.303 560.185 217.524C558.553 217.746 557.036 216.649 556.798 215.074C556.56 213.498 557.687 212.02 559.316 211.771Z" fill="#1A1A5E"/>
<path d="M557.091 199.163C558.71 198.862 560.26 199.912 560.553 201.507C560.845 203.101 559.766 204.615 558.142 204.888C556.517 205.161 554.967 204.111 554.68 202.545C554.392 200.978 555.471 199.464 557.091 199.163Z" fill="#1A1A5E"/>
<path d="M554.43 186.636C556.037 186.28 557.621 187.276 557.967 188.862C558.313 190.448 557.285 191.998 555.671 192.324C554.057 192.651 552.473 191.654 552.135 190.098C551.795 188.542 552.823 186.992 554.43 186.636Z" fill="#1A1A5E"/>
<path d="M551.305 174.21C552.896 173.795 554.513 174.734 554.916 176.309C555.317 177.883 554.346 179.47 552.746 179.854C551.144 180.238 549.528 179.299 549.135 177.756C548.741 176.214 549.712 174.626 551.305 174.21Z" fill="#1A1A5E"/>
<path d="M547.651 161.922C549.238 161.438 550.917 162.305 551.365 163.869C551.827 165.43 550.917 167.055 549.334 167.501C547.751 167.947 546.101 167.072 545.65 165.546C545.214 164.015 546.092 162.399 547.651 161.922Z" fill="#1A1A5E"/>
<path d="M543.431 149.808C544.963 149.261 546.75 150.031 547.272 151.575C547.798 153.118 546.958 154.785 545.397 155.298C543.836 155.812 542.154 155.008 541.641 153.502C541.131 151.996 541.868 150.366 543.431 149.808Z" fill="#1A1A5E"/>
<path d="M538.603 137.912C540.119 137.281 541.888 137.982 542.555 139.478C543.215 140.976 542.405 142.703 540.886 143.285C539.338 143.879 537.673 143.134 537.032 141.68C536.384 140.23 537.088 138.543 538.603 137.912Z" fill="#1A1A5E"/>
<path d="M533.11 126.295C534.583 125.577 536.384 126.18 537.129 127.644C537.877 129.106 537.266 130.834 535.748 131.513C534.27 132.172 532.47 131.569 531.747 130.156C531.026 128.743 531.636 127.015 533.11 126.295Z" fill="#1A1A5E"/>
<path d="M526.885 115.034C528.305 114.218 530.128 114.71 530.96 116.133C531.79 117.556 531.288 119.327 529.837 120.089C528.386 120.85 526.562 120.359 525.762 118.99C524.963 117.621 525.465 115.85 526.885 115.034Z" fill="#1A1A5E"/>
<path d="M519.854 104.23C521.202 103.306 523.043 103.671 523.967 105.045C524.888 106.418 524.511 108.233 523.122 109.097C521.734 109.963 519.892 109.598 519.011 108.283C518.129 106.969 518.506 105.154 519.854 104.23Z" fill="#1A1A5E"/>
<path d="M511.798 94.1313C513.039 93.0944 514.996 93.2266 516.069 94.5011C517.09 95.813 516.857 97.6715 515.552 98.6502C514.246 99.6294 512.401 99.4098 511.432 98.1597C510.415 96.9523 510.537 95.1839 511.798 94.1313Z" fill="#1A1A5E"/>
<path d="M502.76 84.8585C503.885 83.6864 505.792 83.665 507.019 84.8135C508.24 85.966 508.276 87.7771 507.057 88.8973C505.879 89.9793 503.957 90.014 502.809 88.9331C501.655 87.8557 501.635 86.0313 502.76 84.8585Z" fill="#1A1A5E"/>
<path d="M492.733 76.6061C493.697 75.3045 495.561 75.0902 496.894 76.1272C498.226 77.1653 498.452 79.0076 497.396 80.2404C496.342 81.4733 494.478 81.6882 493.236 80.7194C491.993 79.7494 491.769 77.9071 492.733 76.6061Z" fill="#1A1A5E"/>
<path d="M481.557 69.9036C482.319 68.4813 484.175 67.9446 485.701 68.7089C487.188 69.5351 487.606 71.4334 486.743 72.7754C485.858 74.1538 484.106 74.5126 482.731 73.7489C481.32 73.0487 480.795 71.3265 481.557 69.9036Z" fill="#1A1A5E"/>
<path d="M469.538 64.7745C470.069 63.2557 471.801 62.5047 473.407 63.1009C475.012 63.6971 475.779 65.3747 475.12 66.8456C474.463 68.3164 472.73 69.0674 471.253 68.5198C469.774 67.9715 469.008 66.2945 469.538 64.7745Z" fill="#1A1A5E"/>
<path d="M456.854 61.5133C457.135 59.9524 458.761 58.7669 460.413 59.2453C462.077 59.6601 463.087 61.2574 462.67 62.8097C462.253 64.362 460.674 65.3089 459.143 64.923C457.626 64.4724 456.565 63.113 456.854 61.5133Z" fill="#1A1A5E"/>
<path d="M443.796 60.2334C443.837 58.6297 445.261 57.3715 446.974 57.4258C448.693 57.4235 449.928 58.9376 449.756 60.5396C449.585 62.1289 448.179 63.2132 446.59 63.2236C445.005 63.1774 443.755 61.8371 443.796 60.2334Z" fill="#1A1A5E"/>
<path d="M430.683 60.7177C430.471 59.1261 431.688 57.7263 433.402 57.5923C435.116 57.46 436.564 58.6541 436.637 60.2573C436.71 61.8598 435.493 63.2602 433.917 63.3815C432.343 63.5028 430.894 62.3081 430.683 60.7177Z" fill="#1A1A5E"/>
<path d="M417.842 63.3356C417.373 61.7971 418.324 60.1484 419.967 59.6579C421.656 59.3361 423.295 60.3517 423.628 61.9231C423.96 63.495 422.974 65.0051 421.423 65.2928C419.915 65.7498 418.311 64.8734 417.842 63.3356Z" fill="#1A1A5E"/>
<path d="M405.548 67.8087C404.843 66.3586 405.549 64.6475 407.126 63.9895C408.704 63.332 410.456 64.0178 411.039 65.5181C411.622 67.019 410.916 68.7295 409.461 69.3373C408.006 69.9445 406.253 69.2587 405.548 67.8087Z" fill="#1A1A5E"/>
<path d="M394.073 74.0092C393.185 72.6764 393.575 70.7954 395.033 69.9358C396.531 69.1322 398.394 69.6209 399.194 71.0242C399.993 72.4274 399.511 74.1681 398.116 74.9104C396.756 75.7134 394.979 75.3691 394.073 74.0092Z" fill="#1A1A5E"/>
<path d="M383.46 81.5369C382.413 80.2977 382.643 78.4641 383.974 77.441C385.306 76.419 387.176 76.6403 388.149 77.9349C389.122 79.2295 388.892 81.0632 387.635 82.0303C386.377 82.9979 384.508 82.7767 383.46 81.5369Z" fill="#1A1A5E"/>
<path d="M373.671 90.0606C372.514 88.9185 372.507 87.0248 373.781 85.941C375.031 84.8347 376.939 84.9058 378.041 86.0987C379.143 87.2923 379.071 89.1126 377.878 90.1658C376.664 91.1947 374.828 91.2028 373.671 90.0606Z" fill="#1A1A5E"/>
<path d="M364.667 99.3758C363.429 98.3168 363.325 96.4647 364.434 95.24C365.524 93.9979 367.459 93.9482 368.66 95.0528C369.856 96.1516 369.902 97.946 368.85 99.1487C367.778 100.334 365.905 100.435 364.667 99.3758Z" fill="#1A1A5E"/>
<path d="M356.249 109.196C354.952 108.207 354.751 106.377 355.802 105.11C356.852 103.842 358.732 103.646 360.001 104.671C361.268 105.696 361.469 107.526 360.447 108.758C359.426 109.99 357.547 110.186 356.249 109.196Z" fill="#1A1A5E"/>
<path d="M348.353 119.42C347.012 118.485 346.693 116.646 347.706 115.355C348.706 114.054 350.585 113.78 351.902 114.744C353.22 115.707 353.497 117.518 352.52 118.789C351.53 120.05 349.692 120.354 348.353 119.42Z" fill="#1A1A5E"/>
<path d="M340.877 129.941C339.508 129.049 339.146 127.234 340.068 125.888C340.981 124.537 342.887 124.221 344.232 125.129C345.595 126.05 345.903 127.824 345.003 129.157C344.094 130.482 342.248 130.834 340.877 129.941Z" fill="#1A1A5E"/>
<path d="M333.689 140.65C332.299 139.789 331.897 137.988 332.792 136.629C333.686 135.27 335.53 134.877 336.911 135.753C338.292 136.63 338.694 138.432 337.809 139.776C336.924 141.121 335.079 141.512 333.689 140.65Z" fill="#1A1A5E"/>
<path d="M326.708 151.489C325.304 150.648 324.874 148.856 325.748 147.488C326.622 146.119 328.464 145.7 329.861 146.551C331.259 147.401 331.688 149.192 330.821 150.551C329.952 151.91 328.111 152.329 326.708 151.489Z" fill="#1A1A5E"/>
<path d="M319.862 162.409C318.453 161.578 317.999 159.789 318.861 158.416C319.722 157.042 321.56 156.606 322.967 157.441C324.375 158.277 324.819 160.064 323.962 161.432C323.104 162.799 321.273 163.241 319.862 162.409Z" fill="#1A1A5E"/>
<path d="M313.059 173.354C311.649 172.523 311.197 170.737 312.052 169.365C312.907 167.993 314.742 167.55 316.152 168.38C317.562 169.211 318.016 170.996 317.159 172.371C316.304 173.747 314.468 174.186 313.059 173.354Z" fill="#1A1A5E"/>
<path d="M306.212 184.275C304.809 183.433 304.37 181.643 305.231 180.279C306.092 178.915 307.931 178.485 309.339 179.32C310.746 180.155 311.185 181.944 310.32 183.316C309.454 184.689 307.615 185.118 306.212 184.275Z" fill="#1A1A5E"/>
<path d="M299.244 195.121C297.856 194.256 297.439 192.46 298.313 191.107C299.188 189.754 301.03 189.349 302.427 190.2C303.824 191.052 304.24 192.85 303.357 194.215C302.474 195.581 300.633 195.986 299.244 195.121Z" fill="#1A1A5E"/>
<path d="M292.019 205.807C290.652 204.903 290.309 203.118 291.216 201.793C292.112 200.458 293.955 200.09 295.333 200.97C296.711 201.851 297.091 203.662 296.183 205.015C295.261 206.362 293.378 206.707 292.019 205.807Z" fill="#1A1A5E"/>
<path d="M284.444 216.26C283.119 215.305 282.823 213.493 283.784 212.212C284.744 210.931 286.62 210.643 287.964 211.563C289.316 212.488 289.609 214.299 288.626 215.612C287.64 216.925 285.768 217.215 284.444 216.26Z" fill="#1A1A5E"/>
<path d="M276.4 226.374C275.149 225.362 274.929 223.52 275.936 222.28C276.941 221.039 278.81 220.832 280.111 221.818C281.411 222.804 281.624 224.641 280.586 225.922C279.547 227.201 277.684 227.412 276.4 226.374Z" fill="#1A1A5E"/>
<path d="M267.61 235.878C266.433 234.754 266.387 232.931 267.506 231.807C268.649 230.705 270.472 230.575 271.707 231.65C272.93 232.713 273.069 234.61 271.868 235.772C270.693 236.955 268.786 237.002 267.61 235.878Z" fill="#1A1A5E"/>
<path d="M257.998 244.589C256.976 243.365 257.136 241.569 258.301 240.498C259.487 239.455 261.356 239.566 262.476 240.744C263.595 241.921 263.48 243.775 262.216 244.885C260.976 246.018 259.055 245.855 257.998 244.589Z" fill="#1A1A5E"/>
<path d="M247.251 251.927C246.425 250.538 246.835 248.75 248.167 247.936C249.501 247.121 251.356 247.525 252.309 248.835C253.262 250.144 252.851 251.932 251.391 252.826C249.93 253.72 248.076 253.316 247.251 251.927Z" fill="#1A1A5E"/>
<path d="M235.411 257.434C234.803 255.943 235.535 254.257 237.047 253.67C238.556 253.093 240.178 253.665 240.896 255.141C241.591 256.566 240.885 258.445 239.323 259.042C237.77 259.646 236.019 258.926 235.411 257.434Z" fill="#1A1A5E"/>
<path d="M223.1 261.908C222.554 260.382 223.384 258.769 224.908 258.206C226.438 257.658 228.144 258.432 228.719 259.936C229.294 261.44 228.491 263.114 226.925 263.676C225.364 264.252 223.638 263.412 223.1 261.908Z" fill="#1A1A5E"/>
<path d="M210.624 265.926C210.132 264.395 210.998 262.758 212.556 262.27C214.114 261.783 215.796 262.623 216.311 264.147C216.828 265.672 215.962 267.309 214.38 267.804C212.797 268.298 211.116 267.458 210.624 265.926Z" fill="#1A1A5E"/>
<path d="M198.038 269.605C197.58 268.064 198.486 266.453 200.062 266.008C201.642 265.569 203.293 266.428 203.769 267.967C204.243 269.501 203.341 271.138 201.748 271.582C200.157 272.032 198.496 271.147 198.038 269.605Z" fill="#1A1A5E"/>
<path d="M185.39 273.083C184.952 271.535 185.887 269.944 187.468 269.508C189.051 269.075 190.697 269.977 191.144 271.521C191.591 273.065 190.662 274.67 189.069 275.105C187.476 275.545 185.828 274.629 185.39 273.083Z" fill="#1A1A5E"/>
<path d="M172.713 276.442C172.282 274.893 173.224 273.299 174.817 272.88C176.409 272.46 178.048 273.376 178.479 274.924C178.909 276.473 177.967 278.069 176.375 278.488C174.783 278.907 173.144 277.992 172.713 276.442Z" fill="#1A1A5E"/>
<path d="M160.025 279.787C159.59 278.239 160.531 276.641 162.126 276.218C163.719 275.798 165.36 276.715 165.789 278.263C166.22 279.812 165.278 281.407 163.687 281.826C162.098 282.248 160.459 281.335 160.025 279.787Z" fill="#1A1A5E"/>
<path d="M147.358 283.196C146.909 281.652 147.838 280.051 149.432 279.618C151.025 279.186 152.673 280.089 153.112 281.635C153.552 283.182 152.623 284.784 151.039 285.214C149.454 285.643 147.807 284.74 147.358 283.196Z" fill="#1A1A5E"/>
<path d="M134.742 286.78C134.266 285.244 135.167 283.623 136.756 283.159C138.344 282.69 140.008 283.584 140.468 285.123C140.928 286.665 140.02 288.267 138.45 288.731C136.878 289.189 135.219 288.316 134.742 286.78Z" fill="#1A1A5E"/>
<path d="M122.2 290.601C121.686 289.08 122.543 287.415 124.129 286.938C125.713 286.452 127.396 287.299 127.89 288.83C128.382 290.362 127.515 291.991 125.953 292.471C124.386 292.941 122.716 292.128 122.2 290.601Z" fill="#1A1A5E"/>
<path d="M109.779 294.778C109.212 293.272 110.023 291.608 111.592 291.063C113.16 290.518 114.867 291.305 115.404 292.822C115.942 294.339 115.13 296.002 113.591 296.537C112.053 297.072 110.346 296.285 109.779 294.778Z" fill="#1A1A5E"/>
<path d="M97.5319 299.415C96.8993 297.934 97.6358 296.227 99.1787 295.603C100.728 294.998 102.479 295.754 103.074 297.246C103.672 298.746 102.914 300.404 101.402 300.995C99.898 301.604 98.1663 300.897 97.5319 299.415Z" fill="#1A1A5E"/>
<path d="M85.5159 304.588C84.7972 303.13 85.4464 301.392 86.9752 300.73C88.4998 300.058 90.2784 300.702 90.9472 302.168C91.616 303.635 90.9573 305.353 89.4766 306.006C87.9912 306.649 86.2233 306.023 85.5159 304.588Z" fill="#1A1A5E"/>
<path d="M73.8461 310.467C73.0372 309.069 73.5767 307.302 75.0526 306.52C76.5286 305.738 78.3374 306.26 79.0929 307.686C79.8478 309.112 79.3077 310.881 77.8858 311.635C76.4639 312.388 74.655 311.865 73.8461 310.467Z" fill="#1A1A5E"/>
<path d="M62.6387 317.138C61.72 315.806 62.1123 313.988 63.5158 313.078C64.9247 312.176 66.8148 312.642 67.6653 314C68.5317 315.382 68.0777 317.111 66.73 317.973C65.3887 318.844 63.5573 318.471 62.6387 317.138Z" fill="#1A1A5E"/>
<path d="M52.028 324.676C50.9995 323.443 51.1746 321.529 52.5508 320.573C53.9069 319.591 55.7953 319.846 56.7679 321.141C57.7412 322.436 57.4842 324.244 56.1923 325.177C54.8784 326.085 53.0772 325.934 52.028 324.676Z" fill="#1A1A5E"/>
<path d="M42.2035 333.165C41.0392 332.028 41.0985 330.192 42.3365 329.063C43.5738 327.935 45.4675 327.991 46.5631 329.189C47.6598 330.388 47.6004 332.225 46.4307 333.292C45.2604 334.358 43.3673 334.3 42.2035 333.165Z" fill="#1A1A5E"/>
<path d="M33.4145 342.666C32.1285 341.663 31.9635 339.815 33.0472 338.541C34.1089 337.247 36.0281 337.132 37.2649 338.222C38.4708 339.285 38.5859 341.091 37.5901 342.31C36.5712 343.511 34.7012 343.669 33.4145 342.666Z" fill="#1A1A5E"/>
<path d="M25.7606 353.051C24.3684 352.2 23.95 350.359 24.8669 348.966C25.8591 347.622 27.7511 347.291 29.0905 348.227C30.4299 349.163 30.7581 350.944 29.8228 352.206C28.9617 353.517 27.1606 353.906 25.7606 353.051Z" fill="#1A1A5E"/>
<path d="M19.3143 364.19C17.8282 363.497 17.2656 361.748 18.0591 360.285C18.8531 358.822 20.6656 358.269 22.1059 359.049C23.5462 359.829 24.1088 361.579 23.3611 362.955C22.6127 364.331 20.8009 364.884 19.3143 364.19Z" fill="#1A1A5E"/>
<path d="M420.728 565.665H437.634V582.571H420.728V565.665Z" fill="#1A1A5E"/>
<path d="M110.308 565.665H127.214V582.571H110.308V565.665Z" fill="#1A1A5E"/>
<path d="M420.728 44.0264H437.634V60.9317H420.728V44.0264Z" fill="#1A1A5E"/>
<path d="M110.308 44.0264H127.214V60.9317H110.308V44.0264Z" fill="#1A1A5E"/>
<path d="M124.913 54.5342H423.028C426.46 54.5342 429.244 57.3159 429.244 60.75V567.719C429.244 571.148 426.46 573.935 423.028 573.935H124.913C121.479 573.935 118.697 571.148 118.697 567.719V60.75C118.697 57.3159 121.479 54.5342 124.913 54.5342Z" fill="white"/>
<path d="M423.029 575.8H124.913C120.457 575.8 116.83 572.175 116.83 567.72V60.7495C116.83 56.2941 120.457 52.6692 124.913 52.6692H423.029C427.485 52.6692 431.112 56.2941 431.112 60.7495V567.72C431.112 572.175 427.485 575.8 423.029 575.8ZM124.913 56.3972C122.514 56.3972 120.563 58.3499 120.563 60.7495V567.72C120.563 570.119 122.514 572.071 124.913 572.071H423.029C425.429 572.071 427.379 570.119 427.379 567.72V60.7495C427.379 58.3499 425.429 56.3972 423.029 56.3972H124.913Z" fill="#1A1A5E"/>
<path d="M351.081 77.811H396.459C401.161 77.811 404.973 81.6255 404.973 86.3256C404.973 91.0308 401.161 94.8447 396.459 94.8447H351.081C346.378 94.8447 342.567 91.0308 342.567 86.3256C342.567 81.6255 346.378 77.811 351.081 77.811Z" fill="#5D5FEF"/>
<path d="M158.513 77.811H320.997C325.7 77.811 329.512 81.6255 329.512 86.3256C329.512 91.0308 325.7 94.8447 320.997 94.8447H158.513C153.81 94.8447 149.999 91.0308 149.999 86.3256C149.999 81.6255 153.81 77.811 158.513 77.811Z" fill="#5D5FEF"/>
<path d="M487.077 342.58L486.961 429.999L95.0351 427.91L95.1509 340.491L487.077 342.58Z" fill="white"/>
<path d="M487.077 342.58L486.961 429.999L95.0351 427.91L95.1509 340.491L487.077 342.58Z" stroke="#1A1A5E" stroke-width="4"/>
<path d="M142.885 416.172L112.516 416.008C107.869 415.983 104.093 412.199 104.099 407.571L104.136 379.313C104.142 374.684 107.928 370.941 112.575 370.966L142.944 371.13C147.59 371.155 151.368 374.939 151.361 379.568L151.324 407.825C151.318 412.454 147.531 416.197 142.885 416.172ZM112.569 375.355C110.352 375.343 108.547 377.13 108.544 379.337L108.507 407.594C108.504 409.802 110.305 411.607 112.522 411.619L142.891 411.783C145.108 411.795 146.913 410.009 146.916 407.802L146.953 379.544C146.956 377.337 145.155 375.531 142.938 375.519L112.569 375.355Z" fill="#1A1A5E"/>
<path d="M203.173 416.327L172.803 416.163C168.158 416.138 164.38 412.354 164.387 407.726L164.424 379.468C164.43 374.84 168.217 371.097 172.862 371.122L203.232 371.286C207.878 371.311 211.655 375.095 211.649 379.723L211.612 407.981C211.606 412.609 207.819 416.352 203.173 416.327ZM172.857 375.51C170.64 375.499 168.834 377.285 168.831 379.492L168.794 407.75C168.791 409.957 170.592 411.762 172.809 411.774L203.179 411.938C205.396 411.95 207.201 410.164 207.204 407.957L207.241 379.699C207.244 377.492 205.444 375.686 203.227 375.674L172.857 375.51Z" fill="#1A1A5E"/>
<path d="M266.318 416.49L235.952 416.326C231.302 416.301 227.525 412.516 227.532 407.888L227.569 379.63C227.575 375.002 231.361 371.258 236.011 371.284L266.377 371.447C271.022 371.473 274.799 375.256 274.793 379.885L274.756 408.143C274.75 412.771 270.963 416.515 266.318 416.49ZM236.006 375.672C233.788 375.66 231.979 377.447 231.976 379.654L231.939 407.912C231.936 410.119 233.741 411.924 235.958 411.936L266.323 412.1C268.54 412.112 270.345 410.326 270.348 408.119L270.385 379.861C270.388 377.654 268.588 375.848 266.371 375.836L236.006 375.672Z" fill="#1A1A5E"/>
<path d="M329.96 416.653L299.591 416.489C294.945 416.464 291.168 412.679 291.174 408.051L291.211 379.793C291.217 375.165 295.004 371.422 299.65 371.447L330.019 371.611C334.666 371.636 338.443 375.42 338.437 380.048L338.4 408.306C338.394 412.934 334.607 416.678 329.96 416.653ZM299.644 375.835C297.427 375.823 295.622 377.61 295.619 379.817L295.582 408.075C295.579 410.282 297.379 412.087 299.597 412.099L329.966 412.263C332.183 412.275 333.988 410.489 333.991 408.282L334.028 380.024C334.031 377.817 332.23 376.011 330.014 375.999L299.644 375.835Z" fill="#1A1A5E"/>
<path d="M359.936 373.797L390.302 373.96C393.739 373.979 396.524 376.767 396.519 380.192L396.482 408.449C396.478 411.872 393.686 414.631 390.248 414.613L359.883 414.449C356.445 414.43 353.663 411.641 353.667 408.218L353.704 379.961C353.709 376.536 356.498 373.778 359.936 373.797Z" fill="#CACBFF"/>
<path d="M423.079 373.959L453.447 374.123C456.885 374.141 459.667 376.929 459.663 380.354L459.626 408.611C459.621 412.034 456.831 414.793 453.394 414.774L423.026 414.61C419.591 414.592 416.806 411.803 416.811 408.38L416.848 380.123C416.852 376.698 419.644 373.94 423.079 373.959Z" fill="#CACBFF"/>
<path d="M330.203 123.363V329.009H95.3428V123.363H330.203Z" fill="white"/>
<path d="M330.203 123.363V329.009H95.3428V123.363H330.203Z" stroke="#1A1A5E" stroke-width="4"/>
<path d="M113.345 149.809H179.731C183.162 149.809 185.946 152.591 185.946 156.025V236.209C185.946 239.644 183.162 242.425 179.731 242.425H113.345C109.911 242.425 107.129 239.644 107.129 236.209V156.025C107.129 152.591 109.911 149.809 113.345 149.809Z" fill="#5D5FEF"/>
<path d="M316.91 157.908H198.31C197.281 157.908 196.444 157.072 196.444 156.043C196.444 155.013 197.281 154.178 198.31 154.178H316.91C317.94 154.178 318.777 155.013 318.777 156.043C318.777 157.072 317.94 157.908 316.91 157.908Z" fill="#5D5FEF"/>
<path d="M316.91 168.721H198.31C197.281 168.721 196.444 167.887 196.444 166.857C196.444 165.827 197.281 164.993 198.31 164.993H316.91C317.94 164.993 318.777 165.827 318.777 166.857C318.777 167.887 317.94 168.721 316.91 168.721Z" fill="#5D5FEF"/>
<path d="M316.91 179.248H198.31C197.281 179.248 196.444 178.413 196.444 177.383C196.444 176.353 197.281 175.519 198.31 175.519H316.91C317.94 175.519 318.777 176.353 318.777 177.383C318.777 178.413 317.94 179.248 316.91 179.248Z" fill="#5D5FEF"/>
<path d="M316.91 190.061H198.31C197.281 190.061 196.444 189.227 196.444 188.197C196.444 187.167 197.281 186.332 198.31 186.332H316.91C317.94 186.332 318.777 187.167 318.777 188.197C318.777 189.227 317.94 190.061 316.91 190.061Z" fill="#5D5FEF"/>
<path d="M316.91 208.13H198.31C197.281 208.13 196.444 207.296 196.444 206.266C196.444 205.236 197.281 204.402 198.31 204.402H316.91C317.94 204.402 318.777 205.236 318.777 206.266C318.777 207.296 317.94 208.13 316.91 208.13Z" fill="#5D5FEF"/>
<path d="M316.91 218.944H198.31C197.281 218.944 196.444 218.11 196.444 217.08C196.444 216.05 197.281 215.216 198.31 215.216H316.91C317.94 215.216 318.777 216.05 318.777 217.08C318.777 218.11 317.94 218.944 316.91 218.944Z" fill="#5D5FEF"/>
<path d="M316.91 229.477H198.31C197.281 229.477 196.444 228.643 196.444 227.613C196.444 226.583 197.281 225.749 198.31 225.749H316.91C317.94 225.749 318.777 226.583 318.777 227.613C318.777 228.643 317.94 229.477 316.91 229.477Z" fill="#5D5FEF"/>
<path d="M316.91 240.288H198.31C197.281 240.288 196.444 239.454 196.444 238.424C196.444 237.394 197.281 236.56 198.31 236.56H316.91C317.94 236.56 318.777 237.394 318.777 238.424C318.777 239.454 317.94 240.288 316.91 240.288Z" fill="#5D5FEF"/>
<path d="M56.3244 296.157L39.9376 299.665L47.9905 285.392L56.3244 296.157Z" fill="#1A1A5E"/>
<path d="M361.133 52L360.451 18.9433L393.203 28.3297L361.133 52Z" fill="#1A1A5E"/>
<path d="M5.77538 217.343L4.54898 208.035L41.003 205.633L42.2302 214.941L5.77538 217.343Z" fill="#5D5FEF"/>
<path d="M21.1367 230.022L16.334 193.567L25.6417 192.954L30.4452 229.409L21.1367 230.022Z" fill="#5D5FEF"/>
<path d="M227.65 438.556H338.169C341.602 438.556 344.385 441.337 344.385 444.771V479.298C344.385 482.732 341.602 485.518 338.169 485.518H227.65C224.216 485.518 221.434 482.732 221.434 479.298V444.771C221.434 441.337 224.216 438.556 227.65 438.556Z" fill="#5D5FEF"/>
<path d="M241.696 475.511C241.696 475.511 242.397 478.851 241.189 484.044C240.225 488.192 237.221 492.141 237.221 492.141C237.221 492.141 249.633 489.402 252.976 484.044C256.757 477.979 254.08 473.494 254.08 473.494L241.696 475.511Z" fill="#5D5FEF"/>
<path d="M271.1 498.944H388.664C391.633 498.944 394.042 501.351 394.042 504.322V545.136C394.042 548.108 391.633 550.515 388.664 550.515H271.1C268.129 550.515 265.722 548.108 265.722 545.136V504.322C265.722 501.351 268.129 498.944 271.1 498.944Z" fill="#1A1A5E"/>
<path d="M372.896 539.524C372.896 539.524 372.163 543.193 373.424 548.888C374.432 553.437 377.563 557.776 377.563 557.776C377.563 557.776 364.611 554.768 361.123 548.888C357.176 542.235 359.969 537.307 359.969 537.307L372.896 539.524Z" fill="#1A1A5E"/>
<path d="M188.33 494.072C191.472 494.589 197.12 490.995 202.622 485.907C208.124 480.824 206.447 476.311 206.682 472.162C206.917 468.019 212.969 447.541 209.441 442.332C205.914 437.128 189.699 423.15 179.224 427.573C168.749 431.997 167.48 447.201 170.562 451.403C173.642 455.604 182.696 460.123 181.253 465.231C179.809 470.342 171.488 473.866 172.397 480.9C173.304 487.934 185.189 493.557 188.33 494.072Z" fill="#5D5FEF"/>
<path d="M169.557 449.966L169.438 447.047C169.799 442.347 170.598 438.746 172.086 435.122C173.428 431.848 175.395 428.274 178.819 426.373C183.863 423.572 189.613 426.041 193.049 427.597C196.235 429.036 198.681 430.375 201.698 432.3C207.088 435.739 213.179 439.77 214.154 446.81C214.731 450.97 213.415 455.034 212.446 458.378C211.482 461.722 209.842 465.622 209.617 469.227C209.405 472.651 210.822 475.322 210.82 478.615C210.821 483.498 207.494 486.527 204.436 489.158C203.469 489.989 197.669 495.149 196.905 491.773C196.591 490.381 198.18 489.411 198.968 488.836C201.941 486.663 205.408 484.098 206.415 480.854C207.309 477.962 205.796 474.496 205.619 471.419C205.448 468.501 206.158 466.244 206.933 463.564C207.606 461.243 208.248 458.906 208.949 456.234C209.588 453.805 210.46 450.731 210.258 448.256C209.73 441.706 203.439 438.122 199.094 435.301C196.637 433.71 194.582 432.458 191.416 430.971C189.183 429.919 185.149 428.034 181.655 429.086C178.3 430.097 176.312 434.712 175.201 437.926C173.903 441.669 172.763 446.389 173.793 450.191C174.616 453.237 177.426 455.242 179.536 457.203C181.467 458.995 184.156 461.384 184.598 464.291C185.261 468.652 182.159 471.602 179.951 474.012C178.506 475.592 176.435 477.477 175.934 479.138C174.854 482.722 176.769 486.319 178.477 487.995C181.239 490.707 185.799 491.234 189.593 493.015C188.305 490.662 187.335 489.302 187.02 486.85C185.897 478.071 192.134 471.087 194.026 464.745C195.352 460.302 194.946 454.287 192.774 450.844C191.663 449.087 190.283 447.878 188.083 446.155C186.809 445.155 183.089 443.55 183.399 441.705C183.518 441.017 183.914 440.472 184.837 440.19C186.858 439.574 189.992 442.569 191.249 443.576C193.061 445.017 195.088 446.947 196.233 448.718C198.777 452.664 199.422 459.817 197.991 465.003C196.414 470.716 191.856 475.958 191.074 482.573C190.12 490.651 196.109 493.445 198.959 498.614C200.934 502.199 201.169 507.092 199.2 511.17C195.901 518.004 190.087 521.81 188.066 529.002C186.489 534.618 186.157 540.584 186.084 547.201C186.055 550.129 185.827 552.065 183.973 552.223C181.866 552.398 181.938 550.065 182.001 547.327C182.153 540.567 182.747 533.704 184.228 528.485C185.364 524.479 187.032 521.67 189.281 518.715C191.496 515.807 194.042 513.15 195.597 509.772C198.047 504.446 195.184 499.155 192.18 496.251C191.185 496.453 190.965 497.074 189.621 497.047C188.818 497.028 186.96 496.227 185.751 495.801C179.278 493.507 172.046 490.75 171.697 482.216C171.495 477.305 173.998 475.151 176.741 472.198C178.303 470.515 180.636 467.911 180.563 465.628C180.501 463.74 179.131 462.646 177.936 461.425C174.643 458.067 170.456 454.99 169.557 449.966Z" fill="#1A1A5E"/>
<path d="M154.461 486.431C151.451 486.757 133.288 489.466 130.182 483.111C127.076 476.75 138.559 463.294 134.196 458.718C129.836 454.136 124.528 452.286 124.199 444.962C123.87 437.637 124.731 429.987 129.558 427.965C134.385 425.944 146.047 427.134 148.494 432.199C150.944 437.265 148.863 445.815 153.546 450.293C158.23 454.766 164.997 456.18 165.229 463.476C165.458 470.772 161.626 479.695 160.041 481.533C158.455 483.367 157.472 486.108 154.461 486.431Z" fill="#5D5FEF"/>
<path d="M151.73 485.376C148.555 483.383 145.177 481.042 144.555 475.991C144.172 472.863 144.716 469.476 145.241 466.142C145.707 463.184 146.882 459.205 146.206 456.51C145.719 454.565 143.706 453.407 142.233 452.352C140.836 451.345 138.872 449.989 138.001 448.468C136.955 446.647 134.914 438.142 138.79 437.876C141.65 437.678 140.417 444.082 141.44 446.22C142.205 447.822 144.45 448.966 146.088 450.297C147.707 451.617 149.746 453.347 150.255 455.898C150.86 458.933 149.839 462.528 149.3 465.776C148.6 469.988 147.665 475.084 149.54 478.317C152.925 484.158 163.557 483.22 164.753 491.735C165.497 497.025 163.218 501.34 161.792 505.644C160.379 509.895 158.759 514.42 158.267 519.127C157.572 525.756 157.922 535.861 158.262 542.314C158.388 544.708 159.256 548.739 156.638 549.101C154.273 549.429 154.361 546.548 154.238 543.532C153.91 535.484 153.476 527.55 154.112 520.481C154.531 515.843 155.741 511.349 157.106 507.306C158.528 503.09 160.559 499.183 160.805 494.778C161.01 491.06 159.494 489.354 157.127 487.898C155.941 488.479 154.397 488.702 152.959 488.89C146.385 489.743 137.552 490.179 133.108 488.358C130.919 487.46 129.055 485.806 128.814 482.897C128.31 476.883 133.349 471.01 133.629 464.495C133.961 456.823 125.64 454.645 122.837 449.567C119.558 443.635 122.696 433.698 126.093 429.524C127.899 427.303 130.206 425.8 133.665 425.438C137.46 425.039 141.376 426.072 144.341 427.441C147.229 428.778 150.187 430.687 151.761 432.892C154.792 437.145 153.278 444.436 155.944 448.862C158.578 453.237 164.509 455.599 167.529 459.913C171.798 466.013 167.318 474.849 164.152 480.34C163.406 481.632 162.386 484.038 160.502 484.072C157.455 484.133 159.313 480.988 160.433 479.08C161.074 477.993 162.11 476.131 162.708 474.898C164.11 472.012 166.021 467.732 165.13 464.353C164.492 461.938 162.196 459.899 160.127 458.246C156.008 454.953 151.881 452.098 150.52 445.736C149.725 442.018 150.118 437.659 148.181 435.033C146.676 432.994 144.309 431.691 141.476 430.473C139.083 429.444 135.092 428.176 131.926 429.428C127.72 431.097 125.391 438.927 125.597 443.983C125.865 450.542 132.264 452.399 135.489 456.828C136.763 458.572 137.801 460.841 137.683 464.006C137.565 467.253 136.193 470.694 135.092 473.715C134.226 476.095 131.898 480.471 133.175 483.347C134.095 485.414 138.053 485.817 141.022 485.937C144.591 486.082 148.303 485.619 151.73 485.376Z" fill="#1A1A5E"/>
<path d="M166.443 370.739C174.486 369.962 184.927 374.557 185.032 380.293C185.136 386.025 180.038 396.821 184.372 403.608C188.708 410.39 201.188 418.706 198.456 430.058C195.727 441.405 185 444.337 186.435 451.752C187.874 459.172 194.585 463.706 193.096 468.716C191.607 473.728 185.889 487.143 176.734 488.168C167.578 489.193 157.199 484.407 150.589 479.066C143.976 473.721 133.683 463.083 143.057 453.621C152.428 444.154 163.215 430.412 155.101 422.599C146.988 414.793 132.607 400.744 143.152 389.715C153.697 378.688 158.401 371.512 166.443 370.739Z" fill="#5D5FEF"/>
<path d="M178.348 491.21C180.057 496.47 183.075 501.529 182.861 507.791C182.645 514.145 180.225 519.054 177.782 524.054C175.447 528.834 173.623 533.774 172.984 540.529C172.696 543.573 172.502 547.197 172.422 550.137C172.36 552.48 173.49 558.558 170.317 558.826C167.878 559.034 168.259 555.818 168.292 552.832C168.371 545.47 168.85 537.524 170.561 531.522C171.764 527.312 173.802 523.546 175.554 519.797C177.405 515.832 179.184 512.047 178.858 506.926C178.576 502.514 176.621 497.957 175.184 494.155C172.118 486.036 168.843 479.154 165.747 470.942C164.292 467.091 162.195 462.601 162.342 458.018C162.555 451.365 167.297 445.19 170.787 440.375C173.521 436.6 176.735 431.997 176.493 426.118C176.433 424.639 176.022 423.293 175.371 422.093C173.273 418.235 169.638 415.332 166.874 411.854C165.499 410.127 164.43 408.047 163.478 405.78C162.434 403.287 161.342 400.247 161.758 397.178C162.014 395.292 162.789 393.505 163.853 391.545C164.443 390.46 165.943 387.285 168.225 388.088C170.182 388.777 168.535 391.236 167.855 392.415C165.824 395.945 165.15 399.002 166.943 403.533C167.585 405.155 168.482 407.093 169.333 408.381C172.64 413.387 178.094 416.497 179.885 422.043C181.491 427.016 179.635 433.446 177.761 436.975C174.415 443.274 166.811 449.633 166.42 457.407C166.268 460.453 167.408 463.174 168.271 465.748C170.756 473.192 174.123 480.604 176.831 487.597C179.924 485.898 183.146 483.224 186.12 480.496C188.668 478.155 192.385 474.55 192.437 471.058C192.487 467.6 190.16 465.32 188.552 463.08C186.613 460.376 183.848 457.536 184.302 452.949C184.978 446.138 193.271 443.444 196.149 438.203C198.565 433.801 198.884 425.718 196.677 421.015C195.271 418.026 192.543 415.956 190.353 413.697C185.896 409.102 182.088 403.648 183.249 394.001C183.49 392.002 183.923 390.122 184.245 388.255C184.553 386.456 185.122 383.974 184.666 381.845C184.132 379.36 182.447 377.646 181.016 376.29C178.992 374.371 176.13 372.405 172.508 372.413C167.511 372.419 163.072 374.833 159.958 376.723C153.232 380.804 148.306 386.212 145.16 392.925C143.558 396.348 142.109 401.46 143.067 405.283C143.672 407.703 145.418 409.516 147.01 411.292C148.618 413.09 150.259 414.892 151.738 416.479C154.862 419.831 158.731 423.873 159.361 428.778C160.193 435.252 157.157 440.004 154.256 444.431C151.318 448.913 147.373 452.999 145.34 457.239C143.147 461.813 143.525 470.214 146.161 473.896C148.25 476.813 153.619 479.897 157.304 481.982C158.87 482.87 160.777 483.883 163.044 485.089C164.628 485.93 168.345 486.908 167.588 489.071C166.549 492.024 161.83 488.863 160.571 488.197C158.172 486.923 156.069 485.692 154.127 484.562C150.04 482.185 145.049 479.527 142.548 475.916C139.568 471.61 139.01 462.944 141.233 457.24C142.945 452.845 146.624 448.833 149.479 444.758C152.233 440.827 155.712 435.745 155.467 430.587C155.214 425.281 151.231 421.727 147.839 418.168C144.307 414.458 139.643 410.751 138.833 405.424C138.126 400.787 139.582 396.126 141.176 392.543C145.68 382.441 155.576 372.286 168.549 369.336C173.584 368.195 178.298 369.358 181.501 371.459C184.754 373.595 188.514 377.36 188.912 381.947C189.462 388.302 186.307 393.382 187.206 400.378C188.326 409.079 197.139 412.407 200.436 419.343C203.56 425.911 202.487 435.489 198.851 440.69C197.388 442.79 195.224 444.623 193.071 446.518C191.175 448.19 188.46 450.767 188.292 453.451C188.122 456.111 190.692 458.938 192.158 460.937C194.246 463.784 197.371 467.713 196.197 472.686C195.221 476.837 191.748 480.179 188.686 483C185.372 486.06 182.186 488.582 178.348 491.21Z" fill="#1A1A5E"/>
<path d="M153.87 525.607H206.212C210.673 525.607 214.29 528.388 214.29 531.823L206.459 565.763C206.459 569.197 203.675 571.978 200.243 571.978H159.963C156.529 571.978 153.748 569.197 153.748 565.763L145.791 531.823C145.791 528.388 149.408 525.607 153.87 525.607Z" fill="url(#paint0_linear_202_1142)"/>
<path d="M200.242 573.842H159.963C155.508 573.842 151.88 570.217 151.88 565.763L143.978 532.246C143.926 527.366 148.389 523.741 153.87 523.741H206.213C211.693 523.741 216.157 527.366 216.157 531.821L208.276 566.18C208.325 570.217 204.697 573.842 200.242 573.842ZM153.87 527.47C150.503 527.47 147.658 529.462 147.658 531.821L155.561 565.337C155.614 568.162 157.564 570.114 159.963 570.114H200.242C202.642 570.114 204.593 568.162 204.593 565.763L212.472 531.403C212.424 529.462 209.58 527.47 206.213 527.47H153.87Z" fill="#1A1A5E"/>
<path d="M143.741 515.971H217.83C219.133 515.971 220.194 517.089 220.194 518.459L222.244 532.757C222.244 534.126 221.13 535.244 219.757 535.244H141.812C140.438 535.244 139.327 534.126 139.327 532.757L141.376 518.459C141.376 517.089 142.434 515.971 143.741 515.971Z" fill="url(#paint1_linear_202_1142)"/>
<path d="M219.758 537.107H141.812C139.413 537.107 137.459 535.156 137.459 532.757L139.533 518.195C139.51 516.059 141.408 514.108 143.741 514.108H217.83C220.163 514.108 222.061 516.059 222.061 518.459L224.09 532.493C224.112 535.156 222.158 537.107 219.758 537.107ZM143.741 517.836C143.472 517.836 143.243 518.122 143.243 518.459L141.17 533.021C141.192 533.099 141.469 533.378 141.812 533.378H219.758C220.101 533.378 220.379 533.099 220.379 532.757L218.35 518.723C218.328 518.122 218.099 517.836 217.83 517.836H143.741Z" fill="#1A1A5E"/>
<path d="M280.149 250.035L262.643 184.713C261.755 181.396 258.347 179.425 255.03 180.317L150.079 208.435C149.938 208.473 149.803 208.519 149.666 208.566L149.12 208.693C145.803 209.585 141.364 214.313 142.405 220.144L159.909 285.472C160.799 288.788 164.206 290.754 167.523 289.868L272.473 261.744C274.744 261.135 276.382 259.347 276.905 257.213C279.506 255.928 280.928 252.944 280.149 250.035Z" fill="white"/>
<path d="M165.919 291.945C162.349 291.945 159.074 289.559 158.11 285.953L140.602 220.627C139.317 213.458 144.546 207.99 148.635 206.892L149.248 206.749L254.544 178.515C256.64 177.961 258.81 178.24 260.681 179.321C262.547 180.402 263.885 182.143 264.444 184.227L281.948 249.553C282.867 252.986 281.415 256.604 278.469 258.47C277.58 260.945 275.529 262.853 272.959 263.546L168.006 291.667C167.306 291.854 166.606 291.943 165.919 291.945ZM256.648 181.967C256.27 181.967 255.887 182.015 255.512 182.117L150.564 210.236C150.542 210.242 150.106 210.379 150.085 210.385L149.539 210.511C147.262 211.122 143.359 214.878 144.238 219.817L161.711 284.99C162.332 287.311 164.748 288.683 167.037 288.066L271.991 259.945C273.522 259.531 274.71 258.314 275.094 256.769C275.221 256.235 275.582 255.785 276.075 255.541C277.928 254.627 278.879 252.515 278.347 250.518L260.843 185.194C260.54 184.071 259.822 183.133 258.814 182.55C258.145 182.165 257.401 181.967 256.648 181.967Z" fill="#1A1A5E"/>
<path d="M251.465 188.676L159.715 213.262C156.398 214.149 154.43 217.559 155.319 220.876L168.48 269.996C169.369 273.313 172.779 275.278 176.093 274.392L267.844 249.806C271.161 248.919 273.128 245.508 272.239 242.192L259.078 193.072C258.19 189.755 254.782 187.79 251.465 188.676Z" fill="#CACBFF"/>
<path d="M251.465 188.676L159.715 213.262C156.398 214.149 154.43 217.559 155.319 220.876L168.48 269.996C169.369 273.313 172.779 275.278 176.093 274.392L267.844 249.806C271.161 248.919 273.128 245.508 272.239 242.192L259.078 193.072C258.19 189.755 254.782 187.79 251.465 188.676Z" fill="#5D5FEF"/>
<path d="M174.473 276.471C173.073 276.471 171.691 276.103 170.445 275.386C168.574 274.306 167.235 272.561 166.681 270.475L153.518 221.358C152.96 219.273 153.246 217.094 154.324 215.225C155.402 213.357 157.146 212.018 159.228 211.461L250.978 186.875C255.293 185.727 259.725 188.291 260.879 192.589L274.042 241.709C275.191 246.019 272.629 250.458 268.324 251.607L176.577 276.191C175.882 276.378 175.173 276.471 174.473 276.471ZM251.947 190.477L160.196 215.063C159.074 215.364 158.136 216.084 157.555 217.09C156.974 218.096 156.82 219.269 157.12 220.394L170.282 269.514C170.581 270.636 171.303 271.574 172.307 272.154C173.32 272.736 174.495 272.89 175.608 272.591L267.359 248.004C269.679 247.386 271.057 244.993 270.44 242.671L257.278 193.554C256.662 191.245 254.275 189.858 251.942 190.479L251.947 190.477Z" fill="#1A1A5E"/>
<path d="M247.671 197.575L223.074 204.166C219.757 205.057 217.789 208.463 218.679 211.78L227.13 243.317C228.018 246.634 231.426 248.604 234.743 247.713L259.34 241.122C262.655 240.236 264.622 236.825 263.736 233.508L255.283 201.97C254.396 198.654 250.986 196.688 247.671 197.575Z" fill="white"/>
<path d="M166.844 229.711C166.016 229.711 165.263 229.16 165.043 228.324C164.779 227.329 165.369 226.307 166.364 226.044L212.011 213.931C213.019 213.674 214.027 214.261 214.291 215.256C214.555 216.25 213.965 217.272 212.97 217.537L167.324 229.649C167.161 229.69 167.003 229.711 166.844 229.711Z" fill="white"/>
<path d="M169.468 239.052C168.641 239.052 167.887 238.502 167.667 237.666C167.403 236.671 167.993 235.65 168.988 235.386L184.994 231.139C186.011 230.875 187.011 231.467 187.275 232.464C187.539 233.459 186.949 234.481 185.954 234.745L169.947 238.99C169.785 239.032 169.626 239.052 169.468 239.052Z" fill="white"/>
<path d="M192.575 232.92C191.747 232.92 190.995 232.37 190.774 231.534C190.51 230.539 191.1 229.517 192.095 229.253L214.52 223.304C215.524 223.042 216.536 223.632 216.8 224.628C217.064 225.623 216.474 226.645 215.479 226.909L193.055 232.859C192.892 232.9 192.733 232.92 192.575 232.92Z" fill="white"/>
<path d="M171.625 248.517C170.798 248.517 170.044 247.966 169.824 247.13C169.56 246.135 170.15 245.114 171.145 244.85L216.796 232.738C217.813 232.477 218.813 233.065 219.076 234.062C219.34 235.057 218.751 236.079 217.756 236.343L172.104 248.455C171.941 248.497 171.783 248.517 171.625 248.517Z" fill="white"/>
<path d="M174.17 258.524C173.342 258.524 172.588 257.973 172.368 257.137C172.104 256.142 172.694 255.121 173.689 254.856L219.34 242.744C220.344 242.475 221.357 243.072 221.621 244.069C221.885 245.063 221.295 246.085 220.3 246.349L174.649 258.462C174.486 258.504 174.328 258.524 174.17 258.524Z" fill="white"/>
<path d="M324.135 268.04C324.059 267.805 323.763 267.594 323.224 267.439L285.545 256.424C283.632 255.862 279.393 256.134 276.076 257.021L171.126 285.144C169.336 285.622 168.182 286.185 167.799 286.687C166.166 288.647 168.71 294.184 170.384 294.671L208.073 305.667C209.986 306.225 214.227 305.958 217.544 305.071L322.535 276.939C325.572 276.122 325.614 269.569 324.135 268.04Z" fill="white"/>
<path d="M210.835 307.828C209.585 307.828 208.436 307.716 207.546 307.456L169.859 296.461C167.79 295.858 166.359 292.819 165.844 291.117C165.123 288.76 165.307 286.761 166.364 285.493C166.566 285.227 167.329 284.23 170.643 283.343L275.591 255.219C278.761 254.37 283.502 253.879 286.073 254.636L323.747 265.65C324.834 265.959 325.406 266.498 325.701 267.004C327.071 268.745 327.234 272.249 326.565 274.664C325.961 276.841 324.702 278.287 323.021 278.739L218.028 306.873C215.959 307.425 213.208 307.828 210.835 307.828ZM282.802 257.997C281.028 257.997 278.673 258.257 276.555 258.822L171.612 286.944C170.04 287.364 169.358 287.765 169.226 287.884C169.177 287.963 169.049 288.418 169.238 289.361C169.586 291.068 170.616 292.669 171.039 292.935L208.595 303.877C209.994 304.288 213.816 304.141 217.065 303.272L322.052 275.137C322.347 275.058 322.668 274.598 322.888 273.935C323.483 272.157 323.166 269.817 322.779 269.322C322.704 269.238 285.021 258.215 285.021 258.215C284.537 258.072 283.753 257.997 282.802 257.997Z" fill="#1A1A5E"/>
<path d="M186.358 284.862L275.345 260.872C278.157 260.112 281.577 259.822 282.984 260.225L310.734 268.139C312.142 268.542 311.005 269.48 308.195 270.24L219.205 294.23C216.396 294.991 212.972 295.281 211.565 294.877L183.816 286.964C182.408 286.56 183.545 285.622 186.358 284.862Z" fill="#5D5FEF"/>
<path d="M562.467 562.621C559.217 550.34 548.448 510.779 545.085 507.043C541.719 503.309 534.432 503.801 531.539 504.355C528.643 504.908 521.057 509.641 521.057 509.641L514.126 506.542C514.126 506.542 514.147 500.917 511.705 499.014C509.264 497.112 500.454 492.977 494.699 487.649C488.943 482.325 480.568 473.178 480.568 473.178C480.568 473.178 483.288 466.856 478.809 452.329C474.33 437.803 462.875 406.777 462.875 406.777C462.875 406.777 462.92 374.178 463.182 365.204C463.444 356.23 462.667 337.909 460.32 324.44C457.969 310.967 455.201 293.441 455.201 293.441C455.201 293.441 465.662 239.971 462.664 230.704C459.662 221.434 452.536 214.246 445.134 211.085C437.726 207.921 437.156 207.469 435.279 200.979C433.401 194.483 432.781 188.945 432.781 188.945L434.585 182.739L446.556 175.29C446.556 175.29 455.61 172.66 455.744 168.743C456.033 160.315 451.315 155.496 451.315 155.496C451.315 155.496 453.556 148.969 450.996 144.426C448.439 139.881 449.514 137.63 446.303 138.139C443.094 138.647 438.157 138.405 438.157 138.405C438.157 138.405 428.933 126.86 421.835 129.92C414.739 132.981 414.662 134.88 414.662 134.88C414.662 134.88 406.526 129.315 403.307 133.76C400.089 138.205 401.187 143.884 401.187 143.884C401.187 143.884 398.617 146.767 399.869 148.721C401.119 150.676 402.714 151.224 402.714 151.224C402.714 151.224 402.544 154.449 399.298 159.968C396.049 165.482 396.435 168.35 393.841 168.595C391.248 168.84 389.748 168.938 390.454 171.607C391.159 174.275 393.071 175.711 393.071 175.711C393.071 175.711 393.344 184.697 399 187.157C404.653 189.623 413.358 187.492 415.027 193.472C416.696 199.445 415.115 206.014 415.115 206.014C415.115 206.014 399.169 206.225 390.839 208.994C382.508 211.764 376.459 217.205 376.459 217.205L370.172 214.554L358.124 180.333L356.579 164.464C356.579 164.464 357.5 157.095 356.366 152.048C355.235 147.006 354.132 142.38 353.031 143.239C351.931 144.099 351.404 152.358 351.404 152.358C351.404 152.358 348.802 142.667 345.972 140.025C343.141 137.383 340.046 135.264 338.534 137.078C337.023 138.893 338.878 149.73 338.878 149.73C338.878 149.73 336.897 146.648 333.047 143.877C329.198 141.111 325.387 137.394 323.545 139.354C321.701 141.317 322.425 143.828 325.068 146.449C327.708 149.072 330.614 150.614 330.614 150.614C330.614 150.614 334.73 164.354 331.263 166.171C327.792 167.984 324.812 168.782 323.248 166.672C321.681 164.563 320.984 160.141 318.041 160.049C315.095 159.958 311.059 162.256 314.092 167.488C317.12 172.716 320.907 176.87 326.039 180.876C331.17 184.882 334.897 185.073 334.897 185.073C334.897 185.073 341.333 216.205 342.954 224.174C344.575 232.142 344.427 234.101 346.085 235.919C347.743 237.738 352.56 242.219 352.56 242.219L323.37 278.044L294.169 276.09L271.876 268.342C271.876 268.342 263.523 261.934 260.834 263.183C258.144 264.437 254.567 268.813 252.921 277.087C251.272 285.356 249.523 296.033 251.256 298.881C252.987 301.724 258.642 305.386 258.951 301.932C259.259 298.482 257.826 295.789 257.826 295.789L260.302 291.611C260.302 291.611 274.885 298.314 279.897 297.941C284.905 297.568 287.509 296.246 287.509 296.246C287.509 296.246 318.032 307.576 330.958 304.621C343.881 301.666 375.936 268.421 375.936 268.421L382.566 321.01L331.203 467.776C331.203 467.776 331.266 494.376 350.942 497.492C370.619 500.602 376.013 493.776 382.911 489.888C389.806 485.994 422.313 462.929 422.313 462.929C422.313 462.929 437.692 500.773 455.971 516.878C474.251 532.987 494.663 542.49 499.079 542.701C503.494 542.908 508.8 537.707 508.8 537.707L516.329 546.01C516.329 546.01 521.814 565.467 528.139 573.785C534.469 582.098 550.524 589.744 556.626 586.019C562.728 582.29 565.719 574.903 562.467 562.621ZM403.083 425.745L415.474 398.163L417.1 418.776L403.083 425.745Z" fill="white"/>
<path d="M408.51 170.811L415.836 177.72L414.295 183.735L429.213 183.527L429.741 177.456L439.393 172.5L444.777 169.265L452.065 166.518C452.065 166.518 453.516 161.683 452.299 158.049C451.079 154.415 448.623 150.185 448.623 150.185C448.623 150.185 453.513 139.261 445.21 135.546C436.906 131.831 435.458 134.706 435.458 134.706C435.458 134.706 430.239 124.922 423.033 125.455C415.827 125.992 413.395 131.253 413.395 131.253C413.395 131.253 402.744 124.531 398.837 130.349C394.93 136.172 397.853 139.229 397.853 139.229C397.853 139.229 394.878 143.618 396.943 145.202C399.007 146.791 403.406 146.006 403.406 146.006C403.406 146.006 403.911 165.84 406.506 164.534C409.1 163.228 409.152 156.639 409.152 156.639C409.152 156.639 416.172 154.305 416.4 158.961C416.628 163.624 408.51 170.811 408.51 170.811Z" fill="#1A1A5E"/>
<path d="M422.939 127.416L425.102 127.28C431.876 128.185 436.509 131.311 439.514 136.126C443.325 135.837 446.908 135.641 449.213 137.346C450.876 138.58 451.84 140.754 452.744 142.729C454.349 146.256 455.874 150.033 453.958 154.107C456.481 157.77 459.564 165.416 455.9 170.919C455.095 172.128 454.045 172.704 452.885 173.301C451.673 173.924 450.368 174.098 448.835 174.773C447.8 175.233 446.9 176.411 445.821 177.279C442.792 179.712 439.105 181.776 435.359 183.413C433.581 186.959 434.622 190.752 435.31 195.601C435.832 199.274 436.149 202.758 437.636 204.959C444.759 208.574 452.177 211.278 457.188 216.404C462.353 221.695 464.427 230.215 464.6 240.31C464.681 245.054 463.993 249.823 463.314 254.524C461.686 265.817 459.84 276.954 457.906 288.124C457.523 290.322 456.817 292.563 456.744 294.652C456.668 296.757 457.342 299.11 457.751 301.412C458.885 307.769 460 314.812 461.267 320.926C463.045 329.496 465.2 337.766 465.79 347.081C466.408 356.836 465.728 366.906 465.405 376.71C465.18 383.626 464.97 391.162 464.634 398.447C464.519 400.878 463.99 403.78 464.372 405.65C464.556 406.535 465.878 407.741 466.464 408.811C468.265 412.092 469.787 416.351 471.112 419.97C475.848 432.892 479.868 446.2 483.018 460.772C483.92 464.954 485.17 470.325 482.986 473.808C489.746 481 497.241 487.765 505.988 493.448C509.903 495.994 514.502 497.9 515.704 503.074C518.045 503.25 520.051 503.401 522.336 503.759C523.128 503.88 523.779 504.16 524.633 504.102C525.723 504.026 526.57 503.416 527.544 503.065C530.669 501.95 534.027 501.819 537.593 502.318C541.364 502.845 545.612 503.968 547.857 506.913C549.194 508.664 549.954 511.633 550.782 514.16C556.525 531.673 561.426 551.354 564.871 570.909L564.88 571.396C564.19 579.259 561.235 585.748 554.074 587.419C550.022 588.367 545.999 587.626 542.603 586.679C532.438 583.839 526.921 577.126 522.92 567.684C520.253 561.382 518.022 554.684 515.972 548.504C515.915 548.338 515.9 548.264 515.838 548.144C514.933 546.468 513.306 544.914 512.065 543.387C510.724 541.742 509.245 540.285 508.162 538.633C506.793 539.901 505.909 541.087 504.4 542.035C500.415 544.547 496.394 542.508 492.669 541.063C485.362 538.232 478.915 535.017 472.891 531.339C448.533 516.448 432.091 491.18 421.438 463.891C408.316 473.01 394.81 483.415 380.665 492.147C375.8 495.15 370.732 497.951 363.841 498.804C348.277 500.734 338.196 495.874 333.196 486.467C330.574 481.527 328.604 475.245 329.202 468.684C329.489 465.484 330.19 462.424 330.95 459.438C331.687 456.555 332.416 453.658 333.349 450.758C336.861 439.849 340.934 428.928 344.887 417.996C356.195 386.712 367.672 355.754 378.94 324.368C379.493 322.825 380.316 321.344 380.397 320.257C380.528 318.484 379.929 316.145 379.655 314.093C377.753 299.829 375.628 285.148 373.955 271.197C372.27 272.148 371.047 273.701 369.691 274.994C365.355 279.137 361.137 283.208 356.783 287.254C351.005 292.627 345.518 298.617 338.585 302.77C334.639 305.132 330.687 306.698 325.543 306.997C320.736 307.27 316.169 306.112 311.756 305.055C305.499 303.557 299.561 301.215 293.829 299.232C291.898 298.568 289.902 297.663 287.936 297.165C286.891 296.899 284.925 298.125 284.009 298.385C282.727 298.75 281.315 299.082 280.075 299.243C276.808 299.649 274.819 299.047 272.418 298.135C270.265 297.318 268.22 296.424 266.26 295.476C264.368 294.555 262.656 293.246 260.481 292.669C260.193 293.455 259.864 294.202 259.372 294.807C259.731 297.01 261.783 298.11 261.259 300.906C260.827 303.199 256.92 304.625 254.178 303.904C250.121 302.839 247.938 297.003 248.623 291.705C248.82 290.175 249.537 288.797 249.818 287.244C250.069 285.867 250.111 284.292 250.377 282.699C250.901 279.585 251.639 276.657 252.263 273.808C252.626 272.162 252.6 270.646 253.203 269.243C254.493 266.257 257.009 263.037 259.698 261.769C262.484 260.455 265.52 261.779 267.739 262.854C269.922 263.908 271.717 265.332 273.651 266.139C276.715 267.415 280.788 268.405 284.283 269.736C285.944 270.368 287.677 271.102 289.411 271.728C291.242 272.396 293.121 273.267 294.791 273.586C297.014 274.012 299.58 273.985 301.929 274.114C309.414 274.524 316.225 274.764 323.728 275.311C332.99 264.525 341.929 253.447 351.051 242.536C347.766 239.83 343.969 237.181 342.606 232.585C341.236 227.976 340.299 222.65 339.288 217.32C337.315 206.933 335.282 195.974 333.526 185.762C325.704 183.731 318.426 177.905 314.176 171.132C312.516 168.491 310.631 164.232 311.957 160.549C313.519 156.212 320.673 157.535 322.658 160.735C323.26 161.704 323.327 163.327 323.988 164.059C324.917 165.095 327.122 165.481 328.588 165.113C331.926 164.279 330.871 159.757 330.224 156.483C329.826 154.471 329.521 151.952 328.983 150.956C328.666 150.364 327.75 149.689 327.041 149.127C325.122 147.601 322.103 145.771 321.217 143.523C319.461 139.085 322.526 135.064 326.958 136.828C329.927 138.009 332.859 140.289 335.329 142.273C335.502 142.413 336.009 143.393 336.227 142.704C336.429 142.075 335.951 140.735 335.926 139.923C335.827 136.848 336.873 135.023 339.792 135.171C344.539 135.421 348.212 139.839 349.99 143.186C350.898 142.739 351.364 141.331 353.014 141.291C356.386 141.209 357.813 147.102 358.394 150.703C358.786 153.129 358.93 155.332 358.767 157.622C358.614 159.797 357.915 162.043 357.859 164.134C357.799 166.492 358.441 169.095 358.752 171.633C359.067 174.205 359.065 176.874 359.515 179.02C360.106 181.838 361.497 184.767 362.464 187.603C365.409 196.247 368.462 205.238 371.311 213.488C372.22 214.116 373.618 214.235 374.394 215.006C382.215 206.181 398.564 204.864 414.558 203.234C414.156 198.956 414.451 194.184 412.197 191.805C410.274 189.778 406.213 190.289 402.617 189.967C397.455 189.508 393.576 184.959 392.524 180.612C392.043 178.628 390.859 173.23 393.925 173.213C395.434 173.202 395.645 174.568 395.76 176.267C396.071 180.831 397.876 184.608 401.02 185.928C403.128 186.813 406.043 186.452 408.291 186.688C410.81 186.957 412.865 187.432 414.437 188.741C417.467 191.264 417.878 196.158 418.349 201.535C423.292 200.679 428.68 200.912 432.493 201.989C431.698 198.107 431.168 193.947 430.629 189.801C427.835 189.972 425.299 190.189 422.612 190.178C420.305 190.175 417.314 190.432 416.095 188.881C414.533 186.895 416.577 184.091 416.235 182.172C415.987 180.786 414.267 179.482 413.115 178.468C412.208 177.67 409.979 176.172 409.743 174.904C409.235 172.14 412.66 170.979 414.487 169.366C415.137 168.797 415.891 167.83 416.483 166.928C417.823 164.891 418.346 163.262 416.271 161.949C415.627 161.538 414.244 161.16 414.371 162.55C414.456 163.474 414.87 162.763 415.655 163.2C417.657 164.317 415.47 166.665 413.158 166.037C412.328 167.8 411.805 170.298 409.408 170.172C405.874 169.987 405.269 158.857 405.269 158.857C405.269 158.857 405.134 156.217 404.943 154.859C404.333 154.745 404.189 155.476 403.816 155.905C402.514 157.383 401.163 158.787 400.205 160.636C398.854 163.24 398.076 166.246 396.507 167.81C395.248 169.071 388.645 172.265 389.003 168.403C389.199 166.313 392.404 166.71 393.792 165.423C395.765 161.124 398.066 156.7 400.973 153.401C401.331 152.992 402.071 152.68 401.969 152.121C399.058 151.926 397.573 149.912 398.568 146.848C398.803 146.125 399.558 145.172 399.546 144.474C399.53 143.541 398.561 142.66 398.479 141.616C398.136 137.288 400.416 133.232 403.652 131.545C407.087 129.758 412.045 129.913 416.013 131.991C418.142 130.308 419.88 128.282 422.939 127.416ZM432.262 181.17C432.88 180.341 435.033 179.705 436.301 179.092C439.332 177.62 441.374 176.049 443.605 174.25C444.733 173.338 445.861 172.132 446.998 171.601C449.157 170.593 451.321 170.742 452.562 169.303C453.616 168.074 453.782 165.944 453.749 164.231C453.695 161.549 452.709 159.748 451.732 158.021C451.113 156.929 450.106 155.838 450.022 154.84C449.886 153.23 451.129 151.668 451.082 149.781C451.038 148.06 450.146 145.917 449.329 144.161C447.778 140.828 446.665 139.478 442.373 139.479C440.819 139.485 439.167 140.125 437.794 139.766C436.559 139.443 436.051 137.809 435.193 136.641C434.432 135.603 433.166 134.22 432.342 133.651C430.618 132.461 427.395 131.031 424.783 130.955C422.249 130.883 421.309 132.257 419.861 133.575C419.023 134.341 417.852 135.848 416.718 135.97C415.669 136.077 414.126 135.203 413.133 134.852C410.338 133.864 405.615 133.188 403.602 136.054C402.87 137.102 401.984 139.512 402.295 141.378C402.477 142.483 403.554 142.679 403.614 144.095C403.689 145.888 402.269 146.346 402.032 148.337C403.826 149.292 407.098 147.97 408.291 149.408C409.174 150.48 408.71 154.421 408.922 156.679C409.191 159.527 409.624 161.881 409.931 163.558C411.049 161.36 411.595 158.204 414.288 157.686C416.597 157.238 418.92 158.914 420.06 160.125C421.061 161.189 421.78 162.661 421.539 164.663C421.044 168.754 416.855 172.17 414.058 174.023C417.002 176.874 421.853 180.162 419.363 186.364C422.563 186.886 426.813 186.32 430.691 186.142C431.521 184.523 431.329 182.428 432.262 181.17ZM346.058 159.028C342.974 159.492 344.096 156.14 344.315 153.895C344.461 152.365 344.454 150.65 344.361 149.143C344.101 144.902 343.559 139.317 339.856 138.946C339.828 138.801 339.713 138.881 339.603 138.962C339.822 141.127 340.172 143.464 340.624 146.572C340.994 149.118 343.135 154.99 339.75 155.036C338.011 155.058 337.33 151.95 336.747 150.713C334.196 145.295 329.758 142.299 324.722 140.017C324.295 142.825 326.441 143.803 327.863 145.058C329.212 146.242 331.551 147.323 332.386 148.917C333.275 150.612 333.46 153.125 333.897 155.278C334.35 157.529 335.02 160.013 334.78 162.29C334.458 165.345 331.888 168.286 328.777 168.757C324.55 169.394 319.674 166.958 319.379 162.645C318.326 162.04 317.372 161.336 315.666 161.416C314.843 166.318 317.183 169.1 319.278 171.664C322.29 175.356 325.601 178.556 330.127 180.614C331.936 181.434 336.139 182.178 336.929 183.719C337.427 184.686 337.406 186.108 337.628 187.331C338.315 191.113 339.042 194.732 339.603 198.536C344.264 194.893 352.247 191.774 360.264 192.984C359.353 188.934 356.841 184.654 355.838 179.981C355.321 177.563 355.249 174.743 354.94 171.995C354.64 169.361 353.928 166.527 354.038 164.009C354.129 161.921 354.954 159.741 355.073 157.489C355.295 153.278 354.492 149.314 352.965 146.044C353.134 148.65 353.016 151.963 352.855 154.461C352.719 156.589 353.249 158.823 351.024 158.962C347.322 159.193 350.052 150.769 348.302 148.773C348.129 152.236 348.998 158.582 346.058 159.028ZM366.565 211.472C365.451 208.255 364.56 205.634 363.483 202.53C362.97 201.049 362.669 199.035 361.878 198C360.464 196.148 356.663 196.192 354.211 196.529C348.302 197.335 343.235 199.33 340.572 203.106C341.85 210.222 343.219 218.22 344.774 225.383C345.304 227.823 345.683 230.503 346.55 232.463C347.961 235.653 351.249 237.539 353.427 239.83C357.918 234.234 362.823 228.65 367.403 223.237C368.956 221.406 370.635 219.655 371.893 217.719C368.075 217.267 367.693 214.73 366.565 211.472ZM457.313 320.442C456.127 314.42 454.992 307.769 453.935 301.65C453.556 299.467 452.794 296.871 452.928 294.89C453.155 291.565 454.054 287.946 454.66 284.427C456.457 273.942 458.254 263.213 459.724 252.918C460.732 245.857 461.217 237.689 459.847 230.496C458.54 223.612 455.432 218.849 450.423 215.489C445.693 212.314 440.659 211.382 435.911 208.355C435.05 207.806 434.457 206.703 433.456 206.195C432.014 205.463 429.868 205.05 427.703 204.85C425.253 204.617 420.998 204.248 418.666 205.17C417.778 205.52 417.646 206.343 416.653 206.634C415.164 207.077 413.202 207.011 411.442 207.204C399.393 208.524 386.719 209.444 379.491 215.174C378.144 216.238 376.829 217.814 375.612 219.193C371.86 223.426 368.154 228.027 364.628 232.183C351.05 248.182 338.176 263.87 324.699 280.001C323.465 281.476 322.012 283.884 320.433 283.804C319.462 283.749 318.967 283.021 318.883 282.438C318.632 280.707 320.932 279.634 320.73 278.787C318.143 278.576 316.247 278.51 313.845 278.366C311.9 278.248 308.662 277.615 306.836 278.074C304.009 278.784 302.202 284 301.507 286.449C300.778 288.995 299.61 295.819 301.703 297.891C302.277 298.456 303.88 298.737 304.778 299.034C308.122 300.137 311.406 301.117 314.629 301.831C319.287 302.859 324.002 304.188 329.796 302.709C338.594 300.467 345.476 292.965 350.935 287.745C361.909 277.247 372.01 267.631 383.009 257.228C384.632 255.697 386.153 253.169 387.907 253.147C388.575 253.138 389.651 253.686 389.717 254.74C389.796 255.999 387.872 257.458 386.977 258.323C383.509 261.671 380.113 264.733 377.211 267.944C379.292 282.597 381.395 298.82 383.47 313.854C383.779 316.079 384.41 318.697 384.222 320.626C384.08 322.12 383.13 324.074 382.527 325.73C380.659 330.854 378.703 335.942 376.93 340.82C390.51 335.612 407.187 337.811 421.335 338.776C436.266 339.791 450.146 341.507 461.816 345.504C461.286 336.488 458.94 328.695 457.313 320.442ZM293.579 277.196C291.956 276.852 290.035 275.906 288.197 275.216C284.47 273.826 280.968 272.348 277.303 271.148C275.343 270.503 273.257 270.21 271.545 269.439C268.429 268.029 265.814 264.956 261.915 264.799C260.9 264.761 259.901 266.102 259.274 266.794C258.628 267.506 257.802 268.27 257.908 268.829C260.704 267.827 269.534 266.801 269.516 269.928C269.5 272.505 266.299 271.491 264.066 271.488C260.373 271.48 256.549 272.363 256.098 274.667C257.795 273.848 267.573 271.126 266.93 275.083C266.527 277.564 260.683 276.564 258.058 277.589C256.404 278.239 254.439 279.677 254.304 281.478C254.879 281.378 255.701 280.687 256.45 280.369C258.685 279.429 265.599 277.761 265.501 280.902C265.417 283.57 260.224 282.552 257.654 283.706C254.088 285.308 252.087 289.925 252.231 294.279C252.33 297.257 254.003 301.355 257.426 300.166C257.286 298.285 255.565 297.451 255.436 295.541C255.326 293.897 256.459 292.691 257.147 291.292C257.914 289.731 258.389 288.39 259.641 288.211C260.832 288.045 262.76 289.359 264.002 290.012C265.558 290.83 266.863 291.465 268.111 292.068C272.505 294.188 275.904 296.822 281.79 295.236C281.529 294.724 280.584 294.373 280.612 293.361C280.694 290.417 284.368 292.045 286.076 292.65C289.627 293.91 294.24 295.451 297.093 296.468C295.955 288.792 298.379 282.29 301.608 277.67C299.076 277.257 296.375 277.79 293.579 277.196ZM410.943 341.618C404.63 341.282 398.014 340.532 391.832 341.107C385.772 341.67 380.719 343.641 375.346 345.062C363.334 378.485 350.685 411.977 339.117 445.525C337.408 450.487 335.997 455.379 334.663 460.544C333.244 466.04 332.318 471.086 333.801 477.169C336.349 487.608 342.319 494.131 353.98 495.402C359.333 495.982 366.818 495.395 371.766 493.072C376.136 491.02 380.395 488.132 384.498 485.452C396.874 477.368 408.694 468.554 420.226 460.067C418.849 459.492 417.487 458.639 416.364 457.628C409.597 451.554 404.675 439.688 406.418 426.939C389.411 436.477 370.875 446.178 353.687 455.943C352.035 456.883 349.093 458.52 348.97 455.75C348.889 453.856 353.027 452.242 354.5 451.386C356.858 450.016 359.05 449.073 361.061 447.928C373.92 440.623 386.962 433.563 399.66 426.511C408.07 407.29 416.563 387.531 425.023 368.271C425.768 366.577 427.321 360.701 429.735 360.789C431.951 360.871 431.108 363.379 430.565 364.636C426.649 373.663 423.168 381.862 419.294 390.679C418.642 392.168 417.491 393.978 417.331 395.069C417.11 396.592 417.573 398.452 417.674 400.166C417.994 405.575 418.079 410.967 418.455 416.075C425.34 412.312 433.71 408.06 441.297 404.049C443.933 402.657 446.496 400.929 449.641 400.479C453.26 399.963 456.763 401.026 458.965 402.089C459.6 402.399 460.25 402.914 460.632 402.716C461.254 385.159 462.455 367.488 462.009 349.391C447.8 344.454 429.173 342.594 410.943 341.618ZM405.085 423.492C408.288 421.636 411.81 420.06 414.795 418.01C414.366 413.172 414.369 407.88 413.905 403.082C410.973 409.89 407.896 416.575 405.085 423.492ZM440.984 415.521C442.246 415.705 444.252 415.685 445.071 416.237C445.757 416.704 446.431 418.851 446.923 420.263C450.158 429.556 453.071 438.036 456.295 446.971C456.855 448.522 457.768 450.363 457.774 451.508C457.777 452.841 456.818 454.658 456.326 456.229C455.824 457.819 455.128 459.536 455.139 461.297C455.156 463.83 456.426 465.855 456.782 468.016C458.922 469.781 460.66 471.77 463.105 472.982C466.294 474.562 477.674 476.246 479.899 472.052C480.96 470.054 480.123 465.854 479.622 463.297C476.271 446.214 471.388 431.162 465.709 416.777C464.724 414.277 463.956 411.676 462.661 409.78C460.547 406.675 454.742 402.744 449.196 404.287C443.866 405.765 439.398 409.488 434.171 411.681C435.573 414.411 437.578 415.022 440.984 415.521ZM430.639 413.608C426.937 415.628 423.237 417.643 419.535 419.664C418.271 424.824 418.542 430.733 419.683 435.738C420.79 440.583 422.574 445.314 425.995 447.403C428.383 446.928 430.419 447.853 432.89 448.434C434.762 448.873 436.814 449.04 438.133 449.688C439.262 450.253 440.475 451.932 441.498 453.013C444.615 456.289 447.564 459.531 450.701 462.428C450.882 462.592 451.077 463.146 451.473 462.869C451.266 459.851 451.789 458.131 452.499 455.858C452.921 454.511 453.841 452.84 453.827 451.631C453.816 450.592 452.96 448.922 452.484 447.573C449.159 438.152 445.624 428.607 442.58 419.441C436.927 419.229 432.941 417.289 430.639 413.608ZM414.993 422.14C413.806 422.982 412.233 423.491 411.467 424.43C410.17 426.029 409.762 428.564 409.667 430.879C409.347 438.784 412.972 447.435 416.39 451.659C418.039 450.752 419.962 450.084 421.697 449.253C416.698 443.75 413.883 432.798 414.993 422.14ZM482.952 479.296C482.016 478.394 481.185 477.264 479.978 476.678C473.996 479.221 466.069 478.407 461.767 476.477C459.3 475.372 456.891 473.27 454.674 471.317C449.056 466.371 444.195 461.475 439.131 456.085C438.076 454.96 437.074 453.502 436.024 452.988C434.648 452.315 432.628 452.327 431.293 451.822C430.684 456.443 428.139 459.357 424.579 461.381C438.186 496.496 458.81 524.334 493.626 537.472C491.642 530.474 492.406 522.555 494.148 515.995C496.212 508.238 499.706 501.266 505.291 497.39C496.877 492.473 489.703 485.794 482.952 479.296ZM503.248 504.466C498.836 511.449 496.033 519.85 496.315 530.968C499.025 531.134 500.773 532.294 503.221 532.73C500.889 523.086 502.937 512.057 507.862 506.246C506.305 505.671 504.384 505.475 503.248 504.466ZM538.43 580.968C542.173 583.083 547.571 584.861 552.489 584.112C558.308 583.219 561.104 577.371 561.057 571.268C561.035 568.612 560.199 565.67 559.64 562.951C556.301 546.662 552.403 531.182 547.507 516.195C546.692 513.699 545.889 510.715 544.714 509.179C542.53 506.331 535.503 505.01 530.137 505.708C527.698 506.022 525.526 507.408 523.693 508.668C522.028 509.815 520.092 511.238 519.568 513.189C518.82 515.984 519.717 519.477 520.599 521.408C521.378 523.112 522.771 524.468 523.86 525.835C524.989 527.253 526.574 528.622 527.244 530.134C528.389 532.711 528.824 536.527 529.439 539.376C530.906 546.148 532.159 551.281 533.707 557.994C534.215 560.205 536.316 565.899 534.627 567.196C532.563 568.778 527.982 566.779 526.59 566.361C528.994 572.698 532.526 577.635 538.43 580.968ZM507.958 534.14C510.123 534.68 511.111 536.27 512.35 537.764C513.11 538.683 513.816 539.746 514.564 540.669C516.008 542.455 518.252 544.466 519.246 546.349C520.208 548.174 520.813 550.698 521.519 552.788C522.212 554.827 522.588 557.271 523.662 558.983C524.127 559.727 525.272 560.524 526.25 561.383C527.741 562.692 529.058 563.681 531.132 563.878C528.681 553.166 526.189 542.498 523.832 531.685C520.365 528.352 515.762 522.626 515.668 515.868C515.633 513.389 516.323 511.04 517.597 509.661C517.972 509.25 518.761 508.898 518.599 508.499C516.759 507.883 514.21 508.01 512.215 507.56C506.009 512.091 504.709 525.703 507.958 534.14Z" fill="#1A1A5E"/>
<path d="M401.438 168.483C402.448 168.239 403.707 168.551 403.611 170.147C403.509 171.839 399.018 176.097 396.906 176.088C395.988 176.086 395.163 175.458 395.113 174.519C395.038 173.155 396.88 172.478 397.84 171.706C399.238 170.587 399.941 168.839 401.438 168.483Z" fill="#1A1A5E"/>
<path d="M463.119 346.252C463.119 346.252 456.042 342.504 435.208 339.314C414.373 336.12 396.533 335.232 391.323 336.626C386.113 338.021 374.709 340.197 374.709 340.197L381.422 319.162L374.439 265.589C374.439 265.589 344.682 293.204 339.358 297.434C334.037 301.665 326.902 303.813 316.821 301.854C306.741 299.899 300.553 296.118 300.553 296.118C300.553 296.118 297.183 290.737 299.593 284.363C302.003 277.994 305.609 274.225 305.609 274.225L324.311 274.505L354.01 238.29C354.01 238.29 346.177 237.465 344.498 228.876C342.821 220.287 338.068 200.221 338.068 200.221C338.068 200.221 342.122 195.338 350.593 193.776C359.061 192.215 362.62 195.313 362.62 195.313L370.875 212.522L374.701 214.694C374.701 214.694 380.543 206.669 390.1 206.5C399.657 206.33 414.826 204.355 414.826 204.355L416.805 201.938C416.805 201.938 424.229 201.439 427.542 201.869C430.853 202.304 434.754 202.506 434.754 202.506C434.754 202.506 437.979 206.677 443.581 208.947C449.184 211.218 459.926 216.493 461.353 228.696C462.78 240.899 453.606 292.473 453.606 292.473C453.606 292.473 456.286 312.382 459.05 322.631C461.815 332.886 463.119 346.252 463.119 346.252Z" fill="#1A1A5E"/>
<path d="M512.753 506.42L506.144 505.138C506.144 505.138 498.852 509.167 497.373 518.163C495.894 527.159 496.408 535.787 496.408 535.787L505.411 536.313L501.491 544.066C501.491 544.066 478.728 534.984 462.361 522.895C436.78 504.006 423.709 462.936 423.709 462.936C423.709 462.936 383.325 490.462 375.11 495.291C366.894 500.115 359.039 501.342 348.687 498.397C338.335 495.452 329.496 480.095 332.075 467.822C334.652 455.549 375.482 346.892 375.482 346.892C375.482 346.892 390.112 339.903 406.435 342.049C413.277 342.946 429.44 343.28 440.31 344.894C455.385 347.141 464.731 350.633 464.731 350.633L462.301 408.441C462.301 408.441 454.8 399.783 437.369 409.877C419.938 419.976 416.786 421.101 416.786 421.101L416.117 396.796L402.596 428.406L411.142 424.361C411.142 424.361 405.445 431.436 409.044 442.417C412.64 453.399 416.736 455.137 416.736 455.137L424.544 452.467L437.379 454.814C437.379 454.814 455.733 475.718 465.522 478.007C475.308 480.293 481.85 477.224 481.85 477.224C481.85 477.224 488.57 487.636 498.211 493.16C507.852 498.682 510.643 499.892 511.911 501.628C513.179 503.363 512.753 506.42 512.753 506.42Z" fill="white"/>
<path d="M454.172 471.442C454.172 471.442 453.124 466.544 453.901 463.052C454.677 459.565 456.436 454.979 456.436 454.979L444.382 420.158C444.382 420.158 438.96 421.025 436.862 419.655C434.763 418.282 432.318 414.459 432.318 414.459L417.682 422.315C417.682 422.315 415.126 431.098 418.241 440.065C421.355 449.036 423.149 451.576 423.149 451.576L426.206 451.628L438.608 454.751L454.172 471.442Z" fill="#1A1A5E"/>
<path d="M526.055 537.549L532.726 573.34C532.726 573.34 527.439 573.786 525.361 572.077C523.284 570.367 517.866 555.853 517.866 555.853L509.547 544.096L505.269 542.641C505.269 542.641 503.283 529.215 505.953 522.474C508.621 515.729 512.085 511.907 512.085 511.907L526.158 513.616C526.158 513.616 518.874 514.822 517.689 523.096C516.502 531.37 526.055 537.549 526.055 537.549Z" fill="#1A1A5E"/>
<path d="M463.308 412.006C467.742 417.657 474.258 439.005 478.097 448.507C481.933 458.01 483.868 474.341 480.879 475.568C477.889 476.795 472.386 474.617 465.926 459.44C459.463 444.268 455.114 430.909 453.049 421.964C450.986 413.018 446.267 406.863 452.137 406.319C458.008 405.775 458.873 406.356 463.308 412.006Z" fill="#5D5FEF"/>
<path d="M546.263 517.149C548.246 520.542 559.832 560.528 561.501 568.679C563.171 576.833 564.645 585.951 559.632 587.715C554.619 589.48 546.906 590.363 540.376 565.557C533.843 540.75 528.864 525.13 532.931 516.251C535.951 509.662 544.281 513.762 546.263 517.149Z" fill="#5D5FEF"/>
<path d="M400.216 155.78C399.182 155.637 398.182 156.335 397.983 157.336L397.411 160.235C397.212 161.235 397.89 162.158 398.925 162.3C399.961 162.442 400.96 161.745 401.159 160.745L401.731 157.846C401.928 156.845 401.252 155.922 400.216 155.78Z" fill="#1A1A5E"/>
<defs>
<linearGradient id="paint0_linear_202_1142" x1="145.791" y1="525.607" x2="217.733" y2="531.766" gradientUnits="userSpaceOnUse">
<stop stop-color="#EF2555"/>
<stop offset="1" stop-color="#FF3767"/>
</linearGradient>
<linearGradient id="paint1_linear_202_1142" x1="139.327" y1="515.971" x2="221.914" y2="536.565" gradientUnits="userSpaceOnUse">
<stop stop-color="#EF2555"/>
<stop offset="1" stop-color="#FF3767"/>
</linearGradient>
</defs>
</svg>
