<svg width="632" height="650" viewBox="0 0 632 650" fill="none" xmlns="http://www.w3.org/2000/svg">
<path d="M92.9684 600.556C90.5284 603.235 87.7857 605.533 84.8307 607.421L85.3895 617.378L70.0499 622.24L65.3944 613.582C61.9499 613.723 58.473 613.397 55.0512 612.575L48.6379 620.148L34.664 612.422L37.3467 602.786C34.8003 600.309 32.6286 597.512 30.8582 594.486L21.226 595.244L16.8027 579.455L25.2552 574.48C25.1807 570.917 25.559 567.312 26.4154 563.757L19.2114 557.254L26.9305 542.652L36.1943 545.255C38.6346 542.575 41.3769 540.277 44.3327 538.39L43.7746 528.433L59.1135 523.57L63.7694 532.23C67.2128 532.089 70.6907 532.415 74.1115 533.238L80.5263 525.663L94.5001 533.39L91.8167 543.024C94.3623 545.502 96.5345 548.3 98.3049 551.325L107.938 550.567L112.361 566.356L103.908 571.331C103.983 574.894 103.605 578.499 102.749 582.054L109.953 588.557L102.234 603.159L92.9684 600.556ZM84.4076 584.726C90.5629 573.081 86.5199 558.646 75.3761 552.485C64.233 546.324 50.2099 550.769 44.0546 562.414C37.8993 574.058 41.9423 588.493 53.0853 594.654C64.2292 600.815 78.2523 596.37 84.4076 584.726Z" fill="#D1D7FA"/>
<path d="M618.891 253.268C618.067 254.173 617.14 254.949 616.141 255.586L616.33 258.951L611.147 260.594L609.574 257.669C608.41 257.716 607.235 257.606 606.079 257.328L603.912 259.887L599.19 257.276L600.097 254.021C599.237 253.184 598.503 252.239 597.905 251.216L594.65 251.472L593.155 246.138L596.011 244.456C595.986 243.253 596.114 242.035 596.403 240.833L593.969 238.636L596.577 233.702L599.707 234.582C600.532 233.677 601.459 232.9 602.457 232.263L602.268 228.898L607.452 227.255L609.025 230.181C610.189 230.134 611.364 230.244 612.519 230.521L614.687 227.962L619.408 230.572L618.502 233.828C619.362 234.665 620.096 235.61 620.694 236.633L623.948 236.377L625.443 241.711L622.587 243.392C622.611 244.596 622.485 245.814 622.195 247.016L624.63 249.213L622.021 254.147L618.891 253.268ZM615.998 247.918C618.078 243.984 616.711 239.106 612.947 237.025C609.182 234.943 604.443 236.445 602.363 240.379C600.283 244.313 601.649 249.191 605.414 251.273C609.179 253.355 613.918 251.853 615.998 247.918Z" fill="#0D30C7"/>
<path d="M586.277 200.377C586.439 202.531 586.315 204.664 585.932 206.727L590.399 210.483L586.305 219.207L580.745 217.782C579.42 219.359 577.884 220.762 576.158 221.942L576.807 227.817L567.897 230.879L564.87 225.821C562.791 225.949 560.726 225.783 558.725 225.348L555.177 229.904L546.671 225.51L547.948 219.78C546.4 218.38 545.017 216.764 543.846 214.957L538.179 215.523L535.059 206.247L539.892 203.205C539.731 201.05 539.854 198.917 540.238 196.854L535.771 193.098L539.865 184.373L545.426 185.799C546.75 184.223 548.287 182.819 550.012 181.639L549.363 175.764L558.273 172.703L561.3 177.76C563.379 177.633 565.444 177.798 567.444 178.233L570.994 173.676L579.499 178.071L578.222 183.801C579.77 185.2 581.153 186.816 582.324 188.623L587.991 188.057L591.111 197.333L586.277 200.377ZM576.091 197.791C573.603 190.394 565.827 186.377 558.723 188.818C551.618 191.26 547.876 199.235 550.363 206.633C552.851 214.03 560.627 218.047 567.731 215.606C574.835 213.165 578.578 205.188 576.091 197.791Z" fill="#0D30C7"/>
<path d="M205.058 151.923C205.437 156.97 205.147 161.97 204.248 166.802L214.716 175.602L205.124 196.044L192.095 192.704C188.993 196.399 185.391 199.688 181.348 202.452L182.869 216.216L161.994 223.389L154.902 211.541C150.03 211.841 145.192 211.45 140.504 210.432L132.188 221.107L112.26 210.811L115.253 197.385C111.626 194.107 108.382 190.321 105.639 186.086L92.3627 187.412L85.0534 165.677L96.3763 158.549C95.9989 153.502 96.2884 148.501 97.1883 143.668L86.7204 134.868L96.3128 114.427L109.343 117.768C112.446 114.074 116.046 110.784 120.089 108.021L118.568 94.2546L139.443 87.0818L146.535 98.9311C151.407 98.6314 156.245 99.0205 160.933 100.039L169.248 89.3631L189.177 99.6595L186.185 113.086C189.811 116.363 193.054 120.15 195.797 124.384L209.074 123.059L216.383 144.794L205.058 151.923ZM181.191 145.866C175.362 128.534 157.142 119.121 140.496 124.841C123.85 130.561 115.082 149.249 120.911 166.581C126.739 183.913 144.958 193.327 161.604 187.607C178.25 181.887 187.02 163.198 181.191 145.866Z" fill="#D1D7FA"/>
<path d="M379.856 523.288L377.274 487.479H307.996L305.396 523.54C305.106 527.56 303.97 531.427 302.11 534.902H383.275C381.337 531.367 380.153 527.409 379.856 523.288Z" fill="#051351"/>
<path d="M397.839 534.901H287.545C286.097 534.901 284.925 536.107 284.925 537.595V545.472C284.925 546.96 286.097 548.166 287.545 548.166H397.839C399.287 548.166 400.46 546.96 400.46 545.472V537.595C400.46 536.107 399.287 534.901 397.839 534.901Z" fill="#5D5FEF"/>
<path d="M167.384 461.578V484.46C167.384 490.87 172.442 496.067 178.68 496.067H514.96C521.198 496.067 526.256 490.87 526.256 484.46V461.578H167.384Z" fill="#5D5FEF"/>
<path d="M514.96 242.043H178.68C172.442 242.043 167.384 247.239 167.384 253.65V461.578H526.256V253.65C526.256 247.239 521.198 242.043 514.96 242.043Z" fill="#051351"/>
<path d="M510.119 446.986H182.23V256.634H510.119V446.986Z" fill="#CACBFF"/>
<path d="M206.033 603.65L206.268 608.862L477.984 609.587L478.241 603.768C478.277 603.599 478.153 603.44 477.985 603.44L469.613 603.419L206.033 603.65Z" fill="#5D5FEF"/>
<path d="M478.333 603.65L444.413 562.638L239.924 562.844L206.034 603.65H478.333Z" fill="#5D5FEF"/>
<path d="M239.874 566.609H251.462C251.811 566.609 252.172 566.499 252.269 566.363L254.036 563.871C254.128 563.741 253.927 563.635 253.586 563.635H242.27C241.929 563.635 241.568 563.741 241.462 563.871L239.442 566.363C239.332 566.499 239.525 566.609 239.874 566.609Z" fill="white"/>
<path d="M254.75 566.609H266.338C266.687 566.609 267.036 566.499 267.116 566.363L268.593 563.871C268.67 563.741 268.455 563.635 268.115 563.635H256.799C256.458 563.635 256.108 563.741 256.018 563.871L254.289 566.363C254.195 566.499 254.401 566.609 254.75 566.609Z" fill="white"/>
<path d="M269.627 566.609H281.214C281.564 566.609 281.899 566.499 281.964 566.363L283.148 563.871C283.21 563.741 282.983 563.635 282.643 563.635H271.327C270.987 563.635 270.649 563.741 270.574 563.871L269.137 566.363C269.058 566.499 269.278 566.609 269.627 566.609Z" fill="white"/>
<path d="M284.504 566.609H296.091C296.44 566.609 296.762 566.499 296.811 566.363L297.704 563.871C297.751 563.741 297.513 563.635 297.172 563.635H285.855C285.515 563.635 285.19 563.741 285.13 563.871L283.985 566.363C283.922 566.499 284.155 566.609 284.504 566.609Z" fill="white"/>
<path d="M299.379 566.609H310.966C311.316 566.609 311.625 566.499 311.658 566.363L312.259 563.871C312.291 563.741 312.04 563.635 311.7 563.635H300.383C300.042 563.635 299.73 563.741 299.685 563.871L298.831 566.363C298.785 566.499 299.03 566.609 299.379 566.609Z" fill="white"/>
<path d="M314.256 566.609H325.844C326.193 566.609 326.489 566.499 326.506 566.363L326.816 563.871C326.832 563.741 326.569 563.635 326.228 563.635H314.912C314.572 563.635 314.272 563.741 314.242 563.871L313.68 566.363C313.649 566.499 313.907 566.609 314.256 566.609Z" fill="white"/>
<path d="M329.133 566.609H340.72C341.069 566.609 341.353 566.499 341.354 566.363L341.372 563.871C341.373 563.741 341.098 563.635 340.757 563.635H329.44C329.1 563.635 328.812 563.741 328.798 563.871L328.527 566.363C328.513 566.499 328.784 566.609 329.133 566.609Z" fill="white"/>
<path d="M344.009 566.609H355.596C355.945 566.609 356.217 566.499 356.201 566.363L355.928 563.871C355.914 563.741 355.626 563.635 355.285 563.635H343.969C343.629 563.635 343.353 563.741 343.354 563.871L343.375 566.363C343.376 566.499 343.66 566.609 344.009 566.609Z" fill="white"/>
<path d="M358.885 566.609H370.472C370.821 566.609 371.079 566.499 371.049 566.363L370.483 563.871C370.454 563.741 370.153 563.635 369.813 563.635H358.497C358.156 563.635 357.893 563.741 357.909 563.871L358.222 566.363C358.239 566.499 358.535 566.609 358.885 566.609Z" fill="white"/>
<path d="M373.762 566.609H385.349C385.698 566.609 385.943 566.499 385.896 566.363L385.04 563.871C384.995 563.741 384.682 563.635 384.341 563.635H373.025C372.685 563.635 372.434 563.741 372.466 563.871L373.069 566.363C373.102 566.499 373.412 566.609 373.762 566.609Z" fill="white"/>
<path d="M388.638 566.609H400.225C400.574 566.609 400.806 566.499 400.744 566.363L399.596 563.871C399.536 563.741 399.211 563.635 398.87 563.635H387.553C387.213 563.635 386.974 563.741 387.022 563.871L387.917 566.363C387.966 566.499 388.289 566.609 388.638 566.609Z" fill="white"/>
<path d="M403.515 566.609H415.102C415.451 566.609 415.671 566.499 415.592 566.363L414.152 563.871C414.076 563.741 413.739 563.635 413.399 563.635H402.083C401.742 563.635 401.516 563.741 401.578 563.871L402.765 566.363C402.83 566.499 403.165 566.609 403.515 566.609Z" fill="white"/>
<path d="M418.391 566.609H429.979C430.328 566.609 430.534 566.499 430.439 566.363L428.708 563.871C428.618 563.741 428.267 563.635 427.927 563.635H416.611C416.27 563.635 416.057 563.741 416.134 563.871L417.613 566.363C417.694 566.499 418.042 566.609 418.391 566.609Z" fill="white"/>
<path d="M433.267 566.609H444.855C445.204 566.609 445.397 566.499 445.287 566.363L443.265 563.871C443.159 563.741 442.796 563.635 442.456 563.635H431.139C430.798 563.635 430.597 563.741 430.689 563.871L432.46 566.363C432.557 566.499 432.918 566.609 433.267 566.609Z" fill="white"/>
<path d="M235.265 572.192H246.922C247.286 572.192 247.667 572.072 247.773 571.924L250.826 567.646C250.925 567.507 250.72 567.396 250.369 567.396H239.134C238.784 567.396 238.408 567.507 238.295 567.646L234.823 571.924C234.702 572.072 234.901 572.192 235.265 572.192Z" fill="white"/>
<path d="M250.234 572.192H261.891C262.255 572.192 262.622 572.072 262.712 571.924L265.283 567.646C265.366 567.507 265.148 567.396 264.797 567.396H253.562C253.211 567.396 252.848 567.507 252.751 567.646L249.762 571.924C249.659 572.072 249.87 572.192 250.234 572.192Z" fill="white"/>
<path d="M265.203 572.192H276.86C277.225 572.192 277.579 572.072 277.651 571.924L279.739 567.646C279.806 567.507 279.577 567.396 279.226 567.396H267.99C267.639 567.396 267.289 567.507 267.208 567.646L264.701 571.924C264.614 572.072 264.839 572.192 265.203 572.192Z" fill="white"/>
<path d="M280.173 572.192H291.83C292.194 572.192 292.535 572.072 292.59 571.924L294.196 567.646C294.248 567.507 294.005 567.396 293.654 567.396H282.419C282.068 567.396 281.73 567.507 281.664 567.646L279.641 571.924C279.571 572.072 279.808 572.192 280.173 572.192Z" fill="white"/>
<path d="M296.12 567.646L294.579 571.924C294.525 572.072 294.777 572.192 295.141 572.192H306.798C307.163 572.192 307.49 572.072 307.529 571.924L308.651 567.646C308.688 567.507 308.432 567.396 308.081 567.396H296.846C296.495 567.396 296.17 567.507 296.12 567.646Z" fill="white"/>
<path d="M322.509 567.396H311.275C310.924 567.396 310.61 567.507 310.577 567.646L309.517 571.924C309.481 572.072 309.746 572.192 310.111 572.192H321.767C322.132 572.192 322.444 572.072 322.467 571.924L323.108 567.646C323.129 567.507 322.86 567.396 322.509 567.396Z" fill="white"/>
<path d="M336.937 567.396H325.702C325.351 567.396 325.051 567.507 325.032 567.646L324.457 571.924C324.437 572.072 324.715 572.192 325.08 572.192H336.736C337.101 572.192 337.4 572.072 337.406 571.924L337.564 567.646C337.569 567.507 337.288 567.396 336.937 567.396Z" fill="white"/>
<path d="M351.366 567.396H340.13C339.779 567.396 339.493 567.507 339.489 567.646L339.396 571.924C339.392 572.072 339.685 572.192 340.049 572.192H351.706C352.07 572.192 352.357 572.072 352.346 571.924L352.02 567.646C352.01 567.507 351.717 567.396 351.366 567.396Z" fill="white"/>
<path d="M366.676 572.192C367.041 572.192 367.313 572.072 367.285 571.924L366.478 567.646C366.452 567.507 366.145 567.396 365.794 567.396H354.559C354.208 567.396 353.933 567.507 353.946 567.646L354.334 571.924C354.348 572.072 354.654 572.192 355.019 572.192H366.676Z" fill="white"/>
<path d="M381.645 572.192C382.01 572.192 382.269 572.072 382.224 571.924L380.933 567.646C380.892 567.507 380.573 567.396 380.222 567.396H368.987C368.636 567.396 368.374 567.507 368.402 567.646L369.274 571.924C369.304 572.072 369.624 572.192 369.989 572.192H381.645Z" fill="white"/>
<path d="M394.65 567.396H383.415C383.064 567.396 382.813 567.507 382.858 567.646L384.212 571.924C384.259 572.072 384.592 572.192 384.957 572.192H396.613C396.978 572.192 397.224 572.072 397.162 571.924L395.389 567.646C395.332 567.507 395.001 567.396 394.65 567.396Z" fill="white"/>
<path d="M409.078 567.396H397.843C397.492 567.396 397.255 567.507 397.314 567.646L399.151 571.924C399.214 572.072 399.561 572.192 399.926 572.192H411.582C411.947 572.192 412.179 572.072 412.101 571.924L409.845 567.646C409.772 567.507 409.429 567.396 409.078 567.396Z" fill="white"/>
<path d="M426.552 572.192C426.916 572.192 427.135 572.072 427.04 571.924L424.302 567.646C424.214 567.507 423.857 567.396 423.506 567.396H412.271C411.92 567.396 411.696 567.507 411.771 567.646L414.091 571.924C414.171 572.072 414.532 572.192 414.896 572.192H426.552Z" fill="white"/>
<path d="M446.019 567.646C445.907 567.507 445.531 567.396 445.18 567.396H426.897C426.546 567.396 426.335 567.507 426.425 567.646L429.234 571.924C429.332 572.072 429.706 572.192 430.07 572.192H449.04C449.404 572.192 449.602 572.072 449.482 571.924L446.019 567.646Z" fill="white"/>
<path d="M449.749 573.072H438.015C437.648 573.072 437.438 573.195 437.545 573.346L440.872 578.02C440.987 578.181 441.389 578.313 441.771 578.313H453.965C454.346 578.313 454.548 578.181 454.418 578.02L450.634 573.346C450.511 573.195 450.116 573.072 449.749 573.072Z" fill="white"/>
<path d="M438.79 578.02L435.534 573.346C435.428 573.195 435.046 573.072 434.679 573.072H422.946C422.579 573.072 422.354 573.195 422.444 573.346L425.244 578.02C425.341 578.181 425.728 578.313 426.11 578.313H438.304C438.686 578.313 438.903 578.181 438.79 578.02Z" fill="white"/>
<path d="M407.346 573.346L409.618 578.02C409.696 578.181 410.069 578.313 410.45 578.313H422.645C423.026 578.313 423.258 578.181 423.163 578.02L420.434 573.346C420.346 573.195 419.978 573.072 419.611 573.072H407.877C407.51 573.072 407.273 573.195 407.346 573.346Z" fill="white"/>
<path d="M392.247 573.346L393.992 578.02C394.053 578.181 394.41 578.313 394.792 578.313H406.985C407.367 578.313 407.613 578.181 407.537 578.02L405.336 573.346C405.265 573.195 404.91 573.072 404.543 573.072H392.809C392.442 573.072 392.19 573.195 392.247 573.346Z" fill="white"/>
<path d="M391.91 578.02L390.236 573.346C390.181 573.195 389.841 573.072 389.474 573.072H377.74C377.373 573.072 377.108 573.195 377.147 573.346L378.364 578.02C378.406 578.181 378.75 578.313 379.131 578.313H391.326C391.707 578.313 391.968 578.181 391.91 578.02Z" fill="white"/>
<path d="M376.284 578.02L375.137 573.346C375.1 573.195 374.773 573.072 374.406 573.072H362.672C362.305 573.072 362.026 573.195 362.048 573.346L362.738 578.02C362.762 578.181 363.091 578.313 363.472 578.313H375.666C376.047 578.313 376.324 578.181 376.284 578.02Z" fill="white"/>
<path d="M346.949 573.346L347.112 578.02C347.117 578.181 347.431 578.313 347.812 578.313H360.007C360.388 578.313 360.679 578.181 360.657 578.02L360.038 573.346C360.018 573.195 359.705 573.072 359.338 573.072H347.603C347.236 573.072 346.944 573.195 346.949 573.346Z" fill="white"/>
<path d="M331.85 573.346L331.484 578.02C331.471 578.181 331.77 578.313 332.152 578.313H344.346C344.728 578.313 345.034 578.181 345.03 578.02L344.938 573.346C344.935 573.195 344.635 573.072 344.268 573.072H332.535C332.168 573.072 331.861 573.195 331.85 573.346Z" fill="white"/>
<path d="M316.751 573.346L315.858 578.02C315.827 578.181 316.111 578.313 316.493 578.313H328.687C329.069 578.313 329.389 578.181 329.404 578.02L329.84 573.346C329.854 573.195 329.567 573.072 329.2 573.072H317.467C317.1 573.072 316.779 573.195 316.751 573.346Z" fill="white"/>
<path d="M301.652 573.346L300.232 578.02C300.183 578.181 300.452 578.313 300.833 578.313H313.027C313.409 578.313 313.745 578.181 313.778 578.02L314.74 573.346C314.771 573.195 314.499 573.072 314.132 573.072H302.398C302.031 573.072 301.697 573.195 301.652 573.346Z" fill="white"/>
<path d="M298.151 578.02L299.64 573.346C299.688 573.195 299.43 573.072 299.063 573.072H287.329C286.962 573.072 286.614 573.195 286.551 573.346L284.605 578.02C284.537 578.181 284.791 578.313 285.172 578.313H297.366C297.748 578.313 298.099 578.181 298.151 578.02Z" fill="white"/>
<path d="M281.707 578.313C282.088 578.313 282.454 578.181 282.524 578.02L284.541 573.346C284.606 573.195 284.362 573.072 283.995 573.072H272.261C271.894 573.072 271.532 573.195 271.452 573.346L268.978 578.02C268.893 578.181 269.131 578.313 269.512 578.313H281.707Z" fill="white"/>
<path d="M266.898 578.02L269.442 573.346C269.524 573.195 269.294 573.072 268.927 573.072H257.193C256.826 573.072 256.451 573.195 256.353 573.346L253.352 578.02C253.248 578.181 253.472 578.313 253.853 578.313H266.048C266.429 578.313 266.809 578.181 266.898 578.02Z" fill="white"/>
<path d="M253.482 585.148H266.277C266.677 585.148 267.076 585.003 267.168 584.825L269.824 579.689C269.91 579.523 269.667 579.389 269.283 579.389H256.994C256.61 579.389 256.216 579.523 256.114 579.689L252.957 584.825C252.847 585.003 253.083 585.148 253.482 585.148Z" fill="white"/>
<path d="M257.888 592.706H271.346C271.767 592.706 272.181 592.546 272.272 592.348L274.87 586.677C274.953 586.494 274.694 586.347 274.291 586.347H261.391C260.988 586.347 260.579 586.494 260.477 586.677L257.325 592.348C257.215 592.546 257.467 592.706 257.888 592.706Z" fill="white"/>
<path d="M230.997 594.169H217.41C216.986 594.169 216.508 594.333 216.343 594.535L210.298 601.977C210.116 602.2 210.332 602.381 210.78 602.381H225.088C225.535 602.381 226.028 602.2 226.187 601.977L231.504 594.535C231.649 594.333 231.422 594.169 230.997 594.169Z" fill="white"/>
<path d="M248.557 594.169H234.97C234.545 594.169 234.086 594.333 233.945 594.535L228.744 601.977C228.588 602.2 228.825 602.381 229.272 602.381H243.58C244.027 602.381 244.499 602.2 244.633 601.977L249.106 594.535C249.228 594.333 248.982 594.169 248.557 594.169Z" fill="white"/>
<path d="M266.118 594.169H252.531C252.106 594.169 251.667 594.333 251.548 594.535L247.192 601.977C247.061 602.2 247.318 602.381 247.765 602.381H262.073C262.521 602.381 262.972 602.2 263.08 601.977L266.709 594.535C266.807 594.333 266.542 594.169 266.118 594.169Z" fill="white"/>
<path d="M287.78 594.169H270.092C269.667 594.169 269.245 594.333 269.15 594.535L265.639 601.977C265.533 602.2 265.81 602.381 266.258 602.381H284.886C285.333 602.381 285.759 602.2 285.836 601.977L288.422 594.535C288.492 594.333 288.205 594.169 287.78 594.169Z" fill="white"/>
<path d="M414.679 594.169H401.092C400.667 594.169 400.384 594.333 400.46 594.535L403.252 601.977C403.335 602.2 403.766 602.381 404.214 602.381H418.522C418.969 602.381 419.246 602.2 419.14 601.977L415.621 594.535C415.526 594.333 415.104 594.169 414.679 594.169Z" fill="white"/>
<path d="M397.118 594.169H379.429C379.005 594.169 378.699 594.333 378.746 594.535L380.496 601.977C380.548 602.2 380.954 602.381 381.401 602.381H400.029C400.476 602.381 400.774 602.2 400.694 601.977L398.019 594.535C397.946 594.333 397.543 594.169 397.118 594.169Z" fill="white"/>
<path d="M375.072 594.169H291.754C291.329 594.169 290.931 594.333 290.863 594.535L288.395 601.977C288.322 602.2 288.623 602.381 289.071 602.381H376.812C377.259 602.381 377.582 602.2 377.534 601.977L375.92 594.535C375.876 594.333 375.496 594.169 375.072 594.169Z" fill="white"/>
<path d="M290.841 586.347H277.942C277.539 586.347 277.147 586.494 277.066 586.677L274.552 592.348C274.465 592.546 274.734 592.706 275.155 592.706H288.614C289.035 592.706 289.43 592.546 289.499 592.348L291.458 586.677C291.522 586.494 291.245 586.347 290.841 586.347Z" fill="white"/>
<path d="M292.424 592.706H305.881C306.302 592.706 306.681 592.546 306.727 592.348L308.047 586.677C308.089 586.494 307.797 586.347 307.394 586.347H294.493C294.09 586.347 293.714 586.494 293.654 586.677L291.78 592.348C291.715 592.546 292.003 592.706 292.424 592.706Z" fill="white"/>
<path d="M309.69 592.706H323.148C323.569 592.706 323.93 592.546 323.954 592.348L324.634 586.677C324.656 586.494 324.347 586.347 323.943 586.347H311.044C310.641 586.347 310.282 586.494 310.242 586.677L309.006 592.348C308.964 592.546 309.269 592.706 309.69 592.706Z" fill="white"/>
<path d="M326.958 592.706H340.416C340.837 592.706 341.179 592.546 341.181 592.348L341.223 586.677C341.224 586.494 340.897 586.347 340.494 586.347H327.595C327.192 586.347 326.849 586.494 326.829 586.677L326.234 592.348C326.213 592.546 326.537 592.706 326.958 592.706Z" fill="white"/>
<path d="M344.226 592.706H357.684C358.105 592.706 358.43 592.546 358.409 592.348L357.81 586.677C357.791 586.494 357.449 586.347 357.046 586.347H344.146C343.742 586.347 343.416 586.494 343.418 586.677L343.461 592.348C343.463 592.546 343.805 592.706 344.226 592.706Z" fill="white"/>
<path d="M373.596 586.347H360.697C360.293 586.347 359.984 586.494 360.006 586.677L360.689 592.348C360.713 592.546 361.072 592.706 361.493 592.706H374.952C375.373 592.706 375.679 592.546 375.635 592.348L374.398 586.677C374.358 586.494 373.999 586.347 373.596 586.347Z" fill="white"/>
<path d="M392.219 592.706C392.64 592.706 392.928 592.546 392.863 592.348L390.987 586.677C390.927 586.494 390.55 586.347 390.147 586.347H377.247C376.844 586.347 376.551 586.494 376.593 586.677L377.915 592.348C377.961 592.546 378.34 592.706 378.761 592.706H392.219Z" fill="white"/>
<path d="M396.028 592.706H409.487C409.908 592.706 410.177 592.546 410.09 592.348L407.574 586.677C407.493 586.494 407.101 586.347 406.698 586.347H393.797C393.394 586.347 393.118 586.494 393.181 586.677L395.143 592.348C395.211 592.546 395.607 592.706 396.028 592.706Z" fill="white"/>
<path d="M413.295 592.706H426.754C427.175 592.706 427.427 592.546 427.317 592.348L424.162 586.677C424.06 586.494 423.651 586.347 423.248 586.347H410.348C409.945 586.347 409.686 586.494 409.769 586.677L412.369 592.348C412.46 592.546 412.875 592.706 413.295 592.706Z" fill="white"/>
<path d="M283.589 584.825L285.664 579.689C285.731 579.523 285.473 579.389 285.089 579.389H272.801C272.417 579.389 272.038 579.523 271.955 579.689L269.378 584.825C269.289 585.003 269.539 585.148 269.939 585.148H282.734C283.134 585.148 283.517 585.003 283.589 584.825Z" fill="white"/>
<path d="M286.398 585.148H299.193C299.593 585.148 299.959 585.003 300.011 584.825L301.505 579.689C301.554 579.523 301.281 579.389 300.898 579.389H288.608C288.224 579.389 287.861 579.523 287.796 579.689L285.8 584.825C285.731 585.003 285.998 585.148 286.398 585.148Z" fill="white"/>
<path d="M316.432 584.825L317.347 579.689C317.376 579.523 317.088 579.389 316.704 579.389H304.415C304.031 579.389 303.682 579.523 303.637 579.689L302.221 584.825C302.172 585.003 302.456 585.148 302.856 585.148H315.65C316.05 585.148 316.4 585.003 316.432 584.825Z" fill="white"/>
<path d="M332.853 584.825L333.187 579.689C333.198 579.523 332.894 579.389 332.51 579.389H320.222C319.838 579.389 319.505 579.523 319.478 579.689L318.642 584.825C318.613 585.003 318.913 585.148 319.313 585.148H332.108C332.508 585.148 332.842 585.003 332.853 584.825Z" fill="white"/>
<path d="M349.275 584.825L349.028 579.689C349.02 579.523 348.702 579.389 348.318 579.389H336.03C335.646 579.389 335.327 579.523 335.319 579.689L335.064 584.825C335.055 585.003 335.372 585.148 335.772 585.148H348.566C348.966 585.148 349.283 585.003 349.275 584.825Z" fill="white"/>
<path d="M365.696 584.825L364.87 579.689C364.843 579.523 364.51 579.389 364.125 579.389H351.837C351.453 579.389 351.15 579.523 351.16 579.689L351.485 584.825C351.496 585.003 351.829 585.148 352.229 585.148H365.025C365.424 585.148 365.725 585.003 365.696 584.825Z" fill="white"/>
<path d="M368.687 585.148H381.481C381.881 585.148 382.166 585.003 382.117 584.825L380.71 579.689C380.665 579.523 380.316 579.389 379.932 579.389H367.644C367.259 579.389 366.972 579.523 367.001 579.689L367.906 584.825C367.937 585.003 368.287 585.148 368.687 585.148Z" fill="white"/>
<path d="M385.146 585.148H397.94C398.34 585.148 398.608 585.003 398.539 584.825L396.552 579.689C396.488 579.523 396.124 579.389 395.74 579.389H383.451C383.068 579.389 382.794 579.523 382.842 579.689L384.328 584.825C384.38 585.003 384.746 585.148 385.146 585.148Z" fill="white"/>
<path d="M414.961 584.825L412.392 579.689C412.31 579.523 411.931 579.389 411.547 579.389H399.258C398.874 579.389 398.617 579.523 398.683 579.689L400.749 584.825C400.82 585.003 401.203 585.148 401.603 585.148H414.398C414.798 585.148 415.05 585.003 414.961 584.825Z" fill="white"/>
<path d="M431.382 584.825L428.234 579.689C428.132 579.523 427.738 579.389 427.354 579.389H415.066C414.681 579.389 414.439 579.523 414.524 579.689L417.17 584.825C417.262 585.003 417.662 585.148 418.062 585.148H430.856C431.256 585.148 431.492 585.003 431.382 584.825Z" fill="white"/>
<path d="M230.328 578.313H250.172C250.553 578.313 250.949 578.181 251.056 578.02L254.135 573.346C254.235 573.195 254.018 573.072 253.651 573.072H234.556C234.189 573.072 233.793 573.195 233.67 573.346L229.876 578.02C229.744 578.181 229.947 578.313 230.328 578.313Z" fill="white"/>
<path d="M224.814 585.148H249.71C250.11 585.148 250.526 585.003 250.638 584.825L253.877 579.689C253.982 579.523 253.755 579.389 253.371 579.389H229.46C229.076 579.389 228.655 579.523 228.521 579.689L224.353 584.825C224.209 585.003 224.414 585.148 224.814 585.148Z" fill="white"/>
<path d="M218.73 592.691H253.738C254.159 592.691 254.592 592.531 254.705 592.334L257.955 586.664C258.06 586.481 257.817 586.334 257.414 586.334H223.859C223.456 586.334 223.009 586.481 222.861 586.664L218.259 592.334C218.099 592.531 218.31 592.691 218.73 592.691Z" fill="white"/>
<path d="M460.558 586.333H427.003C426.6 586.333 426.358 586.481 426.462 586.664L429.705 592.334C429.818 592.531 430.25 592.691 430.671 592.691H465.679C466.1 592.691 466.311 592.531 466.151 592.334L461.556 586.664C461.408 586.481 460.961 586.333 460.558 586.333Z" fill="white"/>
<path d="M455.284 579.426H431.368C430.983 579.426 430.756 579.561 430.861 579.727L434.107 584.865C434.219 585.044 434.635 585.19 435.035 585.19H459.937C460.337 585.19 460.544 585.044 460.399 584.865L456.224 579.727C456.089 579.561 455.669 579.426 455.284 579.426Z" fill="white"/>
<path d="M431.591 594.169L418.512 594.241C418.175 594.243 417.944 594.597 418.072 594.917C419.596 598.728 421.33 601.909 421.33 601.909C421.438 602.132 421.889 602.314 422.336 602.314H436.807C437.255 602.314 437.511 602.132 437.381 601.909C437.381 601.909 435.568 598.855 433.381 595.193C433 594.554 432.321 594.165 431.591 594.169Z" fill="white"/>
<path d="M465.989 594L452.747 594.036C452.467 594.037 452.304 594.365 452.468 594.6C455.198 598.512 457.772 601.909 457.772 601.909C457.93 602.132 458.422 602.313 458.869 602.313H473.34C473.787 602.313 474.003 602.132 473.823 601.909C473.823 601.909 471.003 598.554 467.542 594.695C467.143 594.25 466.578 593.998 465.989 594Z" fill="white"/>
<path d="M449.303 593.774H435.591C435.167 593.774 434.976 594.028 435.164 594.341L437.661 598.506L438.202 599.408L439.702 601.909C439.837 602.132 440.307 602.314 440.755 602.314H455.226C455.673 602.314 455.909 602.132 455.753 601.909L454.006 599.408L453.375 598.506L450.466 594.341C450.247 594.028 449.726 593.774 449.303 593.774Z" fill="white"/>
<path d="M489.817 446.913H204.728V223.081H489.817V446.913Z" fill="white"/>
<path d="M489.817 243.924H204.728V223.081H489.817V243.924Z" fill="#5D5FEF"/>
<path d="M471.268 301.98H335.348V255.991H471.268V301.98Z" fill="#CACBFF"/>
<path d="M471.268 347.752H335.348V308.406H471.268V347.752Z" fill="#0B28A8"/>
<path d="M471.268 393.399H220.092V360.614H471.268V393.399Z" fill="#889EFA"/>
<path d="M278.205 435.689H219.976V403.435H278.205V435.689Z" fill="#0B28A8"/>
<path d="M325.712 348.685H219.976V257.974H325.712V348.685Z" fill="#889EFA"/>
<path d="M471.268 436.537H287.095V404.283H471.268V436.537Z" fill="#CACBFF"/>
<path d="M219.977 350.578L255.513 285.555L276.687 322.268L292.329 298.75L322.353 350.578H219.977Z" fill="white"/>
<path d="M307.188 280.197C307.188 283.819 304.495 286.756 301.173 286.756C297.852 286.756 295.158 283.819 295.158 280.197C295.158 276.575 297.852 273.639 301.173 273.639C304.495 273.639 307.188 276.575 307.188 280.197Z" fill="white"/>
<path d="M345.063 267.822H455.93" stroke="#5D5FEF" stroke-width="0.25" stroke-miterlimit="10"/>
<path d="M345.063 273.639H435.472" stroke="#5D5FEF" stroke-width="0.25" stroke-miterlimit="10"/>
<path d="M345.063 279.456H423.593" stroke="#5D5FEF" stroke-width="0.25" stroke-miterlimit="10"/>
<path d="M345.063 285.555H423.593" stroke="#5D5FEF" stroke-width="0.25" stroke-miterlimit="10"/>
<path d="M345.063 291.655H409.784" stroke="#5D5FEF" stroke-width="0.25" stroke-miterlimit="10"/>
<path d="M459.613 320.499H345.062V318.063H459.613V320.499Z" fill="white"/>
<path d="M459.613 326.977H345.062V324.541H459.613V326.977Z" fill="white"/>
<path d="M427.249 333.454H345.062V331.018H427.249V333.454Z" fill="white"/>
<path d="M403.154 339.932H345.062V337.496H403.154V339.932Z" fill="white"/>
<path d="M229.23 370.735H461.966" stroke="white" stroke-width="0.5" stroke-miterlimit="10"/>
<path d="M229.23 377.006H433.311" stroke="white" stroke-width="0.5" stroke-miterlimit="10"/>
<path d="M229.23 383.277H375.198" stroke="white" stroke-width="0.5" stroke-miterlimit="10"/>
<path d="M268.606 412.37H225.935V409.934H268.606V412.37Z" fill="white"/>
<path d="M268.606 417.012H225.935V414.576H268.606V417.012Z" fill="white"/>
<path d="M256.551 421.653H225.935V419.217H256.551V421.653Z" fill="white"/>
<path d="M247.575 426.295H225.935V423.859H247.575V426.295Z" fill="white"/>
<path d="M295.67 413.901H461.966" stroke="white" stroke-width="0.5" stroke-miterlimit="10"/>
<path d="M295.67 420.171H441.491" stroke="white" stroke-width="0.5" stroke-miterlimit="10"/>
<path d="M295.67 426.443H399.969" stroke="white" stroke-width="0.5" stroke-miterlimit="10"/>
<path d="M442.94 213.998C442.94 234.205 426.998 250.586 407.333 250.586C387.667 250.586 371.726 234.205 371.726 213.998C371.726 193.79 387.667 177.409 407.333 177.409C426.998 177.409 442.94 193.79 442.94 213.998Z" fill="#889EFA"/>
<path d="M419.062 206.107C413.126 198.931 407.586 206.459 407.586 206.459C407.586 206.459 402.047 198.931 396.11 206.107C390.304 213.126 404.444 223.936 407.586 224.989C410.728 223.936 424.868 213.126 419.062 206.107Z" fill="white"/>
<path d="M583.987 329.65L584.443 431.153L444.218 431.818L443.762 330.315L583.987 329.65Z" fill="white"/>
<path d="M583.987 329.65L584.086 351.862L443.862 352.527L443.762 330.315L583.987 329.65Z" fill="url(#paint0_linear_202_1666)"/>
<path d="M509.062 409.227H459.987V372.242H509.062V409.227Z" fill="url(#paint1_linear_202_1666)"/>
<path d="M459.985 409.484L475.362 382.972L484.524 397.941L491.291 388.352L504.282 409.484H459.985Z" fill="white"/>
<path d="M497.722 381.303C497.722 382.78 496.556 383.978 495.119 383.978C493.681 383.978 492.516 382.78 492.516 381.303C492.516 379.826 493.681 378.629 495.119 378.629C496.556 378.629 497.722 379.826 497.722 381.303Z" fill="white"/>
<path d="M458.339 341.798C458.345 342.997 457.402 343.974 456.235 343.98C455.068 343.985 454.117 343.017 454.112 341.818C454.106 340.618 455.049 339.641 456.216 339.636C457.383 339.63 458.334 340.598 458.339 341.798Z" fill="white"/>
<path d="M466.368 341.76C466.374 342.959 465.432 343.937 464.265 343.942C463.098 343.948 462.147 342.979 462.143 341.78C462.137 340.58 463.079 339.604 464.246 339.598C465.413 339.593 466.363 340.56 466.368 341.76Z" fill="white"/>
<path d="M474.401 341.721C474.406 342.921 473.463 343.898 472.297 343.903C471.13 343.909 470.179 342.94 470.173 341.741C470.168 340.541 471.111 339.565 472.277 339.559C473.444 339.554 474.395 340.522 474.401 341.721Z" fill="white"/>
<path d="M567.863 380.303H515.912V377.113H567.863V380.303Z" fill="url(#paint2_linear_202_1666)"/>
<path d="M567.863 386.381H515.912V383.191H567.863V386.381Z" fill="url(#paint3_linear_202_1666)"/>
<path d="M561.972 392.458H515.912V389.267H561.972V392.458Z" fill="url(#paint4_linear_202_1666)"/>
<path d="M555.708 398.535H515.912V395.345H555.708V398.535Z" fill="url(#paint5_linear_202_1666)"/>
<path d="M544.779 404.612H515.912V401.422H544.779V404.612Z" fill="url(#paint6_linear_202_1666)"/>
<g opacity="0.999992">
<path d="M231.124 412.688H90.6509V292.953H231.124V412.688Z" fill="#CACBFF"/>
<path d="M231.124 314.725H90.6509V292.953H231.124V314.725Z" fill="#0B28A8"/>
<path d="M193.532 393.98H128.245V331.707H193.532V393.98Z" fill="#051351"/>
<path d="M172.459 362.867L153.696 351.853L153.795 374.056L172.459 362.867Z" fill="white"/>
<path d="M104.819 303.84C104.819 304.809 104.054 305.595 103.11 305.595C102.167 305.595 101.401 304.809 101.401 303.84C101.401 302.869 102.167 302.083 103.11 302.083C104.054 302.083 104.819 302.869 104.819 303.84Z" fill="white"/>
<path d="M111.792 303.84C111.792 304.809 111.027 305.595 110.083 305.595C109.139 305.595 108.374 304.809 108.374 303.84C108.374 302.869 109.139 302.083 110.083 302.083C111.027 302.083 111.792 302.869 111.792 303.84Z" fill="white"/>
<path d="M118.766 303.84C118.766 304.809 118.001 305.595 117.058 305.595C116.114 305.595 115.349 304.809 115.349 303.84C115.349 302.869 116.114 302.083 117.058 302.083C118.001 302.083 118.766 302.869 118.766 303.84Z" fill="white"/>
</g>
<path d="M577.135 606.294C578.213 607.588 579.1 609.014 579.789 610.527L584.343 610.654L585.678 618.309L581.48 620.227C581.348 621.908 581.002 623.586 580.434 625.217L583.508 628.64L579.203 635.127L574.979 633.436C573.709 634.575 572.315 635.52 570.841 636.26L570.636 640.976L563.213 642.494L561.435 638.184C559.813 638.078 558.198 637.75 556.632 637.191L553.268 640.434L547.076 636.095L548.786 631.694C547.708 630.399 546.821 628.974 546.132 627.461L541.577 627.334L540.243 619.678L544.442 617.76C544.574 616.079 544.92 614.402 545.488 612.771L542.414 609.348L546.719 602.86L550.942 604.551C552.212 603.412 553.606 602.468 555.081 601.728L555.286 597.012L562.708 595.493L564.486 599.803C566.108 599.91 567.724 600.238 569.29 600.797L572.653 597.553L578.845 601.892L577.135 606.294ZM569.458 609.824C564.521 606.364 557.735 607.752 554.301 612.926C550.868 618.099 552.089 625.098 557.026 628.558C561.964 632.018 568.75 630.629 572.183 625.456C575.616 620.283 574.396 613.284 569.458 609.824Z" fill="#0D30C7"/>
<path d="M599.627 573.732C600.578 573.774 601.51 573.951 602.4 574.245L604.223 572.352L607.892 574.757L607.052 577.292C607.693 578.001 608.249 578.801 608.7 579.678L611.304 579.696L612.302 584.052L609.965 585.197C609.94 586.181 609.788 587.142 609.52 588.059L611.381 589.978L609.123 593.733L606.658 592.818C605.984 593.468 605.22 594.03 604.382 594.48L604.411 597.174L600.219 598.129L599.071 595.69C598.119 595.647 597.187 595.471 596.297 595.178L594.475 597.07L590.805 594.665L591.646 592.13C591.005 591.421 590.449 590.62 589.998 589.744L587.394 589.726L586.396 585.37L588.733 584.225C588.758 583.241 588.91 582.28 589.178 581.363L587.316 579.444L589.574 575.688L592.04 576.605C592.714 575.954 593.477 575.393 594.315 574.942L594.286 572.247L598.478 571.292L599.627 573.732ZM598.098 578.377C594.754 579.139 592.69 582.572 593.486 586.046C594.283 589.52 597.638 591.72 600.981 590.958C604.324 590.196 606.389 586.763 605.593 583.289C604.796 579.815 601.441 577.616 598.098 578.377Z" fill="#0D30C7"/>
<path d="M544.569 510.914C544.569 533.777 526.533 552.31 504.283 552.31C482.034 552.31 463.998 533.777 463.998 510.914C463.998 488.05 482.034 469.517 504.283 469.517C526.533 469.517 544.569 488.05 544.569 510.914Z" fill="white"/>
<path d="M544.569 510.914C544.569 533.777 526.533 552.31 504.283 552.31C482.034 552.31 463.998 533.777 463.998 510.914C463.998 488.05 482.034 469.517 504.283 469.517C526.533 469.517 544.569 488.05 544.569 510.914Z" stroke="#CACBFF" stroke-width="2" stroke-miterlimit="10"/>
<path d="M516.023 512.364C516.023 511.546 515.561 510.846 514.894 510.504C515.561 510.163 516.023 509.463 516.023 508.645C516.023 507.494 515.115 506.561 513.995 506.561C513.882 506.561 513.666 506.561 513.666 506.561L508.732 506.673C508.732 506.673 509.773 502.167 509.389 499.744C509.005 497.322 505.825 496.252 505.771 498.956C505.716 501.66 505.388 502.561 503.359 504.927C502.033 506.473 501.315 507.683 500.978 508.336C500.809 508.662 500.728 509.024 500.728 509.393V519.63C500.728 520.191 501.169 520.645 501.715 520.645H513.666C513.666 520.645 513.882 520.645 513.995 520.645C515.115 520.645 516.118 519.802 516.029 518.654C515.956 517.715 514.836 517.358 514.836 517.358C514.836 517.358 516.206 517.199 516.206 515.837C516.206 514.569 515.438 514.26 514.894 514.222C515.561 513.88 516.023 513.181 516.023 512.364Z" fill="#5D5FEF"/>
<path d="M497.95 508.645H493.637C492.93 508.645 492.358 509.234 492.358 509.96V521.546C492.358 522.272 492.93 522.86 493.637 522.86H497.95C498.656 522.86 499.229 522.272 499.229 521.546V509.96C499.229 509.234 498.656 508.645 497.95 508.645Z" fill="#5D5FEF"/>
<path d="M217.252 502.093C217.252 522.618 201.059 539.258 181.085 539.258C161.11 539.258 144.917 522.618 144.917 502.093C144.917 481.568 161.11 464.928 181.085 464.928C201.059 464.928 217.252 481.568 217.252 502.093Z" fill="#889EFA"/>
<path d="M189.242 493.831V496.498L200.375 500.901L189.242 505.304V507.971L203.252 502.283V499.519L189.242 493.831Z" fill="white"/>
<path d="M175.262 515.362H177.982L188.303 485.091H185.583L175.262 515.362Z" fill="white"/>
<path d="M174.043 493.831L160.032 499.519V502.283L174.043 507.971V505.304L162.94 500.901L174.043 496.498V493.831Z" fill="white"/>
<defs>
<linearGradient id="paint0_linear_202_1666" x1="443.762" y1="329.65" x2="575.562" y2="376.505" gradientUnits="userSpaceOnUse">
<stop stop-color="#EF2555"/>
<stop offset="1" stop-color="#FF3767"/>
</linearGradient>
<linearGradient id="paint1_linear_202_1666" x1="459.987" y1="372.242" x2="511.601" y2="376.211" gradientUnits="userSpaceOnUse">
<stop stop-color="#EF2555"/>
<stop offset="1" stop-color="#FF3767"/>
</linearGradient>
<linearGradient id="paint2_linear_202_1666" x1="515.912" y1="377.113" x2="544.981" y2="404.548" gradientUnits="userSpaceOnUse">
<stop stop-color="#EF2555"/>
<stop offset="1" stop-color="#FF3767"/>
</linearGradient>
<linearGradient id="paint3_linear_202_1666" x1="515.912" y1="383.191" x2="544.981" y2="410.626" gradientUnits="userSpaceOnUse">
<stop stop-color="#EF2555"/>
<stop offset="1" stop-color="#FF3767"/>
</linearGradient>
<linearGradient id="paint4_linear_202_1666" x1="515.912" y1="389.267" x2="544.573" y2="413.251" gradientUnits="userSpaceOnUse">
<stop stop-color="#EF2555"/>
<stop offset="1" stop-color="#FF3767"/>
</linearGradient>
<linearGradient id="paint5_linear_202_1666" x1="515.912" y1="395.345" x2="543.562" y2="415.336" gradientUnits="userSpaceOnUse">
<stop stop-color="#EF2555"/>
<stop offset="1" stop-color="#FF3767"/>
</linearGradient>
<linearGradient id="paint6_linear_202_1666" x1="515.912" y1="401.422" x2="539.864" y2="413.983" gradientUnits="userSpaceOnUse">
<stop stop-color="#EF2555"/>
<stop offset="1" stop-color="#FF3767"/>
</linearGradient>
</defs>
</svg>
