<svg width="661" height="208" viewBox="0 0 661 208" fill="none" xmlns="http://www.w3.org/2000/svg">
<rect x="112.36" y="146.557" width="36.6393" height="48.8525" fill="#03032C"/>
<rect x="112.36" y="36.6394" width="36.6393" height="48.8525" fill="#03032C"/>
<rect x="51.2949" y="91.5984" width="36.6393" height="24.4262" fill="#03032C"/>
<rect x="87.9346" y="122.131" width="36.6393" height="24.4262" fill="#03032C"/>
<rect x="75.7217" width="73.2787" height="36.6393" fill="#03032C"/>
<path d="M73.2787 0L97.7049 0L36.6393 195.41H0L73.2787 0Z" fill="#03032C"/>
<path d="M296.218 160.75H299.518L304.518 173.35L309.568 160.75H312.918L306.718 175.9L313.518 191.95L326.368 160.5H330.168L315.118 196H312.018L304.568 178.45L297.068 196H294.018L279.018 160.5H282.768L295.668 191.95L302.418 175.9L296.218 160.75ZM342.344 196.5C340.477 196.5 338.744 196.15 337.144 195.45C335.544 194.717 334.16 193.733 332.994 192.5C331.827 191.233 330.91 189.783 330.244 188.15C329.61 186.517 329.294 184.767 329.294 182.9C329.294 180.467 329.844 178.233 330.944 176.2C332.077 174.167 333.627 172.55 335.594 171.35C337.56 170.117 339.794 169.5 342.294 169.5C344.86 169.5 347.094 170.117 348.994 171.35C350.927 172.583 352.444 174.217 353.544 176.25C354.644 178.25 355.194 180.45 355.194 182.85C355.194 183.117 355.194 183.383 355.194 183.65C355.194 183.883 355.177 184.067 355.144 184.2H332.844C333.01 186.067 333.527 187.733 334.394 189.2C335.294 190.633 336.444 191.783 337.844 192.65C339.277 193.483 340.827 193.9 342.494 193.9C344.194 193.9 345.794 193.467 347.294 192.6C348.827 191.733 349.894 190.6 350.494 189.2L353.444 190C352.91 191.233 352.094 192.35 350.994 193.35C349.894 194.35 348.594 195.133 347.094 195.7C345.627 196.233 344.044 196.5 342.344 196.5ZM332.744 181.75H351.994C351.86 179.85 351.344 178.183 350.444 176.75C349.577 175.317 348.427 174.2 346.994 173.4C345.594 172.567 344.044 172.15 342.344 172.15C340.644 172.15 339.094 172.567 337.694 173.4C336.294 174.2 335.144 175.333 334.244 176.8C333.377 178.233 332.877 179.883 332.744 181.75ZM373.189 196.5C371.156 196.5 369.273 195.983 367.539 194.95C365.806 193.883 364.456 192.55 363.489 190.95V196H360.439V159.5H363.839V175.4C365.006 173.633 366.406 172.217 368.039 171.15C369.673 170.05 371.573 169.5 373.739 169.5C375.573 169.5 377.206 169.883 378.639 170.65C380.106 171.417 381.356 172.45 382.389 173.75C383.423 175.017 384.206 176.467 384.739 178.1C385.273 179.7 385.539 181.35 385.539 183.05C385.539 184.883 385.223 186.6 384.589 188.2C383.989 189.8 383.123 191.233 381.989 192.5C380.856 193.733 379.539 194.717 378.039 195.45C376.573 196.15 374.956 196.5 373.189 196.5ZM372.389 193.5C373.789 193.5 375.089 193.217 376.289 192.65C377.489 192.083 378.523 191.3 379.389 190.3C380.256 189.3 380.923 188.183 381.389 186.95C381.856 185.683 382.089 184.383 382.089 183.05C382.089 181.217 381.689 179.5 380.889 177.9C380.123 176.267 379.039 174.967 377.639 174C376.273 173 374.656 172.5 372.789 172.5C371.456 172.5 370.206 172.8 369.039 173.4C367.906 174 366.889 174.8 365.989 175.8C365.123 176.767 364.406 177.833 363.839 179V187.1C363.973 188 364.323 188.85 364.889 189.65C365.456 190.417 366.156 191.083 366.989 191.65C367.856 192.217 368.756 192.667 369.689 193C370.623 193.333 371.523 193.5 372.389 193.5ZM390.799 183.95V180.8H405.399V183.95H390.799ZM423.693 196.5C421.793 196.5 420.043 196.15 418.443 195.45C416.876 194.717 415.493 193.717 414.293 192.45C413.126 191.183 412.209 189.733 411.543 188.1C410.909 186.467 410.593 184.733 410.593 182.9C410.593 180.433 411.143 178.183 412.243 176.15C413.343 174.117 414.876 172.5 416.843 171.3C418.809 170.1 421.076 169.5 423.643 169.5C426.076 169.5 428.226 170.067 430.093 171.2C431.959 172.3 433.343 173.8 434.243 175.7L430.943 176.75C430.209 175.417 429.176 174.383 427.843 173.65C426.543 172.883 425.093 172.5 423.493 172.5C421.759 172.5 420.176 172.95 418.743 173.85C417.309 174.75 416.159 175.983 415.293 177.55C414.459 179.117 414.043 180.9 414.043 182.9C414.043 184.867 414.476 186.65 415.343 188.25C416.209 189.85 417.359 191.133 418.793 192.1C420.226 193.033 421.809 193.5 423.543 193.5C424.676 193.5 425.759 193.3 426.793 192.9C427.859 192.5 428.776 191.967 429.543 191.3C430.343 190.6 430.876 189.85 431.143 189.05L434.493 190.05C434.026 191.283 433.243 192.4 432.143 193.4C431.076 194.367 429.809 195.133 428.343 195.7C426.909 196.233 425.359 196.5 423.693 196.5ZM446.334 196V173H437.034V169.95L459.034 169.95V173L449.734 173V196H446.334ZM466.512 206.9C465.945 206.9 465.362 206.8 464.762 206.6C464.195 206.433 463.612 206.183 463.012 205.85L464.262 203.45C464.629 203.65 464.962 203.817 465.262 203.95C465.595 204.083 465.945 204.15 466.312 204.15C467.179 204.15 467.995 203.717 468.762 202.85C469.529 201.983 470.262 200.717 470.962 199.05L472.262 195.8L460.662 169.95H464.262L473.812 192.5L482.612 169.95H486.012L473.612 200.1C472.945 201.667 472.245 202.95 471.512 203.95C470.779 204.95 469.995 205.683 469.162 206.15C468.329 206.65 467.445 206.9 466.512 206.9ZM487.862 202.05V192.95H488.312C489.078 192.95 489.778 192.717 490.412 192.25C491.045 191.783 491.612 190.967 492.112 189.8C492.612 188.633 493.012 187.033 493.312 185C493.612 182.933 493.812 180.333 493.912 177.2L494.162 169.95H511.112V192.95H514.612V202.05H511.562V196H490.862V202.05H487.862ZM493.462 192.95H507.712V173H497.212L497.062 177.5C496.962 180.6 496.745 183.2 496.412 185.3C496.112 187.367 495.712 189.017 495.212 190.25C494.745 191.45 494.162 192.35 493.462 192.95ZM519.716 196V170H523.116V191.4L538.966 169.95H542.016V196H538.616V174.95L523.016 196H519.716ZM547.503 196L555.253 185.35C553.486 185.083 552.053 184.317 550.953 183.05C549.886 181.75 549.353 179.983 549.353 177.75C549.353 176.25 549.703 174.917 550.403 173.75C551.103 172.583 552.086 171.65 553.353 170.95C554.653 170.25 556.17 169.9 557.903 169.9H567.853V196H564.453V185.9H558.653L551.303 196H547.503ZM557.853 183.3H564.453V172.6H558.453C556.72 172.6 555.336 173.1 554.303 174.1C553.27 175.067 552.753 176.3 552.753 177.8C552.753 179.333 553.17 180.633 554.003 181.7C554.87 182.767 556.153 183.3 557.853 183.3Z" fill="#03032C"/>
<path d="M211.695 24.65L223.595 24.65L245.78 85H233.71L228.1 69.955H207.02L201.495 85H189.425L211.695 24.65ZM225.975 61.71L217.645 36.805L208.975 61.71H225.975ZM251.889 85V37.485H262.174V75.99H286.484V85H251.889ZM329.862 75.99V85L293.227 85V37.485H329.182V46.495H303.512V56.61H325.697V65.025H303.512V75.99L329.862 75.99ZM344.326 37.485L357.416 54.315L370.506 37.485H381.641L362.856 61.54L381.046 85H369.911L357.416 68.85L345.006 85H333.701L351.976 61.54L333.106 37.485H344.326ZM385.18 66.81V56.525H410.935V66.81H385.18ZM471.282 85V45.39L455.812 74.885H449.267L433.797 45.39V85H422.067V24.65H434.647L452.497 58.99L470.517 24.65H483.012V85H471.282ZM531.737 75.99V85H495.102V37.485H531.057V46.495H505.387V56.61H527.572V65.025H505.387V75.99H531.737ZM540.591 85V37.485H559.801C565.524 37.485 570.312 38.5617 574.166 40.715C578.019 42.8117 580.909 45.645 582.836 49.215C584.819 52.785 585.811 56.7517 585.811 61.115C585.811 65.9317 584.734 70.125 582.581 73.695C580.427 77.265 577.396 80.0417 573.486 82.025C569.632 84.0083 565.071 85 559.801 85H540.591ZM575.356 61.2C575.356 58.2533 574.732 55.7033 573.486 53.55C572.296 51.34 570.539 49.6117 568.216 48.365C565.949 47.1183 563.144 46.495 559.801 46.495H550.876V75.99H559.801C563.201 75.99 566.034 75.3667 568.301 74.12C570.624 72.8167 572.381 71.0317 573.571 68.765C574.761 66.4983 575.356 63.9767 575.356 61.2ZM594.463 85V37.485L604.748 37.485V85H594.463ZM610.769 85L631.509 37.485H639.924L660.579 85H649.699L644.939 73.865H626.494L621.734 85H610.769ZM635.759 49.98L628.789 64.94H642.474L635.759 49.98Z" fill="#03032C"/>
<line x1="189" y1="126" x2="661" y2="126" stroke="#03032C" stroke-width="2"/>
</svg>
