<svg width="81" height="70" viewBox="0 0 81 70" fill="none" xmlns="http://www.w3.org/2000/svg">
<g clip-path="url(#clip0_421_1683)">
<path d="M78.291 70H1.87752C-0.208139 68.0708 -0.547059 66.4544 0.860762 65.1508L32.0675 1.17318C32.9017 0.391061 33.8924 0 35.0395 0C36.1867 0 37.1773 0.391061 38.0116 1.17318L51.9334 29.6425L54.5926 21.1955C55.3747 20.4134 56.3524 20.0223 57.5256 20.0223C58.6988 20.0223 59.7025 20.4134 60.5368 21.1955L79.2295 65.1508C80.6373 66.4544 80.3245 68.0708 78.291 70ZM35.0395 10.0112L25.1066 29.9553C25.1066 30.3203 25.0675 30.8417 24.9893 31.5196C24.911 32.1974 24.885 32.6927 24.911 33.0056C24.9371 33.3184 25.0153 33.6704 25.1457 34.0615C25.276 34.4525 25.5367 34.7132 25.9278 34.8436C26.3189 34.9739 26.8794 35.013 27.6094 34.9609C28.7043 34.9088 29.682 34.6089 30.5423 34.0615C31.4027 33.514 32.0805 32.9404 32.5759 32.3408C33.0712 31.7412 33.749 31.1937 34.6094 30.6983C35.4697 30.203 36.4474 29.9553 37.5423 29.9553C38.4809 29.9553 39.3673 30.3073 40.2016 31.0112C41.0358 31.7151 41.7788 32.5754 42.4306 33.5922C43.0824 34.6089 43.7602 35.6127 44.4641 36.6034C45.168 37.594 46.0023 38.4153 46.9669 39.067C47.9315 39.7188 48.9613 40.0186 50.0563 39.9665L35.0395 10.0112Z" fill="#962194"/>
</g>
<defs>
<clipPath id="clip0_421_1683">
<rect width="80.0894" height="70" fill="white"/>
</clipPath>
</defs>
</svg>
